<svg xmlns="http://www.w3.org/2000/svg" id="katman_1" data-name="katman 1" viewBox="0 0 900 646.45"><defs><style>.cls-1{fill:#2a2d60}</style></defs><path d="m106.03 615.39-41.3.16-.28-78.04 38.58-.15c3.9-.02 7.23.23 9.98.73 2.76.49 5.94 1.49 9.57 3s5.91 4.3 6.83 8.39 1.38 7.18 1.39 9.27c.03 7.38-3.64 13.25-11.02 17.63 2.45 1.22 4.54 2.7 6.3 4.43 1.74 1.73 3.04 3.62 3.89 5.68.84 2.05 1.27 4.39 1.28 6.99 0 2.17-.33 4.89-1.01 8.15-.68 3.25-1.92 5.67-3.69 7.23s-3.37 2.73-4.8 3.49c-1.42.76-3.48 1.46-6.15 2.08-2.69.63-5.88.95-9.56.96Zm-2.74-64.03-23 .09.06 18.02 23-.09c3.34-.01 5.92-.72 7.73-2.09 1.81-1.39 2.7-3.67 2.69-6.85-.02-6.08-3.52-9.11-10.48-9.08m-22.88 31.89.07 18.45 23.06-.09c3.39-.01 5.97-.73 7.72-2.15 1.77-1.42 2.64-3.76 2.63-7.01-.02-6.21-3.5-9.31-10.42-9.29zm79.46-53.17-16.62.18-.05-13.56 16.62-.17.05 13.56Zm-16.38 7.12 16.51-.06.28 78.04-16.51.06zm82.4 64.8.05 12.92-20.07.08h-1.36l-1.14.01c-2.94.01-5.53-.12-7.79-.41q-3.405-.405-7.38-2.25-3.99-1.83-7.02-5.07c-2.03-2.16-3.52-4.5-4.47-6.98-.95-2.49-1.6-5.15-1.96-7.97a71 71 0 0 1-.56-8.79l-.16-46.46 15.68-.06.15 42.87c0 1.88.01 3.49.02 4.83 0 1.34.14 3.17.39 5.48s.97 4.42 2.16 6.29c1.06 1.88 2.8 3.28 5.25 4.21 2.44.93 5.58 1.39 9.41 1.37l18.82-.07Zm56.55-1.53-.06-18.23-21.01.08-.05-13.78 37.11-.14.16 46.23-33.77.13h-1.15c-1.67.01-3.3.02-4.9.02-1.32-.21-2.46-.37-3.38-.47-.94-.11-2-.33-3.18-.64-1.18-.32-2.81-.88-4.9-1.67s-4.72-2.58-7.89-5.39-5.66-6.85-7.45-12.13-2.7-10.99-2.72-17.14l-.02-4.67c-.01-3.84.4-7.39 1.22-10.64.83-3.26 1.94-6.27 3.32-9.02s3.03-5.16 4.94-7.23 4.73-4.09 8.45-6.06 9.48-2.97 17.29-3l33.87-.13.05 13.57-33.87.13c-4.6.02-8.18 1.13-10.76 3.35-2.57 2.22-4.38 5.21-5.4 8.97-1.03 3.77-1.54 7.96-1.53 12.59v1.2c.03 7.6 1.3 13.52 3.78 17.78 2.49 4.26 7.19 6.37 14.09 6.35l17.77-.07Zm45.53-71.04-16.62.17-.05-13.56 16.63-.17.05 13.56Zm-16.39 7.12 16.52-.07.28 78.04-16.52.06-.28-78.04Zm85.31-.34 41.5-.16.05 14-38.99.15q-12.33.045-12.3 10.26c0 2.89.95 4.98 2.85 6.28 1.81 1.44 4.22 2.15 7.21 2.14l20.81-.08c4.03-.02 7.63.27 10.77.83 2.86.64 5.81 2.38 8.86 5.22 3.03 2.86 4.57 8.15 4.6 15.89 0 2.1-.14 4.03-.45 5.8s-.93 3.86-1.86 6.24c-.93 2.39-2.53 4.5-4.78 6.33-2.27 1.81-4.96 3.09-8.09 3.82-2.86.81-6.55 1.22-11.08 1.24l-42.03.17-.05-14 39.52-.15q5.85-.03 9.03-1.83c2.13-1.21 3.18-3.46 3.17-6.79v-1.63c-.23-2.24-.79-3.86-1.71-4.87-1.18-1.08-2.53-1.8-4.03-2.15-1.51-.36-3.3-.54-5.4-.53l-18.65.07c-8.03.03-14.24-1.68-18.61-5.13-4.38-3.45-6.58-9.27-6.6-17.44-.02-4.14.63-7.82 1.95-11.09 1.31-3.26 3.11-5.78 5.41-7.57 2.3-1.77 4.93-3.04 7.94-3.77 2.71-.8 6.37-1.22 10.97-1.24ZM460.72 614l-16.73.07 31.29-78.16 16.73-.06 32.37 77.91-17.56.07-6.97-18.64-32.72.13-6.41 18.69Zm11.49-32.5 22.48-.09-11.5-29.8-10.98 29.88Zm73.29 32.17-15.78.06-.28-78.04 38.78-.15c1.96 0 3.95.1 6.02.3 2.05.21 4.35.62 6.89 1.22 2.55.61 4.95 2.05 7.18 4.31a21.35 21.35 0 0 1 4.95 7.85c.92 3.18 1.38 6.43 1.4 9.77q.015 5.535-1.53 9.99c-1.18 3.04-2.84 5.56-5 7.56-2.14 2-4.98 3.44-8.45 4.32l18.62 32.6-17.67.07-16.72-30.44-18.51.07.11 30.5Zm19.12-64.11-19.34.08.07 19.75 19.34-.08c2.86-.01 5.24-.19 7.16-.55 1.92-.38 3.6-1.32 5.06-2.85 1.25-1.52 1.86-3.74 1.85-6.62-.02-4.2-1.26-6.88-3.74-8.02-2.47-1.16-5.95-1.72-10.4-1.7Zm59.71 63.81-16.2.06-.28-78.04 23.31-.09 19.24 59.73 18.93-59.88 23.09-.09.28 78.04-15.57.06 1.03-60.68-18.9 60.74-16.84.07-19.98-61.13 1.9 61.2Zm90.41-.36-16.72.06 31.28-78.16 16.73-.07 32.37 77.91-17.57.07-6.97-18.64-32.71.13-6.43 18.7Zm11.5-32.49 22.47-.09-11.5-29.8-10.98 29.88Zm107.32 19.11.05 12.92-20.07.08h-2.51c-2.92.01-5.52-.12-7.79-.41-2.27-.28-4.72-1.02-7.38-2.25a22.4 22.4 0 0 1-7.02-5.07c-2.03-2.16-3.51-4.49-4.46-6.98s-1.61-5.15-1.97-7.97c-.35-2.82-.53-5.75-.55-8.79l-.16-46.46 15.68-.06.15 42.87c0 1.88.01 3.5.02 4.83 0 1.34.14 3.17.39 5.48s.98 4.42 2.16 6.29c1.05 1.88 2.8 3.28 5.24 4.21 2.45.93 5.58 1.39 9.42 1.37l18.82-.07ZM636.15 198.91l20.53-.08-4.92-86.24-10.79.04-15.83 22.35c-17.52-4.72-35.57-8.73-54.1-12.11a140 140 0 0 1-.42 22.08c39.99 11.68 50.19 23.78 65.53 53.95Zm-216.54-73.27c20.18-.08 39.69.74 58.55 2.43-.23-5.94-.75-11.38-1.54-16.27-18.6-1.08-37.61-1.6-57.06-1.52h-.77c-3.92.02-7.79.08-11.6.15l.05 15.44c3.79-.12 7.65-.22 11.6-.23.26 0 .51-.01.77-.01Zm70.44 244.56c1.35-4.88 2.34-10.26 2.98-16.14-10.65.73-22.05 1.13-34.26 1.18-17.94.07-34.83-.66-50.71-2.15l.06 16.47c16.6 1.1 32.9 1.63 48.21 1.57 11.58-.04 22.81-.37 33.72-.93m-172.68-38.71c-29.29-12.92-51.62-31.12-66.93-54.61l-20.15.08.33 92.52 14.67-.06 25.46-24.76c13.9 5 29.77 9.27 46.73 12.85l-.09-26.03Z" class="cls-1"/><path d="M650.43 251.13c-17.04-10.69-42.58-19.21-76.6-25.61-10.03-1.86-23.88-3.81-41.49-5.86-6.7-.77-13.95-1.57-21.74-2.38 6.61-4.12 12.54-8.64 17.77-13.57 3.88-3.67 7.4-7.55 10.52-11.67 7.9-10.4 13.33-22.22 16.29-35.47 1.09-4.87 1.84-9.95 2.28-15.23.27-3.48.42-7.05.4-10.71-.01-3.43-.14-6.82-.41-10.1-.44-5.5-1.25-10.8-2.39-15.91-3.63-16.31-10.81-30.6-21.57-42.88-16.14-18.44-38.23-27.59-66.24-27.48l-160.68.63.09 25.94h3.49c7.11-.04 12.17 1.43 15.19 4.4q4.53 4.44 4.56 11.7l.09 25.04.05 15.53.08 22.52.06 16.51.07 20.43.06 16.28c-5.29-1.9-9.79-3.92-13.46-6.08-.61-.36-1.2-.72-1.77-1.09-8.62-5.58-12.95-11.75-12.97-18.5-.03-7.59 4.86-14.49 14.6-20.68l-.1-26.65c-14.5 3.25-27.68 7.27-39.48 12.11-35.32 14.47-52.94 33.07-52.86 55.79.05 13.49 6.47 24.91 19.3 34.26 12.82 9.33 32.87 17.18 60.16 23.55 4.04.94 8.49 1.88 13.34 2.8 4.18.81 8.67 1.61 13.44 2.41 17.32 2.87 38.58 5.69 63.77 8.46 8.67.96 17.82 1.9 27.44 2.84 6.07.59 12.32 1.19 18.76 1.77 7.49.66 14.54 1.3 21.16 1.91 10.15.92 19.24 1.79 27.31 2.6 19.94 1.99 33.53 3.57 40.71 4.76 12.38 2.05 22.95 4.48 31.67 7.28 6.7 2.15 12.32 4.52 16.87 7.12.85.49 1.66.99 2.47 1.51 8.79 5.71 13.21 12.63 13.24 20.78.02 5.05-1.87 9.76-5.59 14.16.36 4.31.59 8.69.61 13.2.02 6.37-.3 12.55-.93 18.54 11.61-3.02 22.64-6.48 33.08-10.41 36.75-13.86 55.08-32.33 55-55.4-.05-15.41-8.61-28.46-25.65-39.13ZM393.7 95.46l-.05-12.67c-.03-8.35 1.66-14.12 5.06-17.29 3.4-3.16 11.48-4.77 24.2-4.83 26.67-.1 44.78 5.49 54.35 16.77 4.24 5.01 7.54 11.55 9.92 19.61 1.38 4.7 2.45 9.91 3.21 15.65.67 5.17 1.1 10.73 1.27 16.75.04 1.64.06 3.32.07 5.02.01 3.61-.05 7.1-.17 10.47q-1.32 35.94-13.02 53.76c-.47.72-.94 1.43-1.43 2.12-3.62 4.89-8.12 8.89-13.48 12.02-2.01-.18-4.05-.36-6.1-.53-25.09-2.13-46.22-4.24-63.43-6.33l-.05-15.51-.17-48.45-.05-15.45-.06-15.7-.05-15.41Z" class="cls-1"/><path d="M574.01 317.76c-.88-6-2.2-11.75-3.94-17.21-9.24-4.7-23.44-8.66-42.32-11.8-5.59-.92-15.36-2.11-29.19-3.56 5.76 13.63 8.68 30.65 8.76 51.07v1.09c-.01 5.44-.22 10.62-.67 15.54-.52 5.84-1.31 11.33-2.43 16.44-1.23 5.7-2.86 10.95-4.83 15.73-2.21 5.35-4.88 10.13-8.02 14.32-10.73 14.37-25.55 21.58-44.45 21.66l-38.59.15c-4.16.02-7.45-2.02-9.87-6.09-2.43-4.08-3.65-10.04-3.68-17.85l-.05-13.24-.05-15.48-.06-16.9-.05-15.56-.22-60.97c-24.97-2.71-46.24-5.52-63.77-8.37l.19 53.87.06 16.28.08 23.27.05 15.57.08 20.67c.03 7.44-1.55 13.86-4.75 19.26-2.4 3.92-5.95 5.88-10.64 5.9l-7.7.03.09 25.95 150.85-.59c24.52-.1 45.78-4.93 63.77-14.49 17.98-9.58 30.58-20.5 37.77-32.81 4.28-7.34 7.65-15.27 10.1-23.81 1.51-5.24 2.68-10.7 3.49-16.39 1.01-6.95 1.5-14.24 1.47-21.85 0-1.05-.05-2.08-.06-3.12-.15-5.79-.6-11.37-1.41-16.72Z" class="cls-1"/></svg>