<svg xmlns="http://www.w3.org/2000/svg" id="katman_1" data-name="katman 1" viewBox="0 0 900 646.45"><defs><style>.cls-1,.cls-2,.cls-3{fill-rule:evenodd}.cls-1{fill:#e04312}.cls-3{fill:#652579}.cls-2{fill:#fff}</style></defs><path d="m64.62 90.73-2.01 20.54 1.67 284.79 121.43 5.46 25.26-.63 23.29 1.82 121.21 1.65 375.88-.47-7.71-31.76-65.57-88.81-8.05-17.08 9.74-87.98-11.92-96.94-90.67-6.85-35.75.99-15.57 7.25-30.33-4.59-19.8-2.41-33.35 3.19-57.77 5.4-37.65-2.81-19.52 3.88-117.26-2.31-49.69-1.02-12.16.47-11.38 2.1-52.48 2.69z" class="cls-2"/><path d="M649.92 92.3h194.63v291.16H649.92z" style="fill:#e04312" transform="rotate(-.22 739.186 235.812)"/><path d="M857.89 381.9c-.19 1.44 2.01.92 2.41 1.13-.5-2.42-2.98-1.07-2.41-1.13m-5.1-23.83.9.42-2.21-3.51zm-.04-22.3c-3.75 2.12.64 8.08-.69 12.06l-.85.66 3.03 1.78c-.5-4.83-2.53-11.09-1.49-14.5m8.08-11.92c-1.46.74-1.27-2.57-.45 2.77.16-.27.25-.34.37-.5-.02-.48-.02-1.14.08-2.27m-.95-8.57 1.32 3.09c.86-.65 1.05-3.4 1.68-2.38-.73-3.17-1.58-2.51-2.99-.71Zm-2.76-2.93.56 1.6c.36-.29.49-.71-.56-1.6m1.74 5-1.18-3.39c-.6.45-1.82.5.43 1.56-1.11-.28-.04.39.75 1.83m-.57 1.93c-.81 1.74-1.32 3.98-2.63.88.54 5.91 3.18 5.04 2.63-.88m-9.43 15.36-1.09 2.33 1.27 2c-.62-1 1-4.47-.17-4.33ZM861.75 296c-.8-.19-2.13 1.05-3.15 1.29l.93 2.28c.54-1.18 1.04-3.4 2.22-3.56Zm-3.15 1.28-1.38-3.42c-.15 3.05.5 3.61 1.38 3.42m-5.65 14.54 2.91 5.6-2.95-6.68zm8.85-28.88 1.86 1.93-2.81-3.44zm-.35-8.66c1.54 1.43 2.59-1.98 3.54-.47-.28-2.35-1.61-4.35-2.8-6.16.67 1.92.51 3.97-.74 6.62Zm-1-9.65c.37.96 1.03 1.95 1.73 3.03a9.3 9.3 0 0 0-1.73-3.03m-2.86 23.42c.48-.27 1.75-.78 2.27-2.7l-2.24 1.36c0 .41-.02.87-.03 1.35Zm-.04-1.31.07-.05c.06-1.46.1-2.47.11-2.91-.02.37-.08 1.26-.18 2.95Zm.03 1.64v-.34c-.22.13-.29.21 0 .34m-2.63 14.47c-1.26-2-2.63-6.18-4.53-2.13 1.54 1.44 2.62-.89 4.53 2.13m-.17-12.79-.5 3.63c.59-.07 1.46-.73 2.09.26l-1.59-3.9Z" class="cls-1"/><path d="m854.06 288.29.72 1.77.19-1.34zm4.31-17.43c-.98-1.56-1.07-3.28-1.23-5.22-.44 2.08-.67 4.23-.65 6.27.71.29 1.98 1.18 1.89-1.05Zm-.6 7.72-.13-.35c-.19.21-.25.39.13.35m-.69-32.02-.41.31.39.07zm-1.02 25.7c-.43 1.56.13 2.49.82 3.38a21 21 0 0 1-.4-3.74c-.32-.12-.53-.15-.42.35Zm3.32-12.95c-.47.81-.86 1.74-1.23 2.71.71-.8 1.81-2.43 1.23-2.71m-1.12 18.39c.03.08.08.15.1.23.48-.51.25-.45-.1-.23m0 0c-.33-.8-.89-1.43-1.38-2.06.18.95.43 1.83.76 2.59.16-.19.4-.39.62-.53" class="cls-1"/><path d="M842.62 240.83c2.09.27 4.03 4.36 1.81 7.92 1.58 3.48 8.42 1.18 12.25-1.88-.91-.11-1.75-.1-2.99-3.69-1.14 1.26-2.63 7.97-4.53 4.95-1.09-4.75.72-3.9 1.82-6.21-2.59 1.98-3.8-6.03-7.62-4.98l1.36 4.16c-.59.08-1.55-1.43-2.09-.27Zm13.86 12.87.27 1.47c.36-1.68 1.18-2.89 2.81-5.12-1.03-2.45-1.8-2.96-2.49-3.13l-.27 7.27-.31-.5Zm.3 8.11c-2.27-1.14-3.25-4.69-5.69-2.51.17 4.33 1.9 3.03 2.9 5.61-.59-6.99 1.27 2.01 2.54-3.05.39 1.37.52 2.61.61 3.77.27-1.26.61-2.48 1.02-3.62l-.14.16v.03h-.03c-.28.3-.45.4-.29.06-.03-.02-.04-.11-.05-.14-.32-.05-.59-.18-.86-.31.46-2.02.59-.32.86.31.11.02.22.08.34.08l.03-.03-1.26-7c-.31 1.49-.24 3.34.03 6.63ZM845.53 297c.2-.22.36-.21.53-.22-.28-.45-.47-.62-.53.22m1.36-2.88c.32.51 1.23.93 1 2.58-.68 1.44-1.09 0-1.83.08.6.99 1.64 3.48 2.73.35l-.31-.5c.77-2.83 3.58-6.46 3.9-5.97-2.04.83-3.49 1.56-5.48 3.45Zm4.37-16.36-1.13-5.83-1.95 2.98 1.18-.15c-.45 3.32 1 2.6 1.91 3.01Zm6.94-31.87 2.4.76-3.39-3.35zm-.31-7.58 2.09.27-1.27-2zm-195.7-62.43.6 1.72c-.19-.81-.39-1.33-.6-1.72m.09-12.41-1.03-.3c.57.57.98.81 1.03.3m142.63-84.73c-2.46-1.97-5.21-5.03-4.91-2.65l.76 2.32c1.71-.42 3.03-.17 4.14.33ZM679.68 93.09l.72.7c.59-.8 1.14-1.54 1.65-2.23-.72.46-1.53.98-2.37 1.52Zm-1.69 9.62-3.24-1.49c.73.52 1.77 1.01 3.24 1.49m-13.13 140.93 2.33 1.99c-.02-3.13-1.19-1.75-2.33-1.99m191.9-82.97c.88-2.16 1.25-3.87 1.36-5.38-1.3 2.6-3.26 4.7-1.36 5.38m-218.82 10.42c.42 1.05.89 1.49 1.39 1.46-.4-1.08-.83-1.69-1.39-1.46m220.15-22.02c-.23.38-.34.75-.53 1.14.39 1.57.7 3.16.56 5.08.97-1.92 1.56-4.12-.03-6.22M754.22 370.18c.18.11.39.15.55.28.05-.31-.19-.33-.55-.28m70.44 23.18c-.69.14-1.82.15-2.89.19.52.16 1.39.14 2.89-.19m25.11-177.7c-.26-.34-.59-.6-1.11-.64.55.13.9.35 1.11.64m-5.95-82.55v-.14c-.44.48-.35.4 0 .14m13.92 77.11c.28-.6.51-1.3.67-2.06-.18.33-.4.96-.67 2.06m1.08-.33c-.09.56-.15.99-.22 1.41.38.2.62.02.22-1.41m-.18-4.33c.04.92-.07 1.78-.23 2.6.15-.31.28-.45.36-.36-.03-.47-.06-1.14-.13-2.24M657.28 357.77c-.07.1-.12.23-.22.35.95 1.62.8.91.22-.35m106.6-254.74c.07-.02.11-.09.18-.11-.07-.02-.17-.06-.23-.08z" class="cls-1"/><path d="M758.22 104.78c2.41-2.9 3.78-2.55 5.61-1.94l-1.9-6.7z" class="cls-1"/><path d="m662.95 205.59 2.04-4.06c3.4 4.88 2.24 8.43 5.12 4.61-7.15-.55-.79-15.76-7.93-16.3l1.49-2.68c-.07.77.35.89.29 1.64 3.4-5.21-5.18-3.84-4.19-10.54.54-2.33 1.57-3.97 2.43-2.38l-1.79-5.19c.13-1.51 1.38-1.15 1.25.36l-.6-7.93.21.06c-1.13-1.13-2.87-3.69-3.61-4.94 1.02-2.02.76 1.01 1.65.49l-1.75-4.38c1.84-1.8 3.65 1.84 3.4 4.87 7.12-4.13-1.81-3.64 2.32-12.51l.92 4.15c4.05-2.69 2.56-5.92 5.08-10.62-1.32 1.12-6.34 9.42-8.13 4.66.54-1.35.78-3.12-.66-5.69 2.54-.03 1.91-2.54 1.75-5.68l3.37.2c-.98-3.39-2.7-3.12-4.22-5.11.32-3.79 2.92-4.58 5.12-5.48.51-6.07-4.16 4.2-4.83-2.97.63-2.51.6-4.72.16-6.89-.44-.89-1.29-1.97-2.3-3.87 1.15-1.18 2.06 1.11 3.02.91-.9-.74-1.8-1.61-2.7-2.63.06-.34.89.28 1.31.57-1.05-1.87-3.37-2.02-4.3-5.26-1.63-1.59-.79-2.23.31-2.45 3.29 1.43 5.96 3.29 6.12.88 1.19.97.82 2.1 1.78 3.42.69-1.41 1.41-1.92 1.91-2.55.62-.64.89-1.39 2.92-3.29l4.84 2.23c-3.56-2.56.97-5.62 4.93-8.14-1.26-1.24-2.35-2.32-3.07-2.84l6.34-1.86c.77.56.13 1.74-.9 3.18.43-.29.84-.57 1.16-.83 2.28 1.26 1.11 3.24-.51 5.16l-2.3-2.11c-1.56 2.09-3.02 4.4-2.68 6.4.41-.4 1.2-.74 2.07-.93-.41.56-.66 1.07-.48 1.41.22.36.88-.4 1.91-1.28l1.46 3.81.35-1.52 8.31 2.36c5.93-3.87 11.08-9.54 20.5-11.16-2.33 2.81-.49 4.58-.6 7.9-2.59-3.5-7.3 1.52-12.19.82 2.55.36 2 1.94 1.35 2.5l8.71-3.23c-.19 2.72 1.86 2.03 4.14 3.14-1.75-5.36 6.48-3.6 10.03-5.26.22 1.8-.62 3.64-4.95 3.23 4.79 4.02 6.15-6.32 10.84-2.91-1.06.05-1.63-.23-2.04.69 2.46-1.61 8.5-.37 7.08 1.21l-1.05.04c7.02.61 21.35-.04 22.39-4.6.07.59-.9 5.49-1.32 6.42l12.46-15.37c-1.09 3.92 3.18 13.22-2.63 15.45 1.67.55 3.74 1.19 7.26-.2-1.14-.55-2.86-5.65-1.31-6.01 4.29 4.34 2.98 2.32 8.26 6.01-1.71-.83.16-6.98 2.87-6.79-.42.92.24 6.06-.74 6.7l6.7-6.05c-1.67 1.09-.28 5.11 1.23 6.8-.7-1.18 5.81.09 7.6-.52l-2.85-1.39c7.59.88 7.46-8.5 14.98-8.21-.9 1.25-2.22 7.67 1.61 8.41 1.8-3.09 7.58-14.87 14.49-17.27.58.59 1.12 1.17 1.62 1.76 2.23-.68 4.63-1.36 7.19-2.04-6.96 4.67-14.26 14.47-19.47 18.28 2.85 1.39.8 2.08 5.05 1.9 1.51 1.64-2.31 2.51-3.56 2.62l4.95.51 2.48.26 1.24.13c.27.05.24.09.37.13-.18-3.6 3.07-3.62 4.28-6.63-1.23.63-2.3 1.25-3.2 1.88-.46.31-.87.62-1.24.94-.6.31-1.71.62-2.54.94 0-3.59 5.12-10.24 11.37-9.63.37.71-.85 2.32-2.01 3.9-1.18 1.58-2.26 3.13-2.49 3.73.85-1.24 4.91-2.39 4.59-1.5a40 40 0 0 0-2.88 1.93c.41.82 2.68-1.14 4.77-2.02.55.16.66 1.08-.64 3.08-.22 1.28-4.54 5.09-2.45 3.94 4.03-2.93 16.48-13 19.51-12.29-.14.47-1.09 3.98-2.26 7.28-1.17 3.34-2.55 6.36-3.54 7.4-1.58 1.53-3.47.44-5.3-.15-1.83-.68-3.61-.89-4.96 0 .97-.14 2.16.65 2.55 1.09-.41.61-1.16.49-1.75.55-.59 0-1.02.2-.8 2.14 3.59.61-.28 7.65 3.04 1.77 1.04 3.68-.72 3.91-.55 8.23 2.31-1.39 7.9 3.85 8.94 7.53-.91-.21-2.1.62-2.64 1.02-.29 7.54-1.91 11.59-1.91 18.63-.87.65-1.9 4.05-3.45 2.61.64 1.01 1.86 1.93 1.95 4.1-3.09 4.21-.5-4.83-4.22-1.62 2.09.27 2.9 5.6 4.21 8.68 3.22-.96.59-7.14-.72-10.23 4.44-.03 9.11 5.34 11.19 12.68 1.13 5.84-2.86 2.54-2.22 3.55-.74 10.97 7.79 9.32 4.62 18.44-2.82 3.63-5.63.19-7.67.99-1.09-4.75 1.77-7.31 1.64-10.53l-1.32 3.97c-.95-1.51-1.67-4.68-.86-6.42-2.53 3.04-.42 18.54-2.74 27.01.95 1.5 1.94 4.09 3.08 2.86l-.4-2.68c2.27-2.47 3.17 5.03 4.22 1.63 1.62 3.59 4.15 7.6 2.88 12.67l-3.22.96c.94-.11 1.91-3.32.92-4.73 1.44 2.1-4.34 7.77-.11 10.06l2.22-3.55c1.64 3.6 5.08 8.05 4.08 12.54 3.18-2.05-.37-1.03 3.35-4.24-4.63 2.78.15-11.46-4.71-7.01 4.31-3.28 1.81-5.66 5.49-9.95-1.06.14-2.03 1.52-1.52-2.24-.31-.17-.71-.57-.94-.82.03-.11.05-.15.08-.25l-.12.21c-.16-.16-.19-.18-.04.08-.46.9-1.02 1.63-1.61 1.92-2.45-1.86-2.4-7.84-3.67-9.86.5-2.23 1.22.93 2.36-.29l-1.9-3.01c2.36-.31 3.9-5.95 5.31-.69l.08-4.74c1.32-2.79 1.83-6.63.83-8.99.5-2.23-2.64-5.63-.78-3.69l-1.49-7.42.59-.07c.27-7.33-3.97-15.07.27-23.46-.6-2.46-1.34-5.01-.69-9.14l2.04-.81c-.73-3.16 2.01-9.52-.13-10.87 2.75-1.72 3.03-5.56 2.75-9.67-.14-2.05-.42-4.18-.61-6.13-.09-.65-.17-2.65-.18-4.2-.02-1.57.01-3.03.13-4.32l-2.67.19c.13-6.55-.65-12.65-1.75-19.44l-2.35 2.37c-.6-1.41-.68-3.46-.51-6.08-4.77-.39-10.42-2.09-17.57-1.89 1.02-.92 3.57-.69 5.08-.14-4.51-2.7-12.83-1.68-18.12-.49-3.93 1.18-7.76 2.55-11.22.59-1.72.88-2.96.59-4.17-.01.16 0 .3-.05.43-.13-.17-.03-.44-.03-.7-.03-.76-.41-1.55-.89-2.4-1.27.72.58 1.41 1.06 2.01 1.28-1.32.05-3.34.36-5.31.97l-.85-2.57c-.16.03-.29.05-.46.08-1.94-.94-1.55 1.22-.51 3.16-.99.43-1.9.94-2.61 1.57-1.59-4.16-5.17 1.42-7.34-3.01-1.32 2.17-9.91 1.67-10.95 6.23-.07-.6-.65-.87.41-.91-2.2-.51-4.4-1.02-6.37.27l-.95-3.27-4.79 4.43c-2.93-1.99-4.14-3.14-1.25-5.68-6.98 3.91-5.67 1.48-11.61 5.35l.28-2.12c-2.13.09-5.52 2.94-6.81 1.19-4.77-4.01-23.55-.47-35.78-4.16 2.39 6.23-5.69-2.78-6.15 2.06-.72-1.47-2.42-2.3-.45-3.59-6.23 1.47-9.37-2.31-13.66 1.79-.72-1.48 1.33-2.17.69-3.04-.5.32-1.98 1.29-2.63.41-.64-.88.91-1.24 1.89-1.89-6.37.27-6.99 4.83-7.44 9.1-3.24-2.01-4.84-1.72-7.16 1.09-1.13-1.39-3.01-2.85.95-3.36-1.12-.1-4.52-.6-7.67-.64-.63-.01-1.97 0-2.95.06-1.03.06-1.97.16-2.75.32-1.57.31-2.48.84-2.32 1.7-1.18-.86-4.33-.23-4.91.16-6.75-.18-7.67-.48-14-.13l2.32.55c.39 1.47.05 2.01-.83 2.12.2 1.96-.99 3.16-.66 6.7l-.42-.44c-1.45 4.94-1.09 6.72-.78 8.04.3 1.49.55 2.49-1.1 8.42l2.52-.41c5.43 1.73-3.17 8.5-1.08 13.9l1.43-1.91c1.87 2.88-7.35 8.09-8.02 10.99-.47.63-.76-.99-1.12-1.87-3.17 7.6 3.31.97 4.1 6.62-1.78 1.05-4.54-1.33-4.86 2.48-1.44 1.9 5.83 11.02 2.43 16.22 1.37-1.15 2.74-2.29 3.78.33.5 4.02-5.16 10.9-.81 14.52-.37.51-.73.71-1.07.73 1.13 3.07 1.89 9.99 4.25 11.84-8.71 2.87 4.31 19.11-3.73 19.07l.46 9.46-.82-.24c-.51 6.05 1.42 8.18 3.36 10.3-.54 1.4-1.29.38-1.72.27-1.59 8.84-1.24 9.72 2.79 17.12l-2.6.78c1.52 2.01-4.04 12.8-.97 21.45-.3-.08-.8-.26-1.17-.95 3.1 9.75-7.15 23.38 2.36 26.92l2.36 6.43c.71-8.33 4.13 1.23 5.69-2.21.57 3.27-2.83 8.48-3.34 4.45l.48-.63c-4.96-1.46-1.72 10.35-5.09 10.14.3 16.39-2.38 32.37-2.53 47.72l3.84-1.79-.2 5.36c-.89 1.41-3.01 1.9-2.86-1.92-2.18 2.02 1.85 6.4 2.69 6.5-.76 4.75-1.89 4.38-2.83 2.2-.24-.51-.46-1.11-.67-1.65-.2-.37-.4-.71-.55-.98-.32-.53-.52-.75-.54-.18.1.78.2 2.6.3 4.25l.44-1.15c1.59 3.84 3.25 3.68 3.09 10.25-.75 4.51-2.36 3.34-2.5 5.15-.27.13-.4.83-.1 2.78l-.29 10.79c1.01-2.4 2.01-4.66 3.01-6.79.69 1.36.72 3.32.88 4.32 1.43-.17 2-.49 1.82-1.87.17-.28.37-.69.58-1.15-.14.29-.27.59-.4.96.86 2.41 9.49 2.77 17.65 2.73 9.13-.04 13.51-.46 15.03.35 4.11-2.27 8.17-2.25 13.2-1.99-1.25-.64-2.02-4.11 2.33-3.7-1.56 7.18 7.96 3.08 11.48 8.23-3.14-3.41 12.34-.89 7.4-5.73 3.62.57.23 2.68 2.98 4.36 8.61-2.81 19 1.74 29.64.76.16-.94-1.63-2.38.65-3.79l5.64 4.69c2.1-.47 1.92-5.44 5.77-2.19-.55-.79-1.36-1.98.05-2.29 20.88 4.51 42.63-3.92 63.85 4.62-2.88-1.81-.96-2 1.23-2.08-1.43-.43.02-2.33-.26-3.6l8.89 3.51c1.6-3.55 9.51-.28 10.42-3.66l-2.81.62c3.72-4.01-5.26-8.87-4.73-14-4.17 4.56-11.06-6.69-17.9-.16-1.52-1.04 1.28-1.66.47-2.84-1.74 2.21-3.83 2.67-7.73 1.7l.44-.54c-10.94.58-15.64-1.57-27.93-2.97l.92 2.53c-2.64-.33-3.2-1.12-4.44-1.75-3.02 3.86 7.42.19 4.67 4.45-3.52-5.15-18.62 0-21.01-5.87-4.06-.01 1.2 2.93-2.86 2.92l-1.08-1.58-1.02 2.05c-2.66-.33-4.02-2.3-4.12-3.65.65.16 1.84-.39 2.53-.5-3.46-1.85-9.73.68-10.92.07l3.91.96c-11.08 1.53-24.63-.51-35.33 2.76l.82 1.2c-8.17 2.24-6.56-1.29-15.53-.23l.33-.29c-1.79 1.2-4.19 1.81-6.65 1.68 2.26-1.41-4.28-2.71-1.31-4.27-8.86 2.41-4.38 1.88-10.22 6.35l-1.36-1.98c-1.99 1.81-2.15 2.75-6.64 3.28 3.67-1.72-2.87-3.01 1.24-5.28q-.885-.405-1.71-.66c-.4-.18-.58-.31-.85-.4-.5-.19-.96-.23-1.41-.17-.91.11-1.85.6-2.82 1.03-1.84.85-3.99 1.45-2.52-1.73-7.03 5.53 2.64 3.04.42 4.23.22.9-.83 1.93-2.47 2.67-1.61.74-3.78 1.19-4.79.92-.83-.04-.87-.88-.6-1.96 2.02-3.74 4.92-7.57 4.84-9.85-.02.4.38.19.36.56.68-1.1.22-1.42-.14-2.02-.36-.55-.62-1.4.5-2.43-1.64-.2-1.59-.91-1.66-1.41-.07-.84-.25-1.73-2.33-1.98l.24 1.76.25 1.17.49 2.11c-.55-1.17-2.04-1.87-3.11-4.17-1.07-2.26-1.71-4.84-.54-8.15.84.51 1.95 2.47 2.58 3.82 1.22-1.93-.83-3.71.43-5.71 2.09.28 2.32 2.42 2.43 5.03.05 1.31.08 2.73.29 4.09.1.68.26 1.36.48 1.97.23.3.52.57.92.76.44-.35.47-.38.34-1.1-.13-.82-.43-1.71-.64-2.45-.42-1.5-.49-2.47 1.77-1.4-5.75-3.08.7-7.59-3.7-12.78l2.5.33c-.4-.82-1.58-2.53-1.53-4.05l3.25 2.73c-2.78-4.21 2.38-8.14.87-12.19.11 8.48-3 1.91-4.81 5.5-3.38-10.44 6.51-6.04 5.27-17.74.36 1.58-1.48 5.95-2.64 3.48.51-2.23 1.45-5.17 2.76-6.55-.55-7.75-2.56 1.2-4.11-2.09 3.03-2.65-1.25-3.8-2.24-7.2l2.54-.03c1.6-8.84-5.3-2.33-3.36-10.29l3.54 3.35-.93-4.14 2.9.84c-2.16-4.5-1.61-5.91-.82-10.33-1.79 1.03-4.61-.56-4.7-4.47 1.5-2.67 2.42 1.49 2.03-4.06 1.6 1.25 3.59 2.61 1.26 5.04.83.24 1.6 1.23 2.41 1.48 1.72-2.88.37-7.23.34-9.23-.09.77-.22 1.7-.59 2.17l-3.55-8.03c.95-1.27 1.72-.27 2.47.72-.28-1.63-1.45-2.75-1.68-5.14 2.06.61 4.19.45 5.18 3.84l-2.32-7.65c.89-.52 2.45-3.94 3.21-2.95 1.2-4.25-4.04-10.41-2.46-16.04-.4-.29-.79-.88-1.09-2.08.45-5.29 2.96-9.99.11-16.26l3.69-3.57c-.86-4.91-4.64 4.84-6.07-3.34-1.2-5.79 3.15-2.17 4.17-4.21-1.87-2.87-5.69-7.87-2.7-13.2.7 1.76.16 3.14.44 4.79Zm-1.86-60.6c.54 1.17 2.19 3.51.69 4.37-2.91-1.32-1.52-2.36-.69-4.37m27.38-46.97c-.85.86-2.18.44-3.68-.53 1.09-.21 2.32-.12 3.68.53m168.17 92.17s-.07-.08-.12-.13c.98-2.62.59-1.69.12.13m-1.08 5.44c-.58-1.62-.12-2.33.54-2.72-.17 1.39-.13 2.61.52 2.99-.35.23-.7.27-1.06-.28ZM640.27 380.91l.66-1.94c.74 3.07.08 2.49-.66 1.94" class="cls-1"/><path d="M678.22 101.6c-.33-.43-.42-.92-.5-1.4-.45.43-.46.94.5 1.4m-13.79 141.68-.03.19c.15.1.31.15.46.18zm169.3-131.22c.36-.57.83-.97 1.3-1.28-.62.08-1.15.44-1.3 1.28m26.25 112.38-.68-3.48c.13 1.69-.42 2.29-.82 3.14.59-.08 1.45-.75 1.5.34m-15.6 30.3c.31.51.03 1.08.35 1.58l1.18-.14c-.09-2.17-1.04-3.68-1.53-1.44m7.18-27.04c-2.14.28-1.4 2.46-1 4.9 0-.14-.03-.29 0-.43 2.99.71 1.99-1.89 1-4.47m-.93 5.47c.1.75.16 1.52.06 2.26 1.2.28.25-.92-.06-2.26m6.37-30.65c-.55 1.16 2.73.72 1.86 1.37 2.72 1.28-3.32-7.7-1.86-1.37m-12.47 27.18 2.63-.88-2.13-1.37zm1.86-19.28-.71 3.91c.44-.06.7.43.9 1.04.08-2.4.59-5.04-.19-4.94Z" class="cls-1"/><path d="M846.58 215.36c-.05 1.25.01 2.44.45 3.14-.03-.68-.12-2.13-.45-3.14m-2.86 9.01.54-1.15.19-2.76zm3.03-55.87-.77-4.25c-.91-.43-1.46.73-1.09 2.32.63 1.02.99 2.59 1.86 1.94Zm-7.17 12.9c.54-1.16 1.13-1.24 2-1.89l-3.27-.12 1.27 2Zm-.81-12.41c-.91-.42-2.62-6.17-2.4-.77.9.43 1.67 4.69 2.4.77m3.9-63.61.05.99 5.35-1.97c-1.8.24-3.6.57-5.4.98m-41.46 1.18c4.96 1.29 1.16-3.37 5.65-1.75 1.16-1.3-3.66-1.32-2.48-2.44-2.99 1.37-4.56.61-3.17 4.19m3.17-4.19c.48-.21.99-.48 1.53-.83-.87.34-1.27.61-1.53.83m31.96 293.87 3.2 1.13-2.07-1.83zm6.11-4.07.76 3.47 1.9-3.15c-.72.16-2.12.46-2.67-.32ZM667.94 135.96l-.82-.24c-.89.51-.95 1.26-1.09 2.79l1.91-2.54Zm-2.39 43.99.06-.75-3.08 1.42zm4.07 36.91c.12-1.51-.58-3.28-.45-4.79.57 3.28-3.4 5.21.45 4.79m195.39 182.33c-.18 3.32 2.02 2.12 2.42 2.61-.51-5.54-2.99-2.47-2.42-2.61m-5.2-54.68.9.96-2.24-8.05zm-.15-51.15c-3.74 4.85.67 18.53-.63 27.65l-.85 1.51 3.04 4.1c-.52-11.08-2.58-25.45-1.56-33.26m8.03-27.3c-1.46 1.69-1.28-5.89-.44 6.36.16-.61.25-.79.37-1.15-.02-1.1-.03-2.62.07-5.21m-1-19.67 1.33 7.09c.86-1.49 1.03-7.8 1.66-5.46-.74-7.28-1.59-5.77-2.99-1.63m-2.77-6.71.57 3.67c.36-.65.48-1.62-.57-3.67m1.76 11.47-1.19-7.8c-.6 1.03-1.82 1.14.43 3.58-1.11-.63-.04.91.76 4.22m-.55 4.41c-.8 3.98-1.3 9.13-2.62 2.01.57 13.57 3.2 11.56 2.62-2.01m-9.36 35.21-1.08 5.32 1.28 4.6c-.63-2.3.98-10.26-.2-9.92m12.7-88.58c-.8-.44-2.12 2.39-3.14 2.93l.94 5.24c.54-2.7 1.02-7.8 2.21-8.16Zm-3.14 2.92-1.4-7.84c-.13 7 .52 8.28 1.4 7.84m-5.58 33.32 2.93 12.87-2.98-15.36zm8.71-66.19 1.87 4.44-2.83-7.91zm-.39-19.87c1.54 3.28 2.58-4.52 3.53-1.04-.29-5.4-1.63-10-2.82-14.15.68 4.41.52 9.11-.71 15.19m-1.05-22.15c.37 2.2 1.04 4.48 1.75 6.96-.36-2.34-.88-4.64-1.75-6.96m-2.75 53.7c.48-.61 1.74-1.78 2.26-6.18l-2.24 3.09c0 .94-.01 2.01-.02 3.09" class="cls-1"/><path d="m864.23 180.94.07-.11c.05-3.35.09-5.67.1-6.66-.02.86-.07 2.89-.17 6.77m.04 3.76v-.78c-.22.3-.29.48 0 .78m-2.56 33.16c-1.27-4.6-2.66-14.2-4.54-4.9 1.55 3.3 2.62-2.02 4.54 4.9m-.24-29.32-.49 8.33c.59-.17 1.46-1.67 2.09.61zm-.73-4.08.73 4.08.18-3.09zm4.23-39.96c-.99-3.59-1.09-7.53-1.26-11.97-.42 4.76-.64 9.69-.62 14.37.71.66 1.98 2.71 1.88-2.4m-.56 17.71-.13-.8c-.19.49-.25.89.13.8m-.88-83.54c-.14.49-.26.95-.41 1.45.13-.01.26-.05.39-.04v-1.42Zm-.86 69.03c-.42 3.58.14 5.72.84 7.76-.24-2.68-.39-5.51-.42-8.56-.32-.3-.53-.35-.42.8m3.26-29.68c-.46 1.87-.85 3.98-1.21 6.21.71-1.83 1.8-5.55 1.21-6.21m-1.03 42.18c.03.18.06.34.1.53.48-1.17.24-1.03-.1-.53m0 0c-.33-1.84-.89-3.29-1.39-4.74.19 2.18.44 4.2.77 5.95.16-.44.4-.89.62-1.21m-23.77-73.66c.99-1.33 5.53-2.6 10.72-2.83.13 2.87-.1 6.58-.93 10.11.79 3.45 2.9 3.78 5.28 1.4 2.38-2.35 5.03-7.95 6.92-15.09-.74.3-1.43.6-2.36-5.55-1.3.21-3.29.43-5.63.68.71.26 2.29.53 4.16.83-.49 4.18-1.04 9.15-1.65 12.15-.61 3.03-1.28 4.07-2.02 1.22-.41-4.66-.43-7.3-.23-9.38-2.79-.35-2.45-1.35-6.27-2.04 1.94 1.32-3.23 2.29-7.89 3.43-4.8 1.14-8.92 2.43-7.95 4.36l9.64-1.41c-.25.61-3.92 1.58-1.79 2.13ZM863 105.15l.27 3.39c.09-.97.2-1.86.36-2.75l.12-.67.13-1.07c.1-.72.2-1.46.31-2.21.52-3.16 1.1-6.64 1.85-11.17-1.05-9.31-1.83-10.45-2.52-10.59l-.2 26.22-.31-1.16Zm.34 18.59c-2.28-2.63-3.27-10.77-5.71-5.77.19 9.94 1.92 6.96 2.93 12.89-.62-16.04 1.28 4.6 2.52-6.99.4 3.15.53 5.98.63 8.66.27-2.89.59-5.67 1-8.3-.05.14-.09.25-.14.37v.08l-.03-.01c-.28.69-.45.92-.29.14-.03-.05-.04-.25-.05-.34-.32-.11-.59-.4-.86-.72.45-4.65.59-.73.86.72.11.05.22.18.34.2l.03-.06-1.3-16.06c-.3 3.4-.22 7.66.06 15.2Zm-11.08 80.67c.2-.5.36-.48.53-.52-.28-1.04-.47-1.43-.53.52" class="cls-1"/><path d="M853.6 197.8c.32 1.17 1.23 2.13 1.01 5.93-.67 3.29-1.08 0-1.83.16.61 2.29 1.66 8 2.73.82l-.31-1.13c.76-6.47 3.55-14.79 3.87-13.67-2.03 1.9-3.48 3.57-5.47 7.88Zm4.29-37.49-1.16-13.37-1.94 6.82 1.18-.35c-.44 7.61 1.01 5.96 1.92 6.9m6.75-85.11q1.2.42 2.4 1.05c-.67-2.17-1.33-4.19-2-6.07l-6.52 1.46 5.65-.56zm-24.14-4.21 1.71-2.12-8.06 1.31zM73.47 278.46l.6 3.93c-.19-1.86-.39-3.05-.6-3.93M73.5 250l-1.03-.7c.57 1.32.99 1.86 1.03.7M417.05 72.85c-5.63-1.96-11.93-5-11.24-2.62l1.74 2.32c3.93-.43 6.94-.18 9.5.31ZM129.76 87.81c.53.23 1.09.47 1.65.7 1.36-.8 2.64-1.56 3.79-2.24-1.64.46-3.5.99-5.44 1.54m-3.93 9.63-7.42-1.47c1.67.51 4.06 1.01 7.42 1.47M89.95 389.58l4.5-2.38c-7.05.04-3.94 1.22-4.5 2.38m571.7-317.05c-4.86-.89-8.72-1.26-12.12-1.36 5.86 1.32 10.58 3.3 12.12 1.36M49.2 267.35c.42 2.41.89 3.43 1.4 3.36-.4-2.47-.84-3.87-1.4-3.36M635.51 71.24c.85.23 1.7.34 2.57.54 3.55-.4 7.12-.73 11.45-.6-4.32-.98-9.27-1.57-14.02.06m8.36 318.15c.41.1.89.15 1.25.28.12-.32-.44-.33-1.25-.28m161.46 22.84c-1.59.15-4.18.16-6.62.2 1.19.16 3.19.13 6.62-.2m-19.8-332.85c-.77.26-1.35.6-1.44 1.13.29-.56.8-.92 1.44-1.13m-186.06 6.46h-.31c1.08.45.89.37.31 0m173.86-14.55c-1.36-.28-2.93-.51-4.64-.67.75.18 2.16.39 4.64.67m-.74-1.09c1.25.08 2.23.15 3.17.21.46-.39.05-.63-3.17-.21m-9.77.2c2.07-.04 4.01.06 5.87.22-.71-.16-1.01-.29-.82-.36zM347.1 396.74c.24.07.52.12.78.22 3.65-.98 2.05-.82-.78-.22M322.84 97.33c.17-.02.26-.08.41-.11-.17-.02-.38-.06-.54-.08l.12.19Zm-13.01 1.79c5.53-2.91 8.68-2.57 12.88-1.97l-4.33-6.68-8.55 8.66Z" class="cls-1"/><path d="m74.37 346.61 2.01-9.31c3.42 11.22 2.29 19.34 5.14 10.6-7.15-1.29-.87-36.15-8.01-37.41l1.48-6.14c-.06 1.75.36 2.03.29 3.77 3.38-11.94-5.2-8.84-4.24-24.21.53-5.36 1.55-9.1 2.41-5.45l-1.81-11.92c.12-3.47 1.37-2.63 1.24.83l-.64-18.19.21.13c-1.13-2.59-2.88-8.47-3.63-11.34 1.01-4.63.77 2.32 1.66 1.13l-1.77-10.07c1.83-4.11 3.66 4.23 3.42 11.19 7.1-9.43-1.83-8.35 2.27-28.67l.94 9.51c4.03-6.15 2.54-13.57 5.02-24.33-1.31 2.56-6.29 21.56-8.11 10.63.53-3.08.77-7.15-.69-13.04 2.54-.06 1.9-5.82 1.73-13.03l3.36.48c-1-7.79-2.71-7.17-4.24-11.75.3-8.69 2.9-10.5 5.09-12.55.48-13.91-4.14 9.62-4.84-6.84 1.24-11.57-.16-19.69-2.23-33.52 1.13-8.1 2.06 1.41 3.02-1.5l-2.71-7.17c.06-1.13.89-.6 1.3-.54-.53-1.3-1.37-1.58-2.19-2.02-.83-.48-1.64-1.18-2.11-4.43-1.63-1.52-.8-4.07.3-6.03 2.68.71 5.28 1.53 7.32 1.87 2.21.34 3.43.2 5.81-1.01 2.85.96-1.37 2.11-.49 3.43 15.85-2.87 13.59-2.1 26.6-5.93l11.1 2.21c-8.16-2.54 2.24-5.63 11.36-8.16-2.9-1.23-5.37-2.31-7.03-2.82l14.55-1.89c1.76.56.3 1.74-2.08 3.18.99-.29 1.93-.57 2.66-.83 5.21 1.25 2.52 3.23-1.2 5.16-1.77-.7-3.53-1.41-5.25-2.09-3.59 2.1-6.95 4.41-6.19 6.42.95-.4 2.76-.75 4.77-.95-.94.57-1.54 1.08-1.1 1.42.49.36 2.01-.4 4.39-1.29l3.32 3.81.8-1.52 19.05 2.32c13.62-3.9 25.45-9.6 47.08-11.26-5.36 2.82-1.14 4.58-1.41 7.9-5.92-3.49-16.75 1.55-27.96.88 5.85.35 4.57 1.93 3.08 2.49l19.98-3.27c-.44 2.72 4.25 2.02 9.48 3.12-3.97-5.35 14.89-3.63 23.02-5.31.51 1.8-1.43 3.65-11.36 3.25 10.97 3.99 14.13-6.35 24.89-2.96-2.43.05-3.73-.22-4.69.7 5.65-1.62 19.5-.41 16.25 1.18l-2.42.05c16.09.57 48.98-.15 51.37-4.71.16.59-2.09 5.5-3.06 6.43l28.65-15.44c-2.52 3.92 7.23 13.2-6.11 15.46 3.83.54 8.57 1.17 16.64-.23-2.61-.55-6.53-5.63-2.96-6 9.82 4.32 6.82 2.3 18.91 5.97-3.92-.82.41-6.98 6.6-6.8-.96.92.54 6.05-1.72 6.7l15.39-6.08c-3.84 1.1-.66 5.11 2.79 6.79-1.61-1.17 13.32.06 17.42-.55l-6.53-1.37c17.4.84 17.15-8.53 34.42-8.28-2.09 1.25-5.14 7.68 3.65 8.4 4.01-3.1 17.76-14.9 33.02-17.34l2.94 1.75 11.71-2.05c-7.28 4.67-27.72 14.51-38.88 18.35 6.52 1.37 1.82 2.07 11.57 1.88 3.45 1.64-5.31 2.53-8.17 2.64l22.7.98c-1.02-3.6 17.35-3.68 16.47-6.68l-24.64 3.83c-1.01-3.59 14.22-10.27 30.3-9.7 4.1 1.42-3.04 6.42-2.7 7.62 2.08-1.25 15.26-2.43 16.74-1.55l-6.82 1.95c8.96 1.32 14.6-4.83 25.37-1.44 3.71.22 11.11 4.6 11.74 2.46-6.07-4.08-7.3-16.79-3.28-19.89 1.3.27 19.52 3.85 23.76 5.87 6.13 3.2-9.15 7.71-3.93 10.46.22-.98 3.59-2.21 5-2.61 3.9.82-1.6 3.05 6.87 2.57 1.4-3.65 17.24.24 4-3.1 8.28-1.08 8.81.71 18.55.52-3.11-2.35 8.71-8.06 17.02-9.13-.49.93 1.38 2.13 2.29 2.68 16.99.27 26.12 1.89 41.97 1.86 1.46.88 9.11 1.92 5.86 3.5 2.28-.66 4.37-1.9 9.25-2.01 9.47 3.12-10.9.53-3.67 4.3.61-2.12 12.63-2.97 19.58-4.33-2.15-3.27-16.09-.57-23.05.78-.05-4.52 12.07-9.3 28.63-11.45 13.16-1.17 5.72 2.9 8 2.25 24.73.7 21.04-7.97 41.58-4.79 8.16 2.85.39 5.73 2.2 7.8-10.72 1.13-16.47-1.77-23.73-1.62l8.95 1.33c-3.41.97-10.56 1.72-14.47.91 6.84 2.56 41.77.34 60.86 2.65 3.39-.98 9.23-2 6.46-3.15l-6.03.43c-5.56-2.3 11.34-3.25 3.7-4.31 8.09-1.66 17.16-4.26 28.56-2.99l2.15 3.28c-.24-.96-7.45-1.93-10.65-.92 4.74-1.47 17.49 4.38 22.68.06l-8-2.24c8.12-1.68 18.16-5.21 28.26-4.21-4.61-3.23-2.33.38-9.52-3.39 6.24 4.7-25.84-.1-15.83 4.82-7.38-4.37-12.76-1.82-22.4-5.54.3 1.08 3.42 2.06-5.07 1.56-.38.31-1.28.72-1.86.96-.26-.04-.35-.05-.57-.08.17.04.3.08.47.13-.37.16-.4.2.17.04 2.02.47 3.66 1.03 4.33 1.63-4.2 2.5-17.69 2.47-22.24 3.78-5.03-.5 2.1-1.25-.65-2.39l-6.81 1.95c-.68-2.4-13.38-3.95-1.53-5.4l-10.67-.07c-6.29-1.33-14.93-1.83-20.25-.8-5.03-.5-12.7 2.71-8.32.81l-16.73 1.55-.15-.6c-16.51-.24-33.97 4.11-52.86-.16-5.56.63-11.3 1.39-20.6.74l-1.82-2.07c-7.13.75-21.44-2-24.5.18-7.72-5.57-34.64-1.09-47.19-2.03l-.46 2.72c-8.64-.12-16.92.68-27.64 1.81l.67 2.4c-9.24 2.01-23.77-1.62-38.4-1.32.99-.92 4.7-.7 7.33-.15-17.49-5.36-36.84 4.09-52.7.2-3.94.89-6.81.6-9.57 0 .37 0 .69-.05.98-.13-.41 0-1.01-.01-1.62-.02-1.75-.41-3.54-.88-5.49-1.26 1.66.58 3.24 1.05 4.62 1.27-3.04.06-7.66.38-12.19 1l-1.93-2.57c-.37.03-.66.05-1.05.08-4.45-.93-3.57 1.24-1.19 3.17-2.28.43-4.36.95-5.98 1.58-3.62-4.15-11.87 1.45-16.81-2.97-3.04 2.18-22.75 1.72-25.15 6.28-.16-.59-1.5-.87.95-.91-5.05-.5-10.1-1-14.62.3l-2.15-3.27-11 4.45c-6.7-1.97-9.48-3.12-2.85-5.67-16.04 3.94-13.02 1.51-26.65 5.41l.66-2.12c-4.88.1-12.67 2.97-15.62 1.23-10.93-3.99-54.01-.35-82.04-3.99 5.46 6.22-13.03-2.75-14.13 2.09-1.64-1.47-5.55-2.29-1.01-3.59-14.29 1.51-21.49-2.26-31.35 1.86-1.64-1.48 3.05-2.18 1.59-3.05-1.15.32-4.54 1.3-6.03.42-1.46-.87 2.09-1.25 4.35-1.9-14.61.3-16.07 4.86-17.11 9.13-7.41-2-11.1-1.7-16.44 1.13-2.58-1.39-6.88-2.83 2.19-3.37-5.11-.18-31.2-1.93-31.7 1.5-1.6-.86-7.14-.23-8.48.17-6.83-.11-10.55-.18-14.23-.24-4.19-.05-8.38-.03-15.82.17l4.61.54c-.99 1.47-2.44 2.02-4.62 2.13.21 4.24-.97 8.56-.63 16.27l-.42-.48c-.35 3.23-.6 5.97-.76 8.24-.16 2.26-.24 3.23-.26 4.44-.05 2.17.12 3.31.27 4.43.31 2.25.56 4.46-1.07 14.91l2.52-1.15c5.43 1.92-3.13 18.51-1.02 30.63l1.43-4.38c1.88 6.61-7.31 18.53-7.97 25.18-.47 1.45-.77-2.29-1.12-4.31-3.14 17.41 3.32 2.24 4.13 15.21-1.77 2.4-4.55-3.07-4.84 5.66-1.43 4.35 5.88 25.3 2.5 37.22 1.36-2.63 2.73-5.24 3.78.78.53 9.23-5.11 24.98-.74 33.3-.37 1.17-.73 1.62-1.07 1.67 1.14 7.05 1.94 22.93 4.3 27.17-8.69 6.55 4.4 43.86-3.64 43.73l.51 21.71-.82-.56c-.24 6.94.13 11.63.8 15.2.67 3.74 1.64 5.53 2.62 9.19-.54 4.42-1.29 1.42-1.72 1.05-.62 11.92-.92 20.12-.79 26.49 4.78-.1 9.17-.43 14.08-1.05 4.79-.62 10.58-1.52 16.54-2.75l1.75 2.65c4.52-1.56 28.82 4.05 48.34.88-.19.3-.59.82-2.14 1.2 21.97-3.2 52.65 7.16 60.67-2.53l14.5-2.44c-18.77-.68 2.78-4.2-4.95-5.78 7.38-.59 19.09 2.84 10.02 3.37l-1.42-.48c-3.32 5.05 23.33 1.7 22.83 5.13 36.93-.39 72.93 2.27 107.53 2.35l-4-3.9 12.07.18c3.17.9 4.26 3.05-4.35 2.92 4.54 2.2 14.43-1.92 14.67-2.77 16.86 1.52-6.56 4.6-1.4 4.67l7.02-.32-1.58-.45c5.68-1.62 6.18-3.32 16.53-3.16 6.55.76 3.37 2.4 5.94 2.54-.01.28.86.41 3.95.1l15.2.28-6.09-3.07c6.73-1.55 14.3.11 7.27-3.37 10.32 5.36 56.72 1.72 63.04 3.37 9.43-2.29 18.75-2.29 30.29-2.06-2.87-.63-4.6-4.1 5.35-3.72-3.61 7.19 18.23 3.04 26.3 8.18-7.2-3.39 28.3-.95 17-5.77 8.31.55.51 2.68 6.82 4.35 19.76-2.86 43.57 1.64 68 .61.38-.94-3.72-2.37 1.52-3.79l12.92 4.66c4.82-.48 4.42-5.46 13.25-2.22-1.25-.79-3.11-1.97.12-2.29 47.88 4.41 97.79-4.13 146.43 4.31-6.59-1.8-2.21-2 2.82-2.09-3.27-.42.06-2.33-.58-3.6l20.36 3.47c3.69-3.55 21.82-.32 23.93-3.72l-6.44.63c8.56-4.03-12.02-8.84-10.79-13.97-9.58 4.58-25.33-6.63-41.05-.07-3.48-1.03 2.96-1.66 1.1-2.85-3.98 2.21-8.8 2.69-17.73 1.74l1.01-.55c-25.09.63-35.86-1.5-64.05-2.83l2.1 2.53c-6.06-.32-7.33-1.11-10.17-1.73-6.94 3.87 17.01.15 10.69 4.42-8.05-5.13-42.72.08-48.17-5.76-9.32 0 2.74 2.93-6.57 2.93l-2.48-1.58-2.35 2.05c-6.11-.31-9.2-2.29-9.44-3.63 1.48.15 4.21-.39 5.8-.51-7.93-1.84-22.34.72-25.06.12l8.96.94c-25.43 1.58-56.49-.38-81.04 2.94l1.87 1.19c-18.76 2.29-15.03-1.26-35.63-.16l.75-.29c-4.12 1.21-9.62 1.83-15.26 1.72 5.2-1.42-9.8-2.68-2.98-4.26-20.33 2.45-10.05 1.91-23.48 6.4l-3.11-1.97c-4.57 1.81-4.95 2.76-15.24 3.32 8.43-1.74-6.58-3 2.87-5.29-21.6-4.26-32.04 4.51-41.97-1.81-9.89 5.53 18.69 2.98 13.14 4.18 4.66 1.78-8.17 4.14-14.94 3.61-6.9-.1-11.75-6.99-29.1-6.82 1.73.02 1.84-.4 3.56-.38-6.5-1.38-12.71 1.95-20.68-.3-4.45 3.34-10.34-.15-11.61 4.09l15.91-1.04c-9.02 1.14-17.46 6.14-32.33 3.79 1.16-.86 5.57-2 8.61-2.64-4.35-1.23-8.37.86-12.88-.4 1.27-4.25 19.34-1 28.99-4.27-4.67-1.77-18.28 3.14-13.43-1.47-6.96 5.87-17.1-.67-28.83 3.84l.76-2.54c-1.86.41-5.71 1.62-9.13 1.57l6.18-3.32c-9.5 2.85-18.34-2.39-27.46-.82 19.1-.15 4.3 3.05 12.39 4.87-23.55 3.49-13.57-6.6-39.95-5.28 3.57-.37 13.41 1.48 7.83 2.68-5.02-.51-11.66-1.46-14.74-2.78-17.48.59 2.69 2.6-4.74 4.19-5.96-3.07-8.58 1.3-16.23 2.32l-.06-2.58c-19.92-1.58-5.26 5.4-23.2 3.47l7.56-3.61-9.34.96 1.92-2.95c-10.16 2.22-13.33 1.67-23.3.88 2.32 1.81-1.28 4.69-10.1 4.81-6.02-1.51 3.36-2.47-9.14-2.05 2.82-1.62 5.9-3.66 11.35-1.31.55-.85 2.78-1.63 3.35-2.47-6.49-1.74-16.29-.34-20.81-.3 1.75.09 3.83.22 4.9.59l-18.11 3.65c-2.86-.96-.6-1.75 1.64-2.52-3.67.29-6.21 1.49-11.6 1.73 1.39-2.11 1.05-4.27 8.68-5.29l-17.26 2.4c-1.16-.91-8.87-2.47-6.63-3.26-9.58-1.2-23.47 4.16-36.17 2.58-.66.41-1.98.81-4.68 1.11l-2.95-.15c-.62-.06-.72-.14-1.09-.21-.6-.16-1.15-.34-1.66-.51-1.02-.34-1.8-.64-2.92-.61-.03-1.11-.38-1.87-1.33-3.11.61-.67 1.23-1.23 1.84-1.65.31-.21.61-.4.92-.55l.46-.2c.15-.14.31-.62.46-.92-.88-11.27-4.62 11.07-6.08-7.69-1.22-13.28 3.14-4.97 4.15-9.64-1.89-6.6-5.73-18.07-2.76-30.29.71 4.04.18 7.21.47 10.98Zm-2.15-139c.54 2.69 2.21 8.06.72 10.03-2.92-3.06-1.54-5.44-.72-10.03M149.89 92.7c-1.97.86-5.01.45-8.45-.51 2.49-.22 5.31-.14 8.45.51m578.28-20.19a1.2 1.2 0 0 0-.28.13c-5.91-.99-3.81-.6.28-.13m12.26 1.08c-3.66.59-5.24.13-6.12-.54 3.13.17 5.89.11 6.74-.54.52.36.61.71-.62 1.08m-354.56 340.4-2.39-.66c5.38-.77 3.88-.09 2.39.66" class="cls-1"/><path d="M126.36 96.33c-.75-.43-.96-.91-1.14-1.4-1.04.44-1.06.94 1.14 1.4M89.12 390.02l.42.03c.23-.16.35-.31.42-.47l-.83.44Zm461.51-293.8c-2.52-.36-3.93-.83-4.87-1.32-.14.63 1.01 1.16 4.87 1.32m254.74-27.27-7.85.7c3.8-.14 5.16.42 7.07.82-.18-.6-1.68-1.47.78-1.52m45.54 38.52c.31 1.17.04 2.48.36 3.63l1.18-.32c-.09-4.97-1.06-8.45-1.54-3.3Zm-38.24-29.96c.63 2.17 5.55 1.42 11.05.99-.33 0-.64.03-.97 0 1.61-3.05-4.25-2.02-10.08-1Zm12.33.91c1.7-.11 3.43-.17 5.09-.08.64-1.22-2.06-.24-5.09.08m-69.03-6.33c2.61.55 1.62-2.79 3.1-1.91 2.9-2.78-17.38 3.41-3.1 1.91m61.18 12.56-1.98-2.68-3.08 2.18zm-43.44-1.81 8.79.71c-.13-.45.98-.72 2.35-.92-5.41-.07-11.35-.58-11.14.21m11.15-.21c2.82.04 5.5-.03 7.07-.47-1.52.03-4.8.14-7.07.47m20.28 2.87-2.6-.55-6.21-.17zm-125.9-2.81-9.59.81c-.98.92 1.64 1.48 5.21 1.1 2.29-.65 5.85-1.02 4.38-1.9Zm29.03 7.23c-2.6-.55-2.77-1.14-4.24-2.02l-.28 3.33zm-27.97.89c-.95.93-13.91 2.7-1.76 2.44.97-.92 10.58-1.72 1.76-2.44m-144.54-3.66 2.44-.05-.37-5.45zm-127.33 13.53c11.37 1.26 2.69-3.37 12.96-1.78 2.66-1.3-8.4-1.3-5.67-2.42-6.86 1.38-10.46.63-7.3 4.2Zm7.3-4.2c1.1-.22 2.26-.49 3.5-.84-1.98.35-2.92.61-3.5.84m416.39 318.58 7.31 1.1-4.72-1.81zm14.01-4.1 1.73 3.47 4.38-3.16c-1.65.16-4.85.48-6.11-.3ZM79.03 186.92l-.83-.56c-.88 1.15-.94 2.9-1.07 6.38l1.89-5.82Zm-2.19 100.9.07-1.74-3.08 3.26zm4.25 84.66c.12-3.46-.59-7.52-.47-10.99.59 7.53-3.38 11.94.47 10.99" class="cls-1"/><path d="M263.21 272.85c.03 7.6-1.36 14.73-4.22 21.43-2.81 6.66-6.65 12.48-11.57 17.48-4.88 5.05-10.58 9-17.09 11.91-6.56 2.95-13.56 4.42-21.03 4.45l-90.19.34-.67-183.63 90.19-.34c7.47-.03 14.48 1.39 21.06 4.25 6.54 2.91 12.27 6.82 17.18 11.78 4.96 5.01 8.85 10.81 11.7 17.44 2.9 6.68 4.35 13.79 4.37 21.4.01 3.41-.45 6.91-1.34 10.5-.93 3.59-2.21 7.05-3.87 10.37-1.67 3.33-3.67 6.39-6.02 9.11-2.31 2.76-4.92 5-7.75 6.8 2.93 1.61 5.6 3.83 7.93 6.57 2.37 2.79 4.4 5.84 6.09 9.16s2.99 6.76 3.86 10.39c.92 3.62 1.36 7.16 1.37 10.57Zm-108.16 18.72 54.11-.21c2.53 0 4.89-.5 7.04-1.42 2.19-.97 4.12-2.24 5.74-3.91 1.63-1.67 2.87-3.64 3.8-5.87.89-2.19 1.36-4.59 1.35-7.17 0-2.53-.49-4.94-1.4-7.16-.95-2.23-2.21-4.15-3.84-5.8a17.5 17.5 0 0 0-5.77-3.87c-2.15-.95-4.52-1.42-7.05-1.42l-54.11.21.13 36.63Zm-.27-73.39 54.11-.2c2.53 0 4.89-.46 7.04-1.42a17.6 17.6 0 0 0 5.74-3.91c1.63-1.67 2.87-3.64 3.8-5.92a19.5 19.5 0 0 0 1.35-7.22c0-2.58-.49-4.98-1.4-7.21-.95-2.18-2.2-4.15-3.84-5.8a17.6 17.6 0 0 0-5.77-3.87c-2.15-.95-4.52-1.38-7.05-1.37l-54.11.21.13 36.72Zm172.15-64.91c.01 3.24-.58 6.25-1.77 9.1-1.23 2.8-2.86 5.26-4.95 7.36-2.1 2.11-4.54 3.78-7.37 5.01-2.79 1.28-5.79 1.9-8.97 1.91s-6.19-.59-8.98-1.84c-2.84-1.21-5.29-2.87-7.32-4.96-2.07-2.09-3.71-4.53-4.97-7.32-1.21-2.84-1.82-5.85-1.84-9.09-.01-3.19.58-6.17 1.77-9.05 1.23-2.85 2.86-5.35 4.91-7.45 2.01-2.11 4.45-3.78 7.28-5.01 2.79-1.23 5.79-1.86 8.97-1.87s6.19.59 8.98 1.8c2.84 1.21 5.29 2.86 7.4 4.96 2.11 2.09 3.75 4.57 5.01 7.41 1.21 2.88 1.83 5.85 1.84 9.04Zm-5.28 174.43-34.57.13-.5-137.16 34.57-.13zm58.86 52.01-.13-35.19 19.11.19q5.025-.015 9.66-1.74c3.13-1.1 6-2.64 8.62-4.62 2.66-1.98 4.97-4.3 6.98-7.02 2.01-2.67 3.63-5.61 4.86-8.76-3.77 1.63-7.59 3.26-11.49 4.9-3.9 1.63-7.81 2.48-11.76 2.49-8.29.03-16.11-1.47-23.42-4.41s-13.73-7.2-19.25-12.65c-5.52-5.49-9.84-12.2-13-20.06-3.21-7.9-4.78-16.77-4.82-26.56l-.28-75.83 34.23-.13.28 75.84c.02 4.85.72 9.09 2.11 12.71s3.29 6.67 5.61 9.07c2.37 2.44 5.13 4.22 8.27 5.43 3.14 1.17 6.53 1.77 10.14 1.75 3.52-.01 6.87-.86 10-2.53 3.13-1.72 5.87-3.91 8.22-6.63 2.35-2.76 4.19-5.87 5.5-9.33 1.32-3.46 1.99-7 1.98-10.67l-.28-75.84 34.57-.13.44 119.85c-.05 9.66-1.87 18.72-5.44 27.21-3.57 8.45-8.44 15.85-14.69 22.17-6.2 6.36-13.49 11.37-21.76 15.08-8.32 3.7-17.2 5.57-26.65 5.61zm242.37-122.97c.04 10.27-1.73 19.81-5.3 28.65-3.58 8.84-8.44 16.51-14.65 22.96-6.16 6.49-13.44 11.59-21.76 15.34s-17.29 5.66-26.87 5.7c-9.45.04-18.39-1.81-26.73-5.49-8.39-3.68-15.67-8.73-21.96-15.17-6.25-6.4-11.22-14.03-14.85-22.85-3.64-8.81-5.48-18.34-5.52-28.61-.04-10.4 1.73-20.07 5.31-28.96 3.57-8.89 8.48-16.56 14.69-23.05 6.25-6.45 13.49-11.55 21.85-15.25 8.32-3.7 17.25-5.57 26.69-5.61 9.57-.04 18.56 1.68 26.9 5.1s15.66 8.29 21.87 14.65c6.25 6.32 11.18 13.95 14.82 22.85s5.48 18.82 5.52 29.74Zm-34.61.13c-.02-5.64-.94-10.71-2.76-15.29-1.82-4.54-4.28-8.46-7.39-11.73-3.1-3.31-6.76-5.79-10.94-7.52-4.13-1.73-8.55-2.59-13.28-2.57q-7.02.03-13.26 2.67a31.3 31.3 0 0 0-10.8 7.6c-3.03 3.29-5.43 7.23-7.17 11.78-1.74 4.6-2.63 9.67-2.61 15.31.02 5.29.94 10.23 2.72 14.72 1.78 4.54 4.2 8.46 7.26 11.77 3.1 3.31 6.72 5.92 10.85 7.82 4.17 1.91 8.6 2.85 13.28 2.83 4.72-.02 9.14-.95 13.26-2.76 4.16-1.81 7.8-4.31 10.88-7.6 3.08-3.25 5.51-7.19 7.3-11.79 1.79-4.64 2.67-9.72 2.65-15.27ZM169.82 500.91c-.57-1.13-1.26-2.17-2.07-3.11-.79-.93-1.7-1.69-2.69-2.23.96-.61 1.85-1.38 2.63-2.31.8-.92 1.48-1.97 2.05-3.1s1-2.31 1.32-3.53c.3-1.22.46-2.41.45-3.57 0-2.59-.5-5-1.49-7.27-.97-2.25-2.29-4.23-3.98-5.93-1.67-1.69-3.62-3.02-5.84-4.01-2.24-.97-4.62-1.45-7.15-1.44l-30.65.12.23 62.41 30.65-.12c2.54 0 4.91-.51 7.14-1.51 2.22-.99 4.15-2.33 5.81-4.05 1.67-1.7 2.98-3.68 3.94-5.94.97-2.28 1.44-4.7 1.43-7.29 0-1.16-.15-2.36-.47-3.59-.3-1.23-.74-2.4-1.31-3.53m-10.96 9.61c-.32.76-.74 1.43-1.29 2-.56.57-1.21 1-1.95 1.33-.73.32-1.53.48-2.39.49l-18.39.07-.05-12.45 18.39-.07c.86 0 1.66.16 2.39.48.75.31 1.4.75 1.96 1.32.56.56.98 1.21 1.3 1.97q.465 1.14.48 2.43c0 .88-.15 1.7-.46 2.44Zm-.09-24.96a6.3 6.3 0 0 1-1.29 2.01c-.56.57-1.21 1.01-1.95 1.33-.73.33-1.53.48-2.39.48l-18.39.07-.04-12.48 18.39-.07c.86 0 1.67.14 2.39.47.75.31 1.4.75 1.96 1.31s.98 1.23 1.3 1.97c.31.76.47 1.57.48 2.45 0 .86-.16 1.68-.46 2.45Zm34.49-18.17q0 1.65-.6 3.09c-.42.95-.97 1.79-1.68 2.5-.71.72-1.54 1.28-2.5 1.7-.95.43-1.97.65-3.05.65s-2.1-.2-3.05-.63c-.96-.41-1.8-.97-2.49-1.68-.7-.71-1.26-1.54-1.69-2.49-.41-.96-.62-1.99-.62-3.09 0-1.08.2-2.09.6-3.08.42-.97.97-1.82 1.67-2.53a7.6 7.6 0 0 1 2.47-1.7 7.5 7.5 0 0 1 3.05-.63c1.08 0 2.1.2 3.05.61.97.41 1.8.97 2.52 1.68s1.27 1.55 1.7 2.52c.41.98.62 1.99.62 3.07Zm-1.8 59.29-11.75.04-.17-46.62 11.75-.04zm20 17.67-.05-11.96 6.5.07c1.14 0 2.23-.2 3.28-.59 1.06-.38 2.04-.9 2.93-1.57.9-.67 1.69-1.46 2.37-2.38.68-.91 1.23-1.91 1.65-2.98-1.28.56-2.58 1.11-3.91 1.66s-2.65.84-4 .85c-2.82 0-5.48-.5-7.96-1.5s-4.67-2.45-6.54-4.3c-1.87-1.87-3.34-4.15-4.42-6.82-1.09-2.69-1.63-5.7-1.64-9.03l-.09-25.77 11.63-.04.09 25.77c0 1.65.24 3.09.71 4.32s1.12 2.27 1.91 3.08c.81.83 1.74 1.43 2.81 1.85q1.605.6 3.45.6c1.2 0 2.34-.29 3.4-.86q1.59-.87 2.79-2.25c.8-.94 1.42-2 1.87-3.17.45-1.18.68-2.38.67-3.63l-.09-25.77 11.75-.04.15 40.73c-.02 3.28-.63 6.36-1.85 9.25-1.21 2.87-2.87 5.39-4.99 7.54-2.11 2.16-4.59 3.86-7.4 5.12-2.83 1.26-5.85 1.89-9.06 1.91l-5.98-.07Zm80.5-51.9c-1.24-3.03-2.91-5.62-5.04-7.77-2.11-2.16-4.6-3.81-7.43-4.98-2.84-1.16-5.89-1.75-9.14-1.73-3.21.01-6.25.65-9.07 1.91-2.84 1.26-5.3 2.99-7.42 5.18-2.11 2.21-3.78 4.81-4.99 7.83s-1.82 6.31-1.8 9.84c.01 3.49.64 6.73 1.87 9.72 1.24 2.99 2.93 5.59 5.05 7.76 2.14 2.19 4.61 3.9 7.46 5.16 2.84 1.25 5.88 1.88 9.09 1.87 3.26-.01 6.3-.66 9.13-1.93s5.3-3.01 7.39-5.21c2.11-2.19 3.76-4.8 4.98-7.8 1.21-3.01 1.81-6.25 1.8-9.74-.01-3.71-.64-7.09-1.87-10.11Zm-10.79 15.34c-.61 1.56-1.44 2.9-2.48 4a10.9 10.9 0 0 1-3.7 2.58c-1.4.62-2.9.93-4.51.94-1.59 0-3.1-.32-4.52-.97-1.4-.65-2.63-1.53-3.69-2.66-1.04-1.12-1.86-2.46-2.47-4-.6-1.53-.92-3.21-.92-5 0-1.92.29-3.64.89-5.2.59-1.55 1.4-2.89 2.44-4.01 1.05-1.13 2.27-1.98 3.67-2.58 1.41-.6 2.91-.9 4.51-.91 1.61 0 3.11.29 4.51.88 1.42.59 2.66 1.43 3.72 2.56 1.06 1.11 1.89 2.44 2.51 3.99.62 1.56.93 3.28.94 5.19 0 1.89-.29 3.61-.9 5.19m41.84 18.38c-2.82.01-5.47-.53-7.96-1.6a20.8 20.8 0 0 1-6.54-4.46c-1.87-1.9-3.34-4.1-4.43-6.61-1.07-2.52-1.61-5.22-1.62-8.09l-.05-13.84-5.69.02-.04-11.84 5.69-.02-.07-18.63 11.63-.04.07 18.63 17.69-.07.04 11.84-17.69.07.05 13.84c0 1.25.23 2.41.69 3.51.47 1.08 1.1 2.03 1.89 2.83a8.9 8.9 0 0 0 2.84 1.93c1.08.47 2.24.71 3.46.7l8.85-.03.04 11.84-8.85.03Zm28.95-59.38q0 1.65-.6 3.09c-.42.95-.97 1.79-1.69 2.51a8.1 8.1 0 0 1-2.5 1.7c-.95.44-1.97.65-3.05.65s-2.1-.2-3.05-.63q-1.455-.615-2.49-1.68c-.7-.71-1.26-1.54-1.69-2.49-.41-.96-.62-1.99-.62-3.09 0-1.08.2-2.1.6-3.08.42-.97.97-1.82 1.67-2.53.68-.71 1.51-1.28 2.48-1.7a7.5 7.5 0 0 1 3.05-.63c1.08 0 2.1.2 3.05.61.97.41 1.8.97 2.52 1.68s1.27 1.56 1.7 2.52c.41.98.62 1.99.62 3.07m-1.8 59.28-11.75.04-.17-46.61 11.75-.05zm20.65-.08-11.74.05-.24-65.16 11.74-.04.15 41.09 17.34-22.53 13.42-.05-15.1 19.47 15.28 27.05-13.43.06-9.35-16.9-8.09 11zm78.49-1.58-12.23.05-.07-19.54c-2.7-.69-5.2-1.79-7.47-3.33a24.7 24.7 0 0 1-5.86-5.49c-1.63-2.12-2.89-4.47-3.81-7.07-.91-2.6-1.36-5.33-1.37-8.2l-.07-18.72 12.28-.05.07 18.72c0 1.71.33 3.33.97 4.84.65 1.53 1.53 2.84 2.66 3.97 1.11 1.12 2.41 2.02 3.92 2.66 1.49.65 3.08.97 4.76.96 1.69 0 3.28-.34 4.77-1 1.5-.64 2.8-1.56 3.9-2.69 1.11-1.13 1.97-2.46 2.61-3.99.63-1.52.95-3.14.94-4.85l-.07-18.72 12.23-.05.07 18.72c0 2.86-.43 5.6-1.31 8.2-.9 2.6-2.14 4.97-3.76 7.1a25.4 25.4 0 0 1-5.8 5.53 23.1 23.1 0 0 1-7.43 3.38l.07 19.54Zm65.09-46.78-4.51 5.54a32 32 0 0 0-3.5-2.9 25 25 0 0 0-3.92-2.33c-1.37-.66-2.78-1.18-4.24-1.56-1.46-.37-2.92-.55-4.41-.55-3.21.01-6.25.63-9.07 1.85a22.7 22.7 0 0 0-7.43 5.09c-2.12 2.19-3.78 4.8-4.99 7.83q-1.815 4.56-1.8 9.99c.01 3.89.64 7.35 1.88 10.41 1.24 3.04 2.91 5.6 5.05 7.7 2.12 2.09 4.61 3.68 7.46 4.77 2.84 1.09 5.88 1.64 9.08 1.63 1.49 0 2.95-.2 4.39-.6q2.145-.57 4.2-1.56c1.37-.64 2.67-1.42 3.9-2.32 1.24-.88 2.42-1.84 3.52-2.87l4.55 6.39h2.83l-.17-46.54h-2.83Zm-9.75 27.57c-.61 1.53-1.44 2.89-2.48 4.07a12.3 12.3 0 0 1-3.7 2.83c-1.4.72-2.9 1.08-4.51 1.09-1.59 0-3.09-.27-4.51-.81-1.4-.55-2.63-1.36-3.69-2.42-1.04-1.07-1.86-2.4-2.47-3.97-.6-1.57-.92-3.39-.92-5.42 0-2.02.29-3.83.88-5.41.59-1.59 1.4-2.92 2.44-4.01 1.05-1.07 2.27-1.88 3.67-2.45 1.42-.55 2.92-.83 4.51-.83 1.61 0 3.11.35 4.52 1.05 1.42.69 2.65 1.64 3.72 2.81 1.05 1.17 1.89 2.52 2.51 4.03.62 1.53.93 3.1.94 4.72 0 1.63-.3 3.21-.9 4.73Zm32.74 36.62-.04-11.96 6.5.06c1.14 0 2.23-.2 3.28-.59 1.06-.38 2.04-.9 2.93-1.57.9-.67 1.69-1.46 2.37-2.39.68-.91 1.23-1.91 1.65-2.98-1.28.56-2.58 1.11-3.91 1.67-1.32.55-2.65.84-4 .84-2.82.01-5.47-.5-7.96-1.5-2.48-1-4.67-2.45-6.54-4.3-1.87-1.87-3.34-4.15-4.42-6.82-1.09-2.68-1.63-5.7-1.64-9.03l-.09-25.77 11.63-.04.09 25.77c0 1.65.25 3.09.72 4.32s1.12 2.27 1.91 3.08c.8.83 1.74 1.43 2.81 1.85q1.605.6 3.45.6c1.19 0 2.34-.29 3.4-.86q1.59-.87 2.79-2.25c.8-.94 1.42-1.99 1.87-3.17s.68-2.38.67-3.63l-.09-25.77 11.75-.04.15 40.73c-.02 3.28-.63 6.36-1.85 9.25-1.21 2.87-2.87 5.39-4.99 7.54-2.11 2.16-4.58 3.86-7.4 5.12-2.83 1.26-5.85 1.89-9.06 1.91zm49.95-17.94-11.75.05-.17-46.62 11.75-.04zm20.57-.08-11.66.04-.17-46.61h2.82l3.87 4.5c1.88-1.74 4-3.11 6.38-4.05 2.37-.94 4.85-1.43 7.45-1.44 2.79 0 5.43.51 7.92 1.6 2.48 1.08 4.65 2.55 6.51 4.45 1.86 1.89 3.33 4.12 4.42 6.65q1.605 3.81 1.62 8.1l.1 26.63-11.66.05-.1-26.64c0-1.22-.24-2.38-.7-3.46a9.4 9.4 0 0 0-1.89-2.85c-.81-.8-1.73-1.43-2.8-1.91a8.3 8.3 0 0 0-3.37-.69c-1.23 0-2.38.25-3.46.71a9.2 9.2 0 0 0-2.83 1.93c-.78.82-1.41 1.77-1.87 2.86a8.8 8.8 0 0 0-.67 3.46l.1 26.63Zm49.31-.18-11.75.04-.24-65.16 11.75-.04zm50.24-46.72-4.51 5.54a32 32 0 0 0-3.5-2.9 25 25 0 0 0-3.92-2.33c-1.37-.66-2.78-1.18-4.24-1.56a17.4 17.4 0 0 0-4.41-.55c-3.21.01-6.25.63-9.07 1.85a22.6 22.6 0 0 0-7.42 5.09c-2.12 2.19-3.78 4.8-4.99 7.83q-1.815 4.56-1.8 9.99c.01 3.89.64 7.35 1.88 10.41 1.24 3.04 2.91 5.6 5.05 7.7 2.12 2.09 4.61 3.68 7.46 4.77 2.83 1.09 5.87 1.64 9.08 1.63 1.49 0 2.95-.2 4.39-.6q2.145-.57 4.2-1.56c1.37-.64 2.67-1.42 3.91-2.32 1.24-.88 2.41-1.84 3.52-2.87l4.55 6.38h2.83l-.17-46.54h-2.83Zm-9.75 27.56c-.61 1.53-1.43 2.89-2.48 4.06a12.7 12.7 0 0 1-3.7 2.84c-1.4.72-2.9 1.08-4.5 1.09-1.59 0-3.1-.27-4.51-.81-1.4-.55-2.63-1.36-3.69-2.42-1.04-1.07-1.86-2.4-2.46-3.97s-.92-3.38-.93-5.42c0-2.02.29-3.84.89-5.41.59-1.59 1.4-2.92 2.44-4 1.05-1.07 2.27-1.88 3.67-2.45 1.41-.55 2.92-.83 4.51-.83 1.61 0 3.11.34 4.51 1.05 1.42.69 2.65 1.64 3.72 2.81 1.06 1.17 1.89 2.52 2.51 4.03a12.58 12.58 0 0 1 .04 9.45Zm33.3 18.88-11.66.04-.17-46.61h2.82l3.87 5.5c1.88-1.74 4-3.09 6.39-4.05 2.39-.94 4.87-1.43 7.44-1.44l10.31-.04.04 11.84-10.31.04c-1.22 0-2.38.25-3.46.71a8.7 8.7 0 0 0-2.82 1.92 9.2 9.2 0 0 0-1.87 2.87c-.45 1.1-.68 2.28-.67 3.53l.09 25.68Z" class="cls-3"/><path d="M755.51 476.6h11.75v46.62h-11.75z" style="fill:#652579" transform="rotate(-.23 748.841 492.255)"/><path d="M270.34 566.5c0-1.49.27-2.88.81-4.19.56-1.3 1.31-2.44 2.26-3.42s2.07-1.75 3.35-2.33c1.27-.57 2.65-.86 4.1-.86l16.17-.06.02 7.18-16.17.06c-.49 0-.95.09-1.37.28-.43.18-.8.44-1.11.76-.32.32-.57.71-.74 1.14q-.27.66-.27 1.41c0 .5.09.96.28 1.41.18.44.43.83.75 1.15s.69.58 1.12.75c.43.19.89.27 1.38.27l7.05-.03c1.46 0 2.84.27 4.12.83 1.29.55 2.41 1.31 3.37 2.28s1.72 2.11 2.28 3.41c.55 1.31.83 2.7.84 4.19 0 1.49-.27 2.88-.81 4.19q-.825 1.95-2.25 3.42c-.95.99-2.07 1.76-3.36 2.33-1.28.58-2.65.86-4.11.87l-15.65.06-.02-7.18 15.65-.06c.5 0 .95-.1 1.37-.28.43-.19.8-.44 1.12-.76.32-.33.56-.71.74-1.15a3.83 3.83 0 0 0-.01-2.8c-.19-.43-.43-.81-.75-1.13-.33-.32-.7-.58-1.13-.75a3.3 3.3 0 0 0-1.38-.28l-7.06.03c-1.45 0-2.83-.27-4.11-.83a11.1 11.1 0 0 1-3.37-2.3c-.96-.98-1.72-2.11-2.28-3.42a10.7 10.7 0 0 1-.85-4.18Zm57.67 24.89h-1.63l-2.61-3.66c-.63.59-1.31 1.14-2.02 1.65s-1.46.96-2.24 1.33c-.79.38-1.59.68-2.41.9-.83.22-1.67.34-2.52.34-1.84 0-3.59-.31-5.22-.94-1.64-.62-3.07-1.54-4.29-2.74-1.23-1.21-2.19-2.68-2.9-4.43-.71-1.76-1.07-3.74-1.08-5.98 0-2.08.34-4 1.04-5.74s1.65-3.24 2.87-4.5c1.21-1.25 2.64-2.23 4.27-2.93s3.37-1.05 5.21-1.06c.86 0 1.7.1 2.53.31.84.22 1.65.51 2.44.9.79.38 1.54.82 2.25 1.34.71.51 1.39 1.07 2.01 1.66l2.59-3.18h1.63l.1 26.73Zm-6.81-13.61c0-.93-.18-1.84-.54-2.72-.36-.87-.84-1.64-1.44-2.32a7.1 7.1 0 0 0-2.14-1.61c-.81-.41-1.67-.61-2.59-.61-.91 0-1.78.16-2.59.48-.8.33-1.51.79-2.11 1.41a6.8 6.8 0 0 0-1.4 2.3c-.34.91-.51 1.95-.51 3.11 0 1.17.19 2.21.53 3.11.35.91.82 1.67 1.42 2.28a6 6 0 0 0 2.12 1.39c.82.31 1.68.47 2.59.47.92 0 1.79-.21 2.59-.63a7.2 7.2 0 0 0 2.13-1.63 7.9 7.9 0 0 0 1.43-2.33c.35-.87.52-1.78.52-2.72Zm37.35 13.49h-1.62l-2.62-3.66c-.63.59-1.31 1.14-2.02 1.65s-1.46.96-2.24 1.33c-.79.38-1.59.68-2.41.9-.83.22-1.67.34-2.52.34-1.84 0-3.59-.34-5.22-1.05-1.64-.7-3.06-1.68-4.29-2.94-1.22-1.25-2.19-2.74-2.9-4.46q-1.065-2.58-1.08-5.64c0-2.02.34-3.89 1.04-5.63s1.66-3.24 2.87-4.51c1.22-1.28 2.64-2.27 4.27-2.99 1.62-.72 3.37-1.09 5.21-1.1.6 0 1.2.04 1.84.15.63.09 1.24.26 1.84.48s1.17.52 1.69.88c.53.36.97.81 1.33 1.34l-.05-12.5 6.76-.03.14 37.44Zm-6.81-13.61c0-.93-.18-1.83-.54-2.71-.35-.87-.84-1.64-1.44-2.32a7.1 7.1 0 0 0-2.14-1.61 5.5 5.5 0 0 0-2.59-.6c-.91 0-1.77.17-2.59.5-.81.34-1.51.82-2.11 1.45-.59.62-1.06 1.39-1.4 2.29s-.52 1.92-.51 3.05c0 .99.18 1.92.53 2.8.35.89.82 1.66 1.42 2.33.61.66 1.31 1.19 2.12 1.56.81.38 1.68.57 2.59.57.92 0 1.79-.21 2.59-.62a7.2 7.2 0 0 0 2.13-1.63 7.6 7.6 0 0 0 1.42-2.34c.35-.87.52-1.78.52-2.72m22.37 6.99c.26.09.52.14.79.16.26.02.52.04.78.04.65 0 1.29-.1 1.89-.28.6-.19 1.18-.46 1.7-.8.54-.34 1.01-.76 1.42-1.25.42-.5.76-1.04 1.02-1.64l4.93 5.01c-.61.9-1.33 1.71-2.14 2.43s-1.69 1.33-2.63 1.84c-.94.5-1.93.89-2.97 1.15s-2.11.4-3.21.4c-1.84 0-3.59-.34-5.22-1.03q-2.46-1.05-4.29-2.91c-1.23-1.25-2.19-2.73-2.9-4.45s-1.07-3.61-1.08-5.69c0-2.12.34-4.05 1.04-5.8s1.65-3.25 2.87-4.49a13.1 13.1 0 0 1 4.27-2.89c1.63-.69 3.37-1.03 5.21-1.04 1.1 0 2.17.13 3.22.39s2.05.64 2.99 1.14c.94.49 1.82 1.11 2.65 1.83a13.2 13.2 0 0 1 2.17 2.43l-12.52 15.47Zm3.38-14.08c-.31-.12-.62-.19-.92-.22s-.62-.05-.95-.05c-.91 0-1.78.18-2.59.52-.8.34-1.51.83-2.11 1.47-.59.63-1.06 1.4-1.4 2.29-.34.9-.51 1.9-.51 3.02 0 .26.02.54.04.85s.06.64.12.96.13.63.21.94c.08.3.19.56.32.79l7.78-10.58Zm35.31-.97-4.9 5.05c-.25-.7-.58-1.33-1.01-1.88s-.91-1.03-1.45-1.41a6.22 6.22 0 0 0-3.65-1.15c-.91 0-1.77.19-2.59.58-.8.39-1.51.93-2.11 1.62-.59.69-1.06 1.52-1.4 2.47q-.51 1.425-.51 3.15c0 .93.18 1.81.53 2.62a7 7 0 0 0 1.42 2.15c.6.62 1.31 1.1 2.12 1.44a6.67 6.67 0 0 0 4.49.24c.6-.19 1.17-.46 1.71-.8.53-.35 1-.77 1.42-1.25.41-.5.75-1.05 1.01-1.64l4.93 5.01a13.4 13.4 0 0 1-4.77 4.26c-.94.5-1.93.89-2.96 1.15-1.04.26-2.11.4-3.21.4-1.84 0-3.59-.34-5.22-1.05-1.64-.7-3.06-1.67-4.29-2.9a13.9 13.9 0 0 1-2.9-4.32c-.71-1.64-1.07-3.41-1.08-5.3 0-2.05.34-3.97 1.04-5.76a14.8 14.8 0 0 1 2.87-4.67c1.22-1.34 2.63-2.38 4.27-3.16 1.63-.77 3.37-1.16 5.21-1.17 1.1 0 2.18.14 3.24.41 1.06.28 2.06.68 3.02 1.23.96.53 1.85 1.2 2.66 1.98.82.79 1.52 1.68 2.11 2.69Zm13.4 14.86c.26.09.52.14.79.16a6.8 6.8 0 0 0 2.67-.24c.6-.19 1.17-.46 1.7-.8.54-.34 1.01-.76 1.42-1.25.42-.5.76-1.04 1.02-1.64l4.93 5.01c-.62.9-1.34 1.71-2.14 2.43-.81.72-1.69 1.33-2.63 1.83s-1.92.89-2.96 1.15-2.11.4-3.21.4c-1.85 0-3.59-.33-5.22-1.03q-2.46-1.05-4.29-2.91c-1.23-1.25-2.19-2.73-2.9-4.45s-1.07-3.61-1.08-5.69c0-2.12.34-4.05 1.04-5.8s1.65-3.25 2.87-4.49a13.1 13.1 0 0 1 4.27-2.89c1.62-.69 3.37-1.03 5.21-1.04 1.1 0 2.17.13 3.22.39s2.05.64 2.99 1.14c.94.49 1.82 1.1 2.65 1.83a13.2 13.2 0 0 1 2.17 2.43l-12.52 15.47Zm3.39-14.09c-.31-.12-.62-.19-.92-.22s-.62-.05-.95-.05c-.92 0-1.78.18-2.59.52s-1.51.83-2.11 1.47c-.59.64-1.06 1.41-1.4 2.3-.34.9-.51 1.9-.51 3.02 0 .26.02.54.05.85.02.31.06.64.12.96s.13.63.21.94c.08.3.19.56.32.79zm55.52 9.66c0 1.49-.27 2.88-.82 4.19a10.9 10.9 0 0 1-2.26 3.42c-.95.99-2.07 1.76-3.34 2.33-1.28.58-2.65.86-4.11.87l-17.62.07-.13-35.86 17.61-.07c1.46 0 2.83.27 4.11.83 1.28.57 2.39 1.33 3.36 2.3.97.98 1.73 2.11 2.29 3.41.57 1.3.85 2.69.85 4.18 0 .67-.09 1.35-.26 2.05-.18.7-.43 1.38-.75 2.02-.33.65-.72 1.25-1.18 1.78-.45.54-.96.98-1.51 1.33.57.31 1.09.75 1.55 1.28.46.55.86 1.14 1.19 1.79s.58 1.32.75 2.03c.18.71.26 1.4.27 2.06Zm-21.12 3.66 10.57-.04c.5 0 .96-.1 1.37-.28.43-.19.8-.44 1.12-.76.32-.33.56-.71.74-1.15a3.83 3.83 0 0 0-.01-2.8c-.19-.43-.43-.81-.75-1.13s-.7-.58-1.13-.75c-.42-.19-.88-.28-1.38-.28l-10.57.04.03 7.15Zm-.05-14.33 10.57-.04c.5 0 .96-.09 1.37-.28.43-.18.8-.44 1.12-.76.32-.33.56-.71.74-1.16.17-.44.26-.91.26-1.41q0-.75-.27-1.41c-.19-.43-.43-.81-.75-1.13s-.7-.58-1.13-.76c-.42-.19-.88-.27-1.38-.27l-10.57.04.03 7.17Zm33.62-12.68c0 .63-.11 1.22-.35 1.78-.24.55-.56 1.03-.97 1.44s-.89.74-1.44.98c-.55.25-1.13.37-1.75.37s-1.21-.11-1.75-.36a4.4 4.4 0 0 1-1.43-.97c-.41-.41-.73-.89-.97-1.43q-.36-.825-.36-1.77c0-.62.11-1.2.35-1.77.24-.55.56-1.04.96-1.45.39-.41.87-.74 1.42-.98s1.13-.36 1.75-.37c.62 0 1.21.11 1.75.35.56.24 1.04.56 1.45.97s.73.89.98 1.45c.24.56.36 1.14.36 1.76m-1.03 34.07-6.75.03-.1-26.79 6.75-.02.1 26.79Zm11.49 10.15-.02-6.87 3.73.04c.65 0 1.28-.12 1.89-.34.61-.21 1.17-.52 1.68-.91.52-.39.97-.84 1.36-1.37.39-.52.71-1.1.95-1.71-.74.32-1.48.63-2.24.95s-1.53.48-2.3.49c-1.62 0-3.15-.28-4.58-.86a11.5 11.5 0 0 1-3.76-2.47c-1.08-1.07-1.92-2.38-2.54-3.92-.63-1.54-.94-3.27-.94-5.18l-.05-14.81 6.69-.02.05 14.81c0 .95.14 1.78.41 2.48.27.71.64 1.3 1.1 1.77.46.48 1 .82 1.61 1.06.61.23 1.28.35 1.98.34.69 0 1.34-.17 1.95-.5s1.15-.76 1.61-1.29c.46-.54.82-1.15 1.08-1.82a6 6 0 0 0 .39-2.09l-.05-14.81 6.75-.02.09 23.41c0 1.89-.37 3.65-1.06 5.31-.7 1.65-1.65 3.1-2.87 4.33a13.6 13.6 0 0 1-4.25 2.94c-1.62.72-3.36 1.09-5.21 1.1l-3.44-.04Zm47.34-24.01c0 2.01-.34 3.87-1.04 5.59-.7 1.73-1.65 3.23-2.86 4.49-1.2 1.27-2.63 2.26-4.25 2.99-1.63.73-3.38 1.11-5.25 1.11-1.84 0-3.59-.35-5.22-1.07-1.64-.72-3.06-1.7-4.29-2.96-1.22-1.25-2.19-2.74-2.9-4.46s-1.07-3.58-1.08-5.59c0-2.03.34-3.92 1.04-5.66s1.66-3.23 2.87-4.5c1.22-1.26 2.63-2.25 4.26-2.98 1.63-.72 3.37-1.09 5.22-1.09 1.87 0 3.62.32 5.25.99s3.06 1.62 4.27 2.86c1.22 1.23 2.18 2.73 2.9 4.46.71 1.74 1.07 3.67 1.08 5.81Zm-6.76.02c0-1.1-.18-2.09-.54-2.99-.36-.88-.84-1.65-1.44-2.29a6.1 6.1 0 0 0-2.14-1.47 6.4 6.4 0 0 0-2.59-.5c-.91 0-1.78.18-2.59.52-.8.34-1.51.83-2.11 1.48-.59.64-1.06 1.42-1.4 2.3-.34.9-.51 1.89-.51 2.99 0 1.03.18 2 .53 2.87.35.89.82 1.65 1.42 2.3s1.31 1.16 2.12 1.53c.82.37 1.68.56 2.59.55.92 0 1.79-.19 2.59-.54.81-.35 1.52-.84 2.12-1.48s1.08-1.41 1.43-2.3c.35-.91.52-1.9.52-2.98Zm17.28 13.57-6.75.02-.14-37.44 6.75-.02zm30.5-13.75c0 2.01-.34 3.87-1.04 5.59-.7 1.73-1.65 3.23-2.86 4.49-1.2 1.27-2.63 2.26-4.25 2.99-1.63.73-3.38 1.11-5.25 1.11-1.84 0-3.59-.35-5.22-1.07-1.64-.72-3.06-1.7-4.29-2.96-1.22-1.25-2.19-2.74-2.9-4.46s-1.07-3.58-1.08-5.59c0-2.03.34-3.92 1.04-5.66s1.66-3.23 2.87-4.5c1.22-1.26 2.63-2.25 4.26-2.98 1.63-.72 3.37-1.09 5.22-1.09 1.87 0 3.62.32 5.25.99s3.06 1.62 4.27 2.86c1.22 1.23 2.18 2.73 2.9 4.46.71 1.74 1.07 3.67 1.08 5.81Zm-6.76.03c0-1.1-.18-2.09-.54-2.99-.36-.88-.84-1.65-1.44-2.29a6.1 6.1 0 0 0-2.14-1.47 6.4 6.4 0 0 0-2.59-.5c-.91 0-1.78.18-2.59.52-.8.34-1.51.83-2.11 1.48-.59.64-1.06 1.42-1.4 2.3-.34.9-.51 1.89-.51 2.99 0 1.03.18 2 .53 2.87.35.89.82 1.65 1.42 2.3s1.31 1.16 2.12 1.53c.82.37 1.68.56 2.59.55.92 0 1.79-.19 2.59-.54.81-.35 1.52-.84 2.12-1.48s1.08-1.41 1.43-2.3c.35-.91.52-1.9.52-2.98Zm18.4-20.5c0 .63-.11 1.22-.35 1.78a4.6 4.6 0 0 1-.95 1.44c-.4.41-.87.73-1.42.98-.54.25-1.12.37-1.73.37-.64 0-1.23-.11-1.78-.36a4.63 4.63 0 0 1-2.42-2.4q-.36-.825-.36-1.77c0-.62.11-1.2.34-1.77.23-.56.56-1.04.97-1.46.41-.41.89-.73 1.43-.98a4.4 4.4 0 0 1 1.78-.36c.6 0 1.18.11 1.73.35s1.03.56 1.43.97.72.9.96 1.45c.25.56.36 1.14.37 1.77Zm-17.85 44.33h3.42c1.22-.02 2.41-.18 3.55-.51s2.2-.8 3.19-1.39 1.89-1.31 2.7-2.14c.82-.83 1.52-1.75 2.11-2.76s1.04-2.1 1.35-3.28c.32-1.16.48-2.37.49-3.62h.05l-.08-23.37-6.85.03.08 23.37c0 .9-.16 1.76-.48 2.57-.33.82-.77 1.55-1.33 2.17s-1.23 1.13-1.99 1.51c-.77.38-1.61.57-2.51.57l-3.72-.04.02 6.87Zm29.72-44.38c0 .63-.11 1.22-.34 1.78-.24.55-.56 1.03-.97 1.44s-.89.74-1.44.98c-.55.25-1.13.37-1.75.37s-1.21-.11-1.75-.36c-.56-.24-1.04-.56-1.43-.97-.4-.41-.72-.89-.97-1.43q-.36-.825-.36-1.77c0-.62.11-1.2.34-1.77.24-.56.56-1.05.96-1.46.39-.41.87-.74 1.42-.98a4.5 4.5 0 0 1 1.75-.37c.62 0 1.21.11 1.76.35s1.03.56 1.44.97.73.9.98 1.45c.24.56.36 1.14.36 1.76Zm-1.03 34.07-6.75.03-.1-26.79 6.75-.03z" class="cls-3"/><path d="M644.69 243.34c13.61-37.94 48.3-9.88 60.22 15.8 9.45-13.26 99.93-110.26 142.13-129.11 0 0-98.68 97.31-141.61 197.03l-4.45.02s-40.31-104.68-56.28-83.74Z" class="cls-2"/></svg>