<svg xmlns="http://www.w3.org/2000/svg" data-name="katman 1" viewBox="0 0 900 646.45"><path d="M38.24 346.57v9.86c0 1.8 1.12 3.35 3.37 4.64 2.25 1.3 5.84 1.94 10.79 1.94h40.28c1.35 0 2.23.38 2.65 1.14.42.75.63 1.89.63 3.41s-.21 2.59-.63 3.37c-.42.79-1.31 1.18-2.65 1.18H52.06c-16.63 0-24.94-5.23-24.94-15.68v-29.74c0-10.45 8.31-15.68 24.94-15.68h12.56c1.29 0 2.15.38 2.57 1.14q.63 1.14.63 3.42c0 2.28-.21 2.65-.63 3.41s-1.28 1.14-2.57 1.14H52.4c-4.94 0-8.54.63-10.79 1.9-2.25 1.26-3.37 2.82-3.37 4.68v10.79h54.69c1.35 0 2.23.38 2.65 1.14.42.75.63 1.89.63 3.41s-.21 2.65-.63 3.42c-.42.75-1.31 1.14-2.65 1.14H38.24Zm66.57-22.09v-9.86c0-1.63.44-2.7 1.31-3.2.87-.51 2.2-.76 4.01-.76s3.14.25 4.04.76c.9.5 1.35 1.57 1.35 3.2v9.86h17.78c1.29 0 2.12.37 2.49 1.1s.55 1.8.55 3.2-.18 2.46-.55 3.16-1.19 1.05-2.49 1.05h-17.78v35.48c0 1.63-.45 2.7-1.35 3.2s-2.25.75-4.04.75-3.13-.25-4.01-.75c-.87-.51-1.31-1.58-1.31-3.2v-35.48h-4.8q-1.935 0-2.49-1.05c-.37-.71-.55-1.76-.55-3.16s.18-2.47.55-3.2c.36-.73 1.19-1.1 2.49-1.1zm47.2 18.8 34.55-18.21q1.095-.585 2.49-.75c.93-.12 2.26-.17 4.01-.17 1.12 0 2.09.25 2.91.76.81.5 1.22 1.29 1.22 2.36 0 .79-.23 1.41-.68 1.85-.45.45-1.01.84-1.68 1.18l-33.88 17.78 34.47 17.45c1.63.84 2.44 2.02 2.44 3.54 0 1.23-.49 2.11-1.48 2.61-.98.5-2.46.75-4.42.75q-2.7 0-4.26-.42c-1.04-.28-1.78-.56-2.23-.84l-33.46-17.7v15.01c0 1.63-.45 2.7-1.35 3.2q-1.35.75-4.05.75c-2.7 0-3.13-.25-4-.75-.87-.51-1.31-1.58-1.31-3.2v-53.85c0-1.63.44-2.7 1.31-3.2.87-.51 2.2-.76 4-.76s3.15.25 4.05.76c.9.5 1.35 1.57 1.35 3.2zm50.06-27.39q0-2.7 1.56-3.96t5.1-1.26c3.54 0 4.06.42 5.1 1.26s1.56 2.17 1.56 3.96-.52 3.12-1.56 3.96-2.74 1.27-5.1 1.27-4.06-.43-5.1-1.27q-1.56-1.26-1.56-3.96m12.05 52.59c0 1.63-.45 2.7-1.35 3.2q-1.35.75-4.05.75c-2.7 0-3.13-.25-4-.75-.87-.51-1.31-1.58-1.31-3.2V328.7c0-1.63.44-2.7 1.31-3.2.87-.51 2.2-.76 4-.76s3.15.25 4.05.76c.9.5 1.35 1.57 1.35 3.2zm18.62 0c0 1.63-.45 2.7-1.35 3.2q-1.35.75-4.05.75c-2.7 0-3.13-.25-4-.75-.87-.51-1.31-1.58-1.31-3.2v-53.85c0-1.63.44-2.7 1.31-3.2.87-.51 2.2-.76 4-.76s3.15.25 4.05.76c.9.5 1.35 1.57 1.35 3.2zm6.57-52.59q0-2.7 1.56-3.96t5.1-1.26c3.54 0 4.06.42 5.1 1.26s1.56 2.17 1.56 3.96-.52 3.12-1.56 3.96-2.74 1.27-5.1 1.27-4.06-.43-5.1-1.27q-1.56-1.26-1.56-3.96m12.05 52.59c0 1.63-.45 2.7-1.35 3.2q-1.35.75-4.05.75c-2.7 0-3.13-.25-4-.75-.87-.51-1.31-1.58-1.31-3.2V328.7c0-1.63.44-2.7 1.31-3.2.87-.51 2.2-.76 4-.76s3.15.25 4.05.76c.9.5 1.35 1.57 1.35 3.2zm128.01-54.36c.9-1.07 1.9-1.82 2.99-2.28 1.1-.45 2.32-.67 3.67-.67q6.24 0 6.24 5.73v51.58c0 1.63-.48 2.7-1.43 3.2-.96.5-2.36.75-4.21.75s-3.26-.25-4.21-.75c-.96-.51-1.43-1.58-1.43-3.2v-39.95l-33.63 40.7c-.96 1.12-1.94 1.94-2.95 2.45-1.01.5-2.25.75-3.71.75q-2.445 0-4.08-.75c-1.1-.51-2.1-1.32-2.99-2.45l-33.71-40.7v39.95c0 1.63-.48 2.7-1.43 3.2-.96.5-2.36.75-4.21.75s-3.18-.25-4.13-.75c-.96-.51-1.43-1.58-1.43-3.2V316.9q0-5.73 6.15-5.73c2.75 0 4.97.98 6.66 2.95l38.77 46.77 39.1-46.77Zm43.4 57.98c-15.9 0-23.85-4.89-23.85-14.66v-4.46c0-9.78 7.95-14.66 23.85-14.66h36.07v-.09c0-1.63-1.05-2.91-3.16-3.83-2.11-.93-5.55-1.39-10.32-1.39h-7.92c-1.29 0-2.14-.35-2.53-1.05-.39-.71-.59-1.76-.59-3.16s.2-2.54.59-3.24 1.24-1.06 2.53-1.06h8.26c15.9 0 23.85 4.89 23.85 14.66v18.29c0 9.77-7.95 14.66-23.85 14.66h-22.92Zm22.59-8.51c4.72 0 8.14-.6 10.28-1.81s3.2-2.65 3.2-4.34v-10.96h-35.73c-4.72 0-8.15.59-10.28 1.77-2.13 1.19-3.2 2.65-3.2 4.38v4.81c0 1.69 1.07 3.13 3.2 4.34 2.14 1.21 5.56 1.81 10.28 1.81zm34.8-39.11v-9.86c0-1.63.44-2.7 1.31-3.2.87-.51 2.2-.76 4.01-.76s3.14.25 4.04.76c.9.5 1.35 1.57 1.35 3.2v9.86h17.78c1.29 0 2.12.37 2.49 1.1s.55 1.8.55 3.2-.18 2.46-.55 3.16-1.19 1.05-2.49 1.05h-17.78v35.48c0 1.63-.45 2.7-1.35 3.2s-2.25.75-4.04.75-3.13-.25-4.01-.75c-.87-.51-1.31-1.58-1.31-3.2v-35.48h-4.8q-1.935 0-2.49-1.05c-.37-.71-.55-1.76-.55-3.16s.18-2.47.55-3.2c.36-.73 1.19-1.1 2.49-1.1zm45 28.66v4.3c0 1.69 1.07 3.13 3.2 4.34s5.56 1.81 10.28 1.81h9.69c1.29 0 2.12.35 2.49 1.06.37.7.55 1.76.55 3.15s-.18 2.48-.55 3.2c-.36.73-1.19 1.1-2.49 1.1H538.3c-15.9 0-23.85-4.89-23.85-14.66v-18.29c0-9.77 7.95-14.66 23.85-14.66h19.47c8.43 0 14.51 1.21 18.25 3.63 3.73 2.41 5.6 6.1 5.6 11.03v9.7c0 1.63-.31 2.75-.93 3.37s-2 .93-4.13.93h-51.4Zm0-8.34h45.76v-5.65c0-1.96-1.05-3.48-3.16-4.55s-5.55-1.6-10.32-1.6h-18.79c-4.72 0-8.15.59-10.28 1.77-2.14 1.18-3.2 2.65-3.2 4.38v5.65Zm148.91 27.64q-2.7 0-4.05-.75c-.9-.51-1.35-1.58-1.35-3.2v-29.33c0-1.74-.96-3.2-2.87-4.38s-5.23-1.77-9.94-1.77h-4.72c-2.36 0-4.31.16-5.86.47s-2.79.75-3.75 1.3c-.96.56-1.63 1.23-2.02 1.98-.39.76-.59 1.56-.59 2.4v29.33c0 1.63-.45 2.7-1.35 3.2s-2.25.75-4.04.75c-1.91 0-3.27-.28-4.09-.84s-1.22-1.6-1.22-3.11v-29.33c0-.84-.2-1.64-.59-2.4-.39-.75-1.07-1.42-2.02-1.98s-2.2-.99-3.75-1.3-3.5-.47-5.86-.47h-4.72c-4.72 0-8.03.59-9.94 1.77s-2.87 2.65-2.87 4.38v29.33c0 1.63-.45 2.7-1.35 3.2q-1.35.75-4.05.75c-2.7 0-3.13-.25-4-.75-.87-.51-1.31-1.58-1.31-3.2v-29.33c0-4.94 1.9-8.62 5.69-11.03s9.11-3.63 15.97-3.63h8.34c7.08 0 12.33 1.41 15.76 4.22 3.48-2.81 8.76-4.22 15.84-4.22h8.34c6.85 0 12.18 1.21 15.97 3.63 3.79 2.41 5.69 6.1 5.69 11.03v29.33c0 1.63-.44 2.7-1.31 3.2s-2.2.75-4 .75Zm35.47-.34c-15.9 0-23.85-4.89-23.85-14.66v-4.46c0-9.78 7.95-14.66 23.85-14.66h36.07v-.09c0-1.63-1.05-2.91-3.16-3.83-2.11-.93-5.55-1.39-10.32-1.39h-7.92c-1.29 0-2.14-.35-2.53-1.05-.39-.71-.59-1.76-.59-3.16s.2-2.54.59-3.24 1.24-1.06 2.53-1.06h8.26c15.9 0 23.85 4.89 23.85 14.66v18.29c0 9.77-7.95 14.66-23.85 14.66h-22.92Zm22.59-8.51c4.72 0 8.14-.6 10.28-1.81s3.2-2.65 3.2-4.34v-10.96h-35.73c-4.72 0-8.15.59-10.28 1.77-2.13 1.19-3.2 2.65-3.2 4.38v4.81c0 1.69 1.07 3.13 3.2 4.34 2.14 1.21 5.56 1.81 10.28 1.81zm34.8-39.11v-9.86c0-1.63.44-2.7 1.31-3.2.87-.51 2.2-.76 4.01-.76s3.14.25 4.04.76c.9.5 1.35 1.57 1.35 3.2v9.86h17.78c1.29 0 2.12.37 2.49 1.1s.55 1.8.55 3.2-.18 2.46-.55 3.16-1.19 1.05-2.49 1.05h-17.78v35.48c0 1.63-.45 2.7-1.35 3.2s-2.25.75-4.04.75-3.13-.25-4.01-.75c-.87-.51-1.31-1.58-1.31-3.2v-35.48h-4.8q-1.935 0-2.49-1.05c-.37-.71-.55-1.76-.55-3.16s.18-2.47.55-3.2c.36-.73 1.19-1.1 2.49-1.1zm35.14-8.59q0-2.7 1.56-3.96t5.1-1.26c3.54 0 4.06.42 5.1 1.26s1.56 2.17 1.56 3.96-.52 3.12-1.56 3.96-2.74 1.27-5.1 1.27-4.06-.43-5.1-1.27q-1.56-1.26-1.56-3.96m12.05 52.59c0 1.63-.45 2.7-1.35 3.2q-1.35.75-4.05.75c-2.7 0-3.13-.25-4-.75-.87-.51-1.31-1.58-1.31-3.2V328.7c0-1.63.44-2.7 1.31-3.2.87-.51 2.2-.76 4-.76s3.15.25 4.05.76c.9.5 1.35 1.57 1.35 3.2zm18.63-25.2 34.55-18.21q1.095-.585 2.49-.75c.93-.12 2.26-.17 4.01-.17 1.12 0 2.09.25 2.91.76.81.5 1.22 1.29 1.22 2.36 0 .79-.23 1.41-.68 1.85-.45.45-1.01.84-1.68 1.18l-33.88 17.78 34.47 17.45c1.63.84 2.44 2.02 2.44 3.54 0 1.23-.49 2.11-1.48 2.61-.98.5-2.46.75-4.42.75q-2.7 0-4.26-.42c-1.04-.28-1.78-.56-2.23-.84l-33.46-17.7v15.01c0 1.63-.45 2.7-1.35 3.2q-1.35.75-4.05.75c-2.7 0-3.13-.25-4-.75-.87-.51-1.31-1.58-1.31-3.2v-53.85c0-1.63.44-2.7 1.31-3.2.87-.51 2.2-.76 4-.76s3.15.25 4.05.76c.9.5 1.35 1.57 1.35 3.2zm-600.09 75.26c-1.18-1.06-1.77-2.19-1.77-3.37 0-.9.48-1.69 1.43-2.36.96-.68 2.5-1.01 4.64-1.01 1.23 0 2.18.12 2.82.38.64.25 1.28.67 1.9 1.23l27.05 26.29 26.97-26.29q.84-.84 1.86-1.23c.68-.25 1.63-.38 2.87-.38 2.13 0 3.68.32 4.63.97.96.65 1.43 1.45 1.43 2.41 0 1.18-.59 2.3-1.77 3.37l-30.42 29.41v21.66c0 1.63-.48 2.7-1.43 3.2-.96.5-2.36.75-4.21.75s-3.17-.25-4.13-.75c-.96-.51-1.43-1.58-1.43-3.2v-21.66l-30.42-29.41Zm79.38 54.69c-15.9 0-23.85-4.89-23.85-14.66v-4.46c0-9.78 7.95-14.66 23.85-14.66h36.07v-.09c0-1.63-1.05-2.91-3.16-3.83-2.11-.93-5.55-1.39-10.32-1.39h-7.92c-1.29 0-2.14-.35-2.53-1.05-.39-.71-.59-1.76-.59-3.16s.2-2.54.59-3.24 1.24-1.06 2.53-1.06h8.26c15.9 0 23.85 4.89 23.85 14.66v18.29c0 9.77-7.95 14.66-23.85 14.66h-22.92Zm22.58-8.51c4.72 0 8.14-.6 10.28-1.81s3.2-2.65 3.2-4.34v-10.96h-35.73c-4.72 0-8.15.59-10.28 1.77-2.13 1.19-3.2 2.65-3.2 4.38v4.81c0 1.69 1.07 3.13 3.2 4.34 2.14 1.21 5.56 1.81 10.28 1.81zm86.89-1.18v-34.3c0-1.63.43-2.7 1.31-3.2.87-.51 2.2-.76 4-.76s3.14.25 4.05.76c.89.5 1.35 1.57 1.35 3.2v43.23c0 4.89-1.87 8.55-5.6 10.96-3.74 2.41-9.15 3.62-16.22 3.62h-11.63c-1.29 0-2.12-.36-2.49-1.1-.37-.73-.55-1.8-.55-3.2s.18-2.46.55-3.16c.37-.71 1.19-1.06 2.49-1.06h11.63c4.16 0 7.05-.52 8.68-1.56s2.44-2.54 2.44-4.51v-.42H389.5c-15.9 0-23.85-4.89-23.85-14.66v-28.15c0-1.63.43-2.7 1.31-3.2.87-.51 2.2-.76 4-.76s3.14.25 4.05.76c.9.5 1.35 1.57 1.35 3.2v28.23c0 1.74 1.07 3.19 3.2 4.34s5.56 1.73 10.28 1.73h31.69Zm23.93-37.67c-1.8 0-3.13.25-4 .76-.87.5-1.31 1.57-1.31 3.2v39.78c0 1.63.44 2.7 1.31 3.2s2.2.75 4 .75 3.15-.25 4.05-.75c.9-.51 1.35-1.58 1.35-3.2v-39.78c0-1.63-.45-2.7-1.35-3.2-.9-.51-2.25-.76-4.05-.76m18.29 47.7c-1.8 0-3.13-.25-4-.75-.87-.51-1.31-1.58-1.31-3.2v-29.33c0-9.77 7.95-14.66 23.85-14.66h18.37c15.9 0 23.85 4.89 23.85 14.66v29.33c0 1.63-.45 2.7-1.35 3.2q-1.35.75-4.05.75c-2.7 0-3.13-.25-4-.75-.87-.51-1.31-1.58-1.31-3.2v-29.33c0-1.74-1.07-3.2-3.2-4.38-2.14-1.18-5.56-1.77-10.28-1.77h-17.7c-4.72 0-8.15.59-10.28 1.77-2.14 1.18-3.2 2.65-3.2 4.38v29.33c0 1.63-.45 2.7-1.35 3.2q-1.35.75-4.05.75Zm79.04-3.96c0 1.63-.45 2.7-1.35 3.2q-1.35.75-4.05.75c-2.7 0-3.13-.25-4-.75-.87-.51-1.31-1.58-1.31-3.2v-53.85c0-1.63.44-2.7 1.31-3.2.87-.51 2.2-.76 4-.76s3.15.25 4.05.76c.9.5 1.35 1.57 1.35 3.2zm30.51 3.62c-15.9 0-23.85-4.89-23.85-14.66v-4.46c0-9.78 7.95-14.66 23.85-14.66h36.07v-.09c0-1.63-1.05-2.91-3.16-3.83-2.11-.93-5.55-1.39-10.32-1.39h-7.92c-1.29 0-2.14-.35-2.53-1.05-.39-.71-.59-1.76-.59-3.16s.2-2.54.59-3.24 1.24-1.06 2.53-1.06h8.26c15.9 0 23.85 4.89 23.85 14.66v18.29c0 9.77-7.95 14.66-23.85 14.66h-22.92Zm22.59-8.51c4.72 0 8.14-.6 10.28-1.81s3.2-2.65 3.2-4.34v-10.96h-35.73c-4.72 0-8.15.59-10.28 1.77-2.13 1.19-3.2 2.65-3.2 4.38v4.81c0 1.69 1.07 3.13 3.2 4.34 2.14 1.21 5.56 1.81 10.28 1.81zm59.41-39.11c1.29 0 2.12.37 2.49 1.1.36.73.55 1.8.55 3.2s-.19 2.46-.55 3.16c-.37.7-1.19 1.05-2.49 1.05h-6.57c-4.16 0-7.05.53-8.68 1.6s-2.44 2.56-2.44 4.46v29.41c0 1.63-.45 2.7-1.35 3.2q-1.35.75-4.05.75c-2.7 0-3.13-.25-4-.75-.87-.51-1.31-1.58-1.31-3.2v-29.41c0-4.89 1.87-8.54 5.6-10.95s9.15-3.63 16.22-3.63h6.57Zm14.15.26c-1.8 0-3.13.25-4 .76-.87.5-1.31 1.57-1.31 3.2v39.78c0 1.63.44 2.7 1.31 3.2s2.2.75 4 .75 3.15-.25 4.05-.75c.9-.51 1.35-1.58 1.35-3.2v-39.78c0-1.63-.45-2.7-1.35-3.2-.9-.51-2.25-.76-4.05-.76" style="fill:#1d1d1b"/><path d="m218.01 192.85 18.42 69.96c2.52 9.56 12.35 15.24 21.89 12.64l67.51-18.4c9.84-2.68 15.68-12.79 13.08-22.66l-18.24-69.21c-2.52-9.56-12.35-15.24-21.89-12.64l-68.24 18.6c-9.43 2.57-15.02 12.26-12.53 21.7Zm85.15 22.31-15.41 4.21 4.14 15.68c1.07 4.06-1.3 8.22-5.29 9.31-3.99 1.08-8.08-1.32-9.15-5.38l-4.14-15.68-15.41 4.21c-3.95 1.21-8.13-1.07-9.32-5.09s1.05-8.27 5.01-9.48l.44-.12 15.41-4.21-4.13-15.68c-1.4-3.95.61-8.31 4.49-9.74s8.17.62 9.58 4.57c.14.39.25.79.32 1.2l4.13 15.68 15.46-4.21c3.99-1.08 8.08 1.32 9.15 5.38s-1.3 8.22-5.29 9.31l.02.05Z" style="fill:#35a8e0"/><path d="m359.92 154.41-34.77 63.08c-4.7 8.52-1.68 19.23 6.77 24.05l61.71 35.21c8.63 4.92 19.61 1.83 24.41-6.87l34.77-63.08c4.7-8.52 1.68-19.23-6.77-24.05l-61.71-35.21c-8.63-4.92-19.61-1.83-24.41 6.87m45.89 76.04L364.9 207.1c-3.47-2.28-4.47-6.99-2.23-10.52 2.03-3.21 6.09-4.38 9.48-2.75l40.94 23.36c3.6 2.06 4.88 6.69 2.86 10.35s-6.58 4.96-10.18 2.91z" style="fill:#f29100"/><path d="m441.59 185.4 11.92 71.39c1.62 9.73 10.86 16.29 20.58 14.61l69.63-12.01c9.65-1.66 16.14-10.81 14.53-20.46l-11.9-71.42c-1.62-9.74-10.86-16.29-20.59-14.61l-69.65 12.04c-9.65 1.67-16.14 10.81-14.52 20.47Zm54 .81c4.07-.7 7.92 2.1 8.6 6.24s-2.06 8.06-6.13 8.75c-4.06.69-7.91-2.09-8.6-6.23-.72-4.13 1.99-8.06 6.05-8.79.03 0 .05 0 .08-.01v.05Zm8.66 51.97c-4.07.71-7.93-2.08-8.63-6.22-.69-4.14 2.05-8.07 6.12-8.78 4.07-.7 7.93 2.08 8.63 6.22.66 4.12-2.07 8.02-6.12 8.72v.05Zm20.06-22.48-46.28 7.98c-4.09.56-7.86-2.36-8.41-6.52-.53-3.97 2.06-7.68 5.92-8.47l46.28-7.98c4.09-.58 7.87 2.33 8.44 6.49.54 3.99-2.06 7.71-5.94 8.51Z" style="fill:#e84e1b"/><path d="m544.89 219.01 45.05 56.6c6.16 7.74 17.44 8.97 25.13 2.75l54.37-44.04c7.92-6.42 9.19-18.03 2.84-26l-44.59-55.99c-6.16-7.74-17.44-8.97-25.13-2.74l-54.95 44.52c-7.59 6.15-8.81 17.27-2.72 24.91Zm86.92-13.89-12.41 10.07 10.11 12.68c2.61 3.28 2.12 8.05-1.09 10.65s-7.93 2.05-10.54-1.24l-10.11-12.68-12.41 10.07c-3.13 2.7-7.87 2.3-10.58-.91-2.71-3.2-2.37-7.99.76-10.69.12-.1.23-.2.35-.29l12.41-10.07-10.1-12.68c-2.88-3.05-2.8-7.85.18-10.72s7.73-2.73 10.6.32c.28.3.54.63.78.97l10.1 12.68 12.45-10.09c3.21-2.6 7.93-2.05 10.54 1.24 2.61 3.28 2.12 8.05-1.09 10.65l.04.03Z" style="fill:#e20613"/></svg>