<svg xmlns="http://www.w3.org/2000/svg" id="katman_1" data-name="katman 1" viewBox="0 0 900 646.45"><defs><style>.cls-3{fill:#e87905}</style></defs><path d="M782.86 520.26 26.7 522.58l42.11-95.9 756.16-2.31zM218.68 167.04l47.52-.14-4.45 11.77 77.4-.24 13.41-32.98-72.98.22-5.36.02-83.31.25-6.21 10.46 35.59-.11zm10.34 43.28 20.78-.06-4.98 13.18 76.14-.23L334.45 190l-77.07.24-.08.19-75.93.23-6.32 11.77 57.24-.18zm191.1-65.08-12.25 32.98 70.64-.21 11.97-32.98zm-37.34 100.49-71.06.22 4.54-11.18-195.11.6-3.75 10.55 57.77-.18-4.35 11.09 61.44-.19-5.34 14.12 218.13-.67 12.99-35.75-71.11.21zm8.45-22.74 71.01-.22 12.06-33.2-70.73.22zm-168.19 58.04c-14.61.05-35.02.11-35.02.11l-1.62 9.89-30.61.09-3.3 11.35 62.51-.19-4.38 11.58 73.27-.22 4.3-11.9 70.01-.21-3.92 11.9 75.11-.23 11.94-32.86-218.28.67v.03Zm-40.01 105.81-65.23.2-3.27 10.64-41.52.13-4.25 8.94 106.86-.33 33.85-.1 41.05-.13 12.36-34.27-74.3.23zm138.9 19.13 73.85-.23 12.44-34.27-74.31.23zm16.02-45.83 74.48-.23 12.77-35.15-74.96.23zm-132.5-32.58-87.81.27-3.26 12.1 54.37-.17-2.42 9.66s17.86-.12 30.89-.1l-4.26 11.26 74.09-.23 12.68-35.15-73.48.23-.81 2.13Zm-33.19-170.45-17.04.05-3.11 11.87 17.27-.06zm-72.07 90-17.05.05-3.1 11.87 17.27-.06zm34.35 34.16-17.04.06-3.1 11.87 17.27-.06zm-4.37 69.92-3.1 11.87 17.26-.05 2.88-11.87z" style="fill:#26231e"/><path d="m478.64 340.9 53.29.37-1.79 11.45 23.51.19-3.23 9.5 76.68-.23 14.26-35.53-157.26.48zm189.48-25.34 118.92-.36c20.2-6.53 31.73-22.56 37.52-33.56l-146.49.45-9.95 33.48Zm4.15 46.48 77.88-.24-4.28-18.72-19.89-16.69-61.13.18-1.68 5.66zm72.57-112.55 11.56-.04c.15 2.58-4.85 5.71-4.85 5.71-10.98 6.93-66.81 4.51-66.81 4.51l-3.39 11.4 148.01-.45c.02-.05.06-.19.06-.19 6.8-12.4 11.65-23.69 15.21-33.84l-94.88.29-4.9 12.6Zm-164.13 32.9-.09.17-9.2-.15-18.87.06-3.51 11.1-26.38.08-6.51 10.94 53.56.89-3.79 10.4 79.86-.25 13.44-33.48zm94.91 90.64.13.43-2.07 11.78-19.35.06-1.36 10.63 18.61-.05-1.66 11.2 90.51-.28-7.77-34zm-131.56 8.12-64.79.2-3.62 12.26-39.98-.95-5.69 20.52 176.88-.54 15.82-39.44-75.99.23zm-12.36-120.8 59.83.08-5.39 10.94 77.5-.24 13.65-34.02-77.13.23-.07.18-120.44.9-4.15 11.19 58.79.62zm50.17-89.58 44.16.66-3.51 10.84 230.46-.7c-.07-.49-.13-.83-.13-.83-1.78-31.02-32.24-34.38-32.24-34.38l-252.92.78-8.56 13.59 26.39.72-3.63 9.33Zm-61.59 22.81-3.62 11.19 68.97.59-3.11 10.12 25.87.19-4.05 10.66 76.45-.23.08-11.46 81.06-.25c2.45 3.83 3.07 7.83 2.9 11.45l83.3-.26c3.99-14.21 5.15-25.36 5.32-33.02l-333.18 1.02Zm26.99-33.47-15.96.05-3.05 11.71 16.24-.05zm-51.42 134.23 2.76-11.7-15.95.05-3.05 11.7zm-.12 57.91-3.04 11.71 16.24-.05 2.76-11.7z" class="cls-3"/><path d="m718.57 236.98-3.04 11.71 16.24-.05 2.76-11.71z" class="cls-3"/><path d="m264.62 479.26-18.55.06.06 21.5-7.08.02-.14-49.19 7.08-.02.06 21.09 18.55-.06-.06-21.09 7.08-.02.14 49.19-7.09.02-.06-21.5Zm18.23-27.76 7.08-.02.14 49.19-7.08.02zm14.76 42.98 21.1-36.47-21.03.07-.02-6.61 29.69-.09v5.61l-21.84 36.64 21.96-.07.02 7.02-29.87.09-.02-6.18Zm49.33-43.17 7.49-.02 10.71 37.44h.13l10.53-37.51 7.49-.02-15.3 49.24-5.51.02zm42.59-.14 29.88-.09.02 7.02-22.8.07.04 14.08 19.46-.06.02 6.6-19.46.06.04 14.48 22.8-.07.02 7.02-29.88.09-.14-49.19Zm53.98-.16 18.27-.06c3.9-.01 7.09 1.06 9.55 3.21 2.97 2.44 4.52 5.94 4.67 10.48-.07 6.68-3.07 11.23-8.99 13.66l10.89 21.8-8.41.03-9.74-20.99-9.07.03.06 21.02-7.08.02-.14-49.19Zm7.14 21.54 10.74-.03c2.66-.05 4.65-.87 5.98-2.45 1.3-1.47 1.95-3.28 1.94-5.42-.05-2.57-.84-4.43-2.36-5.57-1.2-1.01-2.94-1.51-5.21-1.51l-11.13.04.04 14.95Zm34.22-21.67 29.88-.09.02 7.02-22.8.07.04 14.08 19.46-.06.02 6.6-19.46.06.04 14.48 22.8-.07.02 7.02-29.88.09-.14-49.19Zm37.73-.11 6.67-.02 21.28 34.91h.13l-.1-34.97 7.08-.02.14 49.19-6.71.02-21.24-34.91h-.13l.1 34.97-7.08.02zm46.4-.14 7.08-.02.07 25.34h.14l19.18-25.4 8.4-.03-14.93 19.45 16.64 29.74-8.41.03-12.81-24.02-8.2 9.1.04 14.98-7.08.02-.14-49.19Z" style="fill:#fff"/></svg>