<svg xmlns="http://www.w3.org/2000/svg" id="katman_1" data-name="katman 1" viewBox="0 0 900 646.45"><defs><style>.cls-1{fill:#fff}.cls-2{fill:#2b2422}.cls-6{fill:#f9b700}.cls-7{fill:#5e5b5c}</style></defs><path d="M453.47 595.66c-61.96 0-122.43-21.59-170.25-60.8-47.17-38.68-80.06-92.65-92.6-151.97-3.89-18.17-5.86-36.99-5.86-55.94s1.97-37.73 5.86-55.9c12.54-59.32 45.43-113.3 92.6-151.99 47.83-39.23 108.29-60.83 170.25-60.83s122.42 21.6 170.25 60.83c47.17 38.69 80.06 92.67 92.6 152 3.89 18.16 5.86 36.97 5.86 55.89s-1.97 37.77-5.86 55.95c-12.54 59.32-45.43 113.29-92.6 151.97-47.82 39.21-108.29 60.8-170.25 60.8Z" class="cls-7"/><path d="M453.47 60.25c128.26 0 235.38 90.58 260.88 211.23 3.83 17.89 5.82 36.47 5.82 55.47s-1.99 37.63-5.82 55.52c-25.51 120.65-132.62 211.18-260.88 211.18s-235.38-90.53-260.88-211.18c-3.83-17.89-5.82-36.47-5.82-55.52s1.99-37.58 5.82-55.47C218.1 150.83 325.21 60.25 453.47 60.25m0-4.04c-31.84 0-63.02 5.48-92.67 16.28-28.65 10.44-55.18 25.58-78.86 45-47.53 38.98-80.66 93.36-93.3 153.14-3.92 18.3-5.91 37.25-5.91 56.31s1.99 38.06 5.91 56.37c12.63 59.76 45.77 114.14 93.3 153.11 23.68 19.42 50.22 34.55 78.86 44.99 29.65 10.8 60.82 16.27 92.67 16.27s63.02-5.48 92.67-16.27c28.65-10.44 55.18-25.57 78.86-44.99 47.53-38.97 80.66-93.34 93.3-153.12 3.92-18.3 5.91-37.26 5.91-56.36s-1.99-38.01-5.91-56.32c-12.64-59.77-45.77-114.15-93.29-153.13-23.68-19.42-50.22-34.56-78.86-45-29.65-10.8-60.83-16.28-92.67-16.28Z" class="cls-1"/><path d="M720.17 326.95c0 19.06-1.99 37.63-5.82 55.52H192.59c-3.83-17.89-5.82-36.47-5.82-55.52s1.99-37.58 5.82-55.47h521.76c3.83 17.89 5.82 36.47 5.82 55.47" class="cls-6"/><circle cx="453.49" cy="326.96" r="196.68" style="fill:#2c1813" transform="rotate(-45 453.49 326.958)"/><path d="M453.49 530.68c-112.33 0-203.73-91.39-203.73-203.73s91.39-203.73 203.73-203.73 203.73 91.39 203.73 203.73-91.39 203.73-203.73 203.73m0-393.35c-104.56 0-189.63 85.07-189.63 189.63s85.07 189.63 189.63 189.63 189.63-85.07 189.63-189.63-85.07-189.63-189.63-189.63" class="cls-6"/><circle cx="453.49" cy="326.96" r="182.95" class="cls-1"/><path d="m685.78 308.1 6.14 12.42 13.71 2-9.92 9.67 2.34 13.65-12.27-6.44-12.26 6.44 2.34-13.65-9.92-9.67 13.71-2z" class="cls-1"/><path d="m685.78 317.21 3.18 6.43 7.09 1.03-5.13 5 1.21 7.07-6.35-3.34-6.34 3.34 1.21-7.07-5.13-5 7.09-1.03zM238.25 211.6l23.54 12.19-3.37 6.51-23.54-12.19-4.28 8.26-5.63-2.92 11.93-23.04 5.63 2.92-4.28 8.26Zm5.19-29.37c-.94.15-1.8-.07-2.59-.64-.78-.57-1.25-1.33-1.39-2.27-.15-.94.07-1.8.64-2.59.57-.78 1.33-1.25 2.27-1.39.94-.15 1.8.07 2.59.64.78.57 1.25 1.33 1.39 2.27.15.94-.07 1.8-.64 2.59-.57.78-1.33 1.25-2.27 1.39m24.55 15.32c1.95-.09 3.53-.97 4.75-2.64s1.57-3.44 1.06-5.31-1.83-3.58-3.96-5.14l-14.64-10.71 4.33-5.92 14.83 10.85c3.84 2.81 6.02 6.03 6.53 9.67.51 3.63-.45 7.1-2.87 10.42-2.42 3.31-5.45 5.28-9.09 5.9s-7.36-.47-11.18-3.26l-14.83-10.85 4.33-5.92 14.64 10.71c2.12 1.55 4.16 2.29 6.11 2.2Zm-19.19-22.64c-.94.15-1.8-.07-2.59-.64-.78-.57-1.25-1.33-1.39-2.27-.15-.94.07-1.8.64-2.59.57-.78 1.33-1.25 2.27-1.39.94-.15 1.8.07 2.59.64.78.57 1.25 1.33 1.39 2.27.15.94-.07 1.8-.64 2.59-.57.78-1.33 1.25-2.27 1.39m47.06-28.88c3.68 3.77 4.56 7.65 2.65 11.66l14.16 2.59-6.46 6.3-12.53-2.41-3.63 3.55 7.32 7.5-5.25 5.12-22.95-23.5 8.91-8.7c3.65-3.57 6.86-5.5 9.62-5.78 2.76-.29 5.48.94 8.15 3.67Zm-3.59 8.97c.08-1.22-.5-2.46-1.73-3.73-1.24-1.27-2.42-1.81-3.55-1.62s-2.54 1.1-4.22 2.74l-3.93 3.84 6.8 6.96 3.83-3.74c1.79-1.75 2.73-3.24 2.81-4.45Zm7.08-25.89 6-4.21 7.75 11.04 2.4-18.17 7.42-5.21-2.35 19.39c1.82.63 5.21 1.83 10.15 3.58s8.64 3.06 11.07 3.91l-7 4.92-15.34-5.08-.59 4.89 5.35 7.62-6 4.21-18.88-26.89Zm58.63-4.95c3.25-1.57 5.28-4.13 6.1-7.69l6.34 2.32c-1.3 4.59-3.82 8.09-7.57 10.49l-.12 2.56c2.13-.26 3.57.37 4.3 1.89.59 1.21.59 2.51.03 3.9-.57 1.39-1.61 2.45-3.14 3.18-1.52.74-3.22 1-5.1.79l-.15-4.42q1.32.36 2.04 0c.48-.23.79-.54.94-.92s.13-.77-.06-1.15c-.18-.38-.52-.64-1-.77s-.95-.09-1.42.14q-.705.33-1.32 1.11l.14-4.14c-3.97 1.15-7.79.91-11.46-.71q-5.505-2.43-8.49-8.61c-1.99-4.12-2.19-8.37-.6-12.76 1.59-4.38 4.56-7.62 8.9-9.72 4.85-2.34 9.81-2.45 14.87-.33l-1.86 6.64c-3.34-1.59-6.56-1.63-9.67-.14-2.48 1.2-4.22 3.03-5.2 5.51-.98 2.47-.81 5.09.52 7.84s3.22 4.56 5.69 5.42q3.705 1.29 7.26-.42Zm35.26-40.69 1.88 6.26-15.67 4.7 1.94 6.48 14.09-4.23 1.8 5.99-14.09 4.23 1.96 6.53 16.16-4.85 1.86 6.21-23.18 6.95-9.44-31.47 22.69-6.81Zm31.13 17.42-.39-4.54 18.49-1.6.39 4.54-18.5 1.6Zm70.64-21.27-.76 6.49-16.24-1.89-.78 6.72 14.61 1.7-.72 6.21-14.61-1.7-.79 6.77 16.76 1.95-.75 6.44-24.04-2.8 3.8-32.63 23.53 2.74Zm36.62 13.58c2.23 3.62 2.64 7.88 1.25 12.79-1.4 4.91-3.97 8.38-7.73 10.41-3.75 2.03-8.64 2.18-14.67.47l-10.8-3.08 8.99-31.6 11.16 3.18c5.64 1.6 9.57 4.21 11.8 7.83m-10.53 17.31q3.3-1.695 4.62-6.36c.88-3.1.7-5.74-.56-7.9-1.26-2.17-3.68-3.76-7.26-4.78l-3.93-1.12-5.47 19.21 4.47 1.27c3.23.92 5.93.81 8.13-.32m49.93-5.11-2.78 5.91-14.8-6.95-2.88 6.13 13.31 6.25-2.66 5.66-13.31-6.25-2.9 6.17 15.27 7.17-2.76 5.87-21.91-10.29 13.97-29.73 21.44 10.07Zm5.52 42.05-11.94-8.02 18.32-27.27 10.61 7.13c1.85 1.24 3.29 2.53 4.33 3.87s1.65 2.62 1.82 3.83c.28 2.23-.18 4.22-1.36 5.99-1.43 2.13-3.19 3.26-5.27 3.37-.71.05-1.19.06-1.43.03s-.67-.1-1.28-.21c1.45 1.5 2.28 3.17 2.5 5s-.24 3.6-1.4 5.32c-1.28 1.9-3.05 3.14-5.33 3.72-2.65.68-5.84-.24-9.58-2.76Zm-2.39-9.08 4.17 2.8c1.74 1.17 3.19 1.83 4.35 1.99s2.16-.4 3.01-1.66.94-2.4.29-3.43c-.65-1.02-1.99-2.22-4.02-3.58l-3.59-2.41-4.22 6.28Zm7.44-11.07 2.89 1.94c1.69 1.14 3.07 1.8 4.13 1.98 1.06.19 2-.32 2.81-1.53s.97-2.26.48-3.16-1.64-1.95-3.43-3.15l-2.92-1.97zm31.56 51.78-5.07-5.29 9.37-8.97 6.49-21.97 5.5 5.74-3.91 13.58 13.73-3.33 5.49 5.74-22.22 5.54-9.37 8.97Zm23.24 29.55 4-6.61-8.01-11.2-7.55 1.64-4.54-6.35 34.98-7.56 4.13 5.77-18.47 30.65-4.54-6.35Zm13.01-21.48-10.17 2.18 4.78 6.69 5.38-8.87Zm22.65 30.96-23.54 12.19-3.37-6.51 23.54-12.19-4.28-8.26 5.63-2.92 11.93 23.04-5.63 2.92-4.28-8.26Z" class="cls-1"/><path d="m300.71 514.5-6.54 7.92-2.39-1.97 6.54-7.92 3.22-22.55 2.58 2.14-2.77 19.35 18.48-6.37 2.42 2-21.54 7.41Zm27.49 19.74-15.52-10.38c-2.31 4.07-1.07 8.63 2.99 11.34 2.26 1.51 4.81 2.04 7.31 1.36l.33 2.57c-2.98.87-6.26.2-9.19-1.76-5.79-3.87-7.1-10.46-3.42-15.97 3.68-5.5 10.14-6.85 15.36-3.36s6.43 9.86 2.7 15.43c-.14.21-.37.47-.55.75Zm-14.28-12.25 13.16 8.8c2.11-3.84 1.16-8.15-2.47-10.58-3.6-2.41-7.94-1.63-10.69 1.79Zm39.97 22.77L348 556.28l-2.68-1.37 5.76-11.25c2.14-4.19 1.06-7.46-2.72-9.4-4.27-2.18-8.3-.91-10.62 3.62l-5.33 10.42-2.68-1.37 10.16-19.86 2.57 1.31-1.87 3.66c2.67-1.68 6.07-1.71 9.5.05 4.83 2.47 6.73 6.97 3.81 12.67Zm11.56-5.43 2.79 1.14-8.42 20.67-2.79-1.14zm2.02-6.78c.43-1.06 1.7-1.6 2.84-1.13 1.14.46 1.69 1.7 1.26 2.76-.46 1.14-1.7 1.69-2.88 1.21-1.14-.46-1.68-1.74-1.23-2.84Zm39.78 34.64c-1.23 4.9-5.55 6.79-12.75 4.99l-13.26-3.32 7.21-28.82 12.43 3.11c6.42 1.61 9.45 5.25 8.27 9.94-.82 3.29-3.14 5.03-6.04 5.44 3.5 1.75 5.11 4.73 4.14 8.65Zm-2.99-1.01c.94-3.75-1.41-6.08-6.47-7.35l-10.17-2.54-2.71 10.83 10.17 2.54c5.06 1.27 8.23.31 9.18-3.48m-13.4-22.86-2.61 10.46 9.18 2.3c4.61 1.15 7.73.05 8.59-3.41s-1.37-5.9-5.98-7.05zm26.05 10.58 2.98.46-3.38 22.06-2.98-.46zm.4-7.07c.17-1.13 1.29-1.95 2.5-1.76 1.22.19 2.04 1.26 1.87 2.39-.19 1.22-1.26 2.04-2.52 1.85-1.22-.19-2.03-1.3-1.85-2.47Zm21.87 9.45-.27 2.92c-.25-.02-.5-.09-.71-.11-4.65-.42-7.75 2.27-8.23 7.51l-1.03 11.32-3-.27 2.03-22.23 2.87.26-.4 4.35c1.66-2.83 4.64-4.14 8.74-3.76Zm26.62 8.55-5.72 6.48.43 7.79-3.13.17-1.64-29.65 3.13-.17.99 17.92 16.42-18.88 3.6-.2-12.09 14.14 14.62 15.46-3.73.21zm18 1.49c-1.13-6.52 2.83-11.99 9.26-13.11 6.44-1.12 11.97 2.7 13.1 9.22s-2.78 12.02-9.21 13.14c-6.44 1.12-12.02-2.74-13.15-9.26Zm19.36-3.36c-.89-5.14-4.96-7.97-9.64-7.15-4.68.81-7.6 4.85-6.7 9.99.89 5.14 5 7.96 9.68 7.15s7.56-4.84 6.66-9.98Zm29.01-9.81 3.72 12.39-2.89.87-3.63-12.11c-1.35-4.51-4.4-6.12-8.47-4.9-4.59 1.38-6.62 5.09-5.16 9.96l3.36 11.21-2.89.87-6.41-21.37 2.76-.83 1.18 3.94c.76-3.06 3.2-5.43 6.9-6.54 5.2-1.56 9.68.37 11.52 6.51Zm9.35 7.62.33-2.72c2.19.6 5.39.45 8.28-.77 3.91-1.64 4.96-3.65 4.1-5.68-2.25-5.36-13.81 4.47-17.23-3.67-1.41-3.36.43-7.08 5.67-9.28 2.66-1.12 5.87-1.59 8.08-1.14l-.28 2.74c-2.33-.5-4.69-.1-6.8.79-3.72 1.56-4.75 3.7-3.93 5.65 2.33 5.55 13.91-4.23 17.23 3.67 1.5 3.56-.66 7.18-6.02 9.43-3.4 1.43-7.15 1.71-9.44.97Zm36.69-26.21-16.41 8.91c2.53 3.94 7.13 4.96 11.42 2.63 2.39-1.3 4.05-3.31 4.61-5.83l2.42.91c-.62 3.04-2.73 5.64-5.83 7.32-6.12 3.32-12.56 1.41-15.72-4.41s-1.34-12.16 4.18-15.16 11.71-1.1 14.91 4.79c.12.22.25.54.41.84Zm-17.48 6.93 13.91-7.55c-2.42-3.66-6.68-4.83-10.52-2.74-3.8 2.06-5.14 6.27-3.39 10.29m41.52-24.53c3.91 5.55 2.66 12.03-2.54 15.7-2.91 2.05-6.29 2.56-9.48 1.28l7.16 10.16-2.46 1.74-17.59-24.97 2.36-1.66 2.54 3.61c-.22-3.48 1.38-6.58 4.4-8.7 5.2-3.66 11.73-2.65 15.61 2.86Zm-2.46 1.73c-2.98-4.23-7.96-5.03-11.81-2.32-3.88 2.74-4.77 7.67-1.79 11.9 3 4.27 7.92 5.06 11.81 2.32 3.85-2.71 4.79-7.63 1.79-11.9m22.94-6.53c-.21 1.58-1.22 3.13-2.54 4.26-3.18 2.74-6.5 2.47-9.19-.65l-8.81-10.21-3.02 2.61-1.66-1.93 3.02-2.61-3.19-3.69 2.28-1.97 3.19 3.69 5.14-4.43 1.66 1.93-5.14 4.43 8.7 10.09c1.72 1.99 3.69 2.2 5.58.56.93-.8 1.61-1.9 1.76-3.03z" class="cls-6"/><path d="M453.49 613.73c-158.13 0-286.78-128.65-286.78-286.78S295.37 40.18 453.49 40.18s286.77 128.65 286.77 286.78-128.65 286.78-286.77 286.78Zm0-559.45c-150.35 0-272.68 122.33-272.68 272.68s122.33 272.68 272.68 272.68 272.67-122.33 272.67-272.68S603.85 54.28 453.49 54.28" class="cls-2"/><circle cx="453.49" cy="326.96" r="175.15" style="fill:none" transform="rotate(-45 453.49 326.958)"/><path d="m221.16 308.1 6.13 12.42 13.71 2-9.92 9.67 2.35 13.65-12.27-6.44-12.26 6.44 2.34-13.65-9.92-9.67 13.71-2z" class="cls-1"/><path d="M432.42 236.13c-2-1.03-3.48-2.15-4.51-3.57-9.31-7.46-17.89-15.6-17.53-30.41h86.23c.33 13.35-6.6 21.27-14.79 28.17 1.1 1.96 3.17 3.14 5.83 3.14h26.79c4.02 0 6.7-2.68 6.7-6.7v-17.42c0-28.13-13.4-41.53-41.53-41.53h-52.25c-28.13 0-41.53 13.4-41.53 41.53v18.75c0 22.77 10.24 30.47 29.47 40.19l28.22 14.26c4.03-4.83 6.81-10.52 6.96-18.1-.27-13.51-8.89-21.05-18.07-28.32m-9.2 64.14c-.59-3.17-3.07-5.19-6.56-5.19h-26.79c-4.02 0-6.7 2.68-6.7 6.7v17.42c0 28.13 13.4 41.53 41.53 41.53h57.61c28.13 0 41.53-13.4 41.53-41.53v-18.75c0-22.78-9.38-32.42-29.47-40.19l-32.09-12.4c-3.38 4.5-5.64 9.79-5.77 16.6.59 29.46 40.89 30.54 40.11 62.3h-86.23c-.3-12.27 5.53-19.96 12.84-26.48Z" class="cls-7"/><path d="M420.8 324.35h65.39c-1.09-27.25-31.28-29.07-31.76-58.46v-.1c.41-25 22.21-30.05 29.5-47.79-26.75-2.97-24.39 18.94-52.78 11.85 9.31 9.87 21.18 17.45 21.48 35.94v.1c-.48 29.38-30.74 31.2-31.83 58.46" style="fill-rule:evenodd;fill:#f9b700"/><path d="M368.69 462.87v8.91H366v-8.91l-10.31-16.86h2.91l8.84 14.47 8.84-14.47H379zm29.19 2.03h-14.36l-3.09 6.89h-2.83l11.78-25.77h2.69l11.78 25.77h-2.87l-3.09-6.89Zm-.99-2.21-6.18-13.84-6.19 13.84zm18.55.18v8.91h-2.69v-8.91l-10.31-16.86h2.91l8.84 14.47 8.84-14.47h2.72zm13.99-16.86h2.72v25.77h-2.72zm32.65 0v25.77h-2.25l-16.57-20.91v20.91h-2.72v-25.77h2.25l16.6 20.91v-20.91zm8.39 0h2.73v23.42h14.43v2.36h-17.16v-25.77Zm37.92 18.89h-14.36l-3.09 6.89h-2.84l11.78-25.77h2.69l11.78 25.77h-2.87zm-1-2.21-6.19-13.84-6.19 13.84h12.37Zm28.82 9.09-5.89-8.28c-.66.07-1.32.11-2.06.11h-6.92v8.17h-2.73v-25.77h9.65c6.55 0 10.53 3.31 10.53 8.84 0 4.05-2.14 6.89-5.89 8.1l6.3 8.84h-2.98Zm-.14-16.94c0-4.12-2.73-6.48-7.88-6.48h-6.85v12.92h6.85c5.15 0 7.88-2.39 7.88-6.44m9.16-8.83h2.73v25.77h-2.73z" class="cls-2"/><path d="m354.84 427.6 5.2-11.76c4.51 2.67 10.53 4.38 15.8 4.38 4.58 0 6.22-.96 6.22-2.6 0-6.02-26.46-1.16-26.46-19.01 0-8.89 7.45-16.14 22.29-16.14 6.43 0 13.06 1.37 18.05 4.17l-4.85 11.69c-4.72-2.39-9.16-3.55-13.34-3.55-4.72 0-6.22 1.37-6.22 3.01 0 5.75 26.46.96 26.46 18.6 0 8.75-7.45 16.14-22.29 16.14-8 0-16.07-1.98-20.86-4.92Zm122.08-8.2h-4.38v12.03H456.4v-47.87h23.05c13.34 0 21.81 6.97 21.81 18.05 0 6.91-3.28 12.1-9.03 15.04l10.05 14.77h-17.23l-8.14-12.03Zm1.5-23.39h-5.88v11.21h5.88c4.44 0 6.56-2.12 6.56-5.61s-2.12-5.61-6.56-5.61Zm68.74 23.25v12.17h-39.8v-47.87h38.91v12.17h-23.05v5.61h20.24v11.62h-20.24v6.29h23.93Z" class="cls-6"/><path d="M433.14 383.57h15.87v12.28h-15.87z" class="cls-2"/><path d="M433.14 398.44v10.97c0 7.32-2.8 10.05-7.32 10.05s-7.32-2.74-7.32-10.05v-10.97h-16.14v11.45c0 14.36 8.62 22.64 23.32 22.64S449 424.25 449 409.89v-11.45h-15.87Z" class="cls-6"/><path d="M402.37 383.57h16.14v12.28h-16.14z" class="cls-2"/><path d="m593.17 157.98 19.96-23.26 5.75 4.94-19.96 23.26zm31.61-24.54c-1.52 1.77-3.96 2.08-5.95.36-1.9-1.63-1.97-4.09-.45-5.86 1.56-1.81 4.04-2.09 5.95-.45 1.95 1.67 1.97 4.09.46 5.95Z" class="cls-1"/></svg>