<svg xmlns="http://www.w3.org/2000/svg" id="katman_1" data-name="katman 1" viewBox="0 0 900 646.45"><defs><style>.cls-1{fill:#26231f}</style></defs><path d="M234.79 192.55c39.16-73.74 99.4-116.43 179.05-126.86 96.17-12.61 190.4 38.75 234.5 127.77 3.95 7.97 9.02 10.35 13.9 10.35 3.33 0 6.58-1.12 9.34-2.31l8.55-3.74-3.77-8.68C642.93 111.99 557.62 35.67 441.19 35.72c-2.49 0-5 .04-7.51.11-114.74 3.28-197.05 79.88-227.74 154.34l-3.99 9.68 9.88 2.96c10.09 3 17.76-.45 22.97-10.25Zm432.06 206.94c-.7.04-1.38-.05-2.02-.09-3.62-.25-12.26-.96-17.1 9.02-9.29 19.11-20.86 36.15-34.39 50.65-62.92 67.37-139.13 91.26-226.61 71.1-65.43-15.12-116.06-55.11-150.49-118.87-5.56-10.28-13.38-13.97-23.38-10.83l-9.75 3.03 3.96 9.6c28.42 68.81 109.22 145.63 219.47 151.64 5.04.27 10 .42 14.93.41 115.77-.05 200.62-75.22 234.35-152.48l6.21-14.24-15.2 1.05Z" class="cls-1"/><path d="M460.47 287.71c12.39-57.7 45.16-101.73 97.37-130.87 5.86-3.28 11.92-9.75 7.43-22.06l-3.61-9.85-9.17 4.79c-53.38 27.87-90.23 69.99-109.85 125.42-19.87-56.05-57.33-98.41-111.7-126.17l-9.41-4.8-3.38 10.17c-4.58 13.82 4.8 19.91 8.31 22.2l7.24 4.7c11.19 7.21 22.73 14.66 32.35 23.4 40.74 37.06 62.16 84.59 63.69 141.26.82 30.23.66 61.08.49 90.9-.07 13.78-.15 27.54-.13 41.31v16.58l25.14-.01-.11-51.39c-.12-28.58-.24-57.18.28-85.74.35-19.29 2.01-35.58 5.07-49.83Zm-323.74 12.11c0-1.37.14-2.77.44-4.19s.75-2.8 1.36-4.13a18.6 18.6 0 0 1 2.29-3.75c.92-1.17 2-2.19 3.23-3.07s2.63-1.57 4.19-2.07 3.29-.76 5.17-.76c1.95 0 3.73.26 5.33.77s3.03 1.2 4.3 2.07 2.36 1.89 3.29 3.06 1.7 2.43 2.32 3.76 1.08 2.71 1.38 4.13c.31 1.42.46 2.81.46 4.17s-.15 2.74-.46 4.15c-.3 1.41-.76 2.79-1.35 4.12-.6 1.34-1.36 2.59-2.28 3.76s-2 2.2-3.24 3.08c-1.25.88-2.64 1.57-4.19 2.08s-3.28.77-5.17.77c-2.03 0-3.86-.25-5.49-.74s-3.08-1.16-4.35-2.02c-1.27-.85-2.35-1.86-3.27-3.01a17.3 17.3 0 0 1-2.25-3.72 19.2 19.2 0 0 1-1.3-4.15c-.28-1.44-.42-2.88-.42-4.3Zm4.71-.9c0 1.22.11 2.47.33 3.77s.55 2.58.99 3.82c.45 1.25 1.01 2.43 1.69 3.56.68 1.12 1.48 2.11 2.42 2.94.93.84 1.97 1.5 3.14 2 1.16.5 2.46.74 3.9.74 1.31 0 2.51-.2 3.61-.61 1.09-.41 2.07-.97 2.95-1.68s1.64-1.55 2.29-2.52c.66-.96 1.2-2 1.64-3.11s.77-2.3.99-3.56c.23-1.26.34-2.44.34-3.55 0-1.18-.13-2.49-.38-3.93a22 22 0 0 0-1.1-4.04c-.48-1.25-1.08-2.42-1.78-3.52-.7-1.09-1.52-2.04-2.44-2.85s-1.95-1.44-3.08-1.9-2.36-.7-3.69-.7c-1.97 0-3.69.45-5.17 1.35-1.48.89-2.72 2.06-3.7 3.5s-1.72 3.06-2.21 4.85c-.49 1.8-.74 3.61-.74 5.43Zm53.26 2.72c-.53.04-1.07.05-1.61.04-.55 0-1.1-.04-1.64-.08v9.55c0 .89 0 1.66-.03 2.3s-.07 1.17-.13 1.58l3.47-.19v2.13h-10.8v-1.61c.9-.03 1.58-.2 2.04-.5.45-.3.77-.72.96-1.24.19-.53.29-1.16.29-1.88 0-.73.01-1.52.01-2.39v-21.2c0-.67 0-1.3.02-1.91.03-.6.07-1.14.13-1.64l-3.47.22v-2.18c1.81-.03 3.63-.06 5.46-.07 1.83-.02 3.67 0 5.53.02 2.31.05 4.29.27 5.94.68s3 .99 4.05 1.73c1.06.75 1.83 1.66 2.32 2.73s.74 2.28.74 3.64c0 .96-.13 1.94-.38 2.93-.25 1-.71 1.94-1.38 2.84s-1.59 1.7-2.75 2.4-2.66 1.24-4.49 1.63c.62.46 1.19 1.06 1.69 1.77.5.72 1.05 1.56 1.64 2.52l3.28 5.25c.41.65.79 1.26 1.17 1.83s.78 1.06 1.23 1.47c.45.42.95.74 1.5.98s1.21.36 1.95.36v1.61h-6.04c-.47-.41-.89-.83-1.26-1.25-.38-.41-.73-.85-1.07-1.29s-.66-.9-.97-1.37-.64-.98-.98-1.52l-3.21-5.24c-.22-.35-.45-.73-.68-1.13q-.345-.615-.75-1.23c-.27-.42-.55-.82-.84-1.21-.3-.39-.61-.74-.94-1.06Zm-3.25-1.92c.5.04.98.06 1.44.08s.98.02 1.53-.01c1.32-.05 2.51-.22 3.6-.52s2.02-.75 2.81-1.37c.79-.63 1.4-1.43 1.84-2.41.43-.98.65-2.18.65-3.6 0-2.46-.69-4.31-2.07-5.57-1.38-1.25-3.55-1.87-6.5-1.87q-1.365 0-2.04.42c-.45.28-.77.67-.96 1.18s-.29 1.13-.29 1.85c0 .71-.01 1.51-.01 2.39zm35.04-11.62c0-.67.01-1.31.03-1.91s.06-1.15.13-1.64l-3.47.22v-2.16h10.8v1.6c-.9.03-1.59.2-2.04.52-.46.31-.77.73-.96 1.26-.19.52-.29 1.15-.29 1.87s-.01 1.52-.01 2.4v20.86c0 .9 0 1.66-.02 2.3s-.07 1.17-.13 1.58l3.47-.19v2.13h-10.8v-1.6c.9-.03 1.58-.2 2.04-.5s.77-.72.96-1.25.28-1.16.29-1.88c0-.73.01-1.52.01-2.39V288.1Zm4.81-13.72c0 .4-.07.77-.21 1.13-.14.35-.34.66-.57.92-.24.26-.51.47-.82.62s-.64.22-.98.22-.67-.07-.98-.22-.58-.36-.82-.62c-.24-.27-.43-.57-.56-.92-.14-.35-.21-.73-.21-1.13s.07-.79.22-1.15c.14-.36.33-.67.57-.94s.51-.47.83-.63a2.3 2.3 0 0 1 2 0c.31.16.58.36.81.63s.41.58.54.94.19.74.19 1.15Zm18.29 40.57c.09.14.22.27.39.37.16.1.34.19.53.25s.36.11.54.12q.255.03.45.03c.47-.02.88-.13 1.24-.33.36-.21.66-.54.89-.99s.41-1.02.53-1.73c.12-.7.17-1.56.17-2.56v-25.56l-4.91.22v-2.16h12.77v1.6c-.8 0-1.44.12-1.92.37s-.86.59-1.12 1.03c-.27.44-.44.96-.53 1.55s-.13 1.23-.13 1.92v15.88c0 2.3-.14 4.26-.44 5.88s-.76 2.94-1.38 3.97c-.62 1.02-1.43 1.77-2.43 2.23-.99.46-2.18.69-3.55.69q-1.005 0-1.92-.24c-.61-.15-1.15-.39-1.61-.69-.47-.3-.84-.67-1.12-1.1a2.7 2.7 0 0 1-.41-1.46c0-.32.05-.63.13-.92.09-.3.21-.56.39-.8.17-.24.36-.42.56-.54s.39-.2.56-.24.38-.06.61-.06c.28 0 .55.06.82.19s.48.3.64.51c.17.22.29.45.36.72.08.26.12.52.12.75q0 .24-.06.54c-.04.2-.1.39-.17.56m29.09-26.87c0-.67.01-1.31.03-1.91s.06-1.15.13-1.64l-3.47.22v-2.16h10.8v1.6c-.9.03-1.59.2-2.04.52-.46.31-.77.73-.96 1.26-.19.52-.29 1.15-.29 1.87s-.01 1.52-.01 2.4v20.86c0 .89 0 1.66-.02 2.3s-.07 1.17-.13 1.58l3.47-.19v2.13h-10.8v-1.6c.9-.03 1.58-.2 2.04-.5s.77-.72.96-1.25.28-1.16.29-1.88c0-.73.01-1.52.01-2.39v-21.22Zm4.81-13.72c0 .4-.07.77-.21 1.13-.14.35-.34.66-.57.92-.24.26-.51.47-.82.62s-.64.22-.98.22-.67-.07-.98-.22-.58-.36-.82-.62c-.24-.27-.43-.57-.56-.92-.14-.36-.21-.73-.21-1.13 0-.41.07-.79.22-1.15.14-.36.33-.67.57-.94s.51-.47.83-.63a2.3 2.3 0 0 1 2 0c.31.16.58.36.81.63s.41.58.54.94.19.74.19 1.15Zm45.63 43.33h-2.32l-20.84-28.6h-.07l.17 21.02v2.48c0 .81-.04 1.6-.08 2.38l3.46-.19v2.13h-8.78v-1.61c.73 0 1.31-.13 1.73-.39.42-.27.74-.59.95-.97.21-.39.35-.8.4-1.25s.08-.86.08-1.25l.03-26.93-3.21.22v-2.16h5.71l20.44 27.93h.05l.04-22.45c0-1.37.04-2.56.14-3.55l-3.44.22v-2.16h8.83v1.61c-.9.03-1.58.2-2.02.52-.45.31-.76.73-.94 1.25-.18.53-.26 1.15-.26 1.87s.01 1.52.01 2.39l-.08 27.48Zm20.61-6.13c-.12.39-.23.73-.33 1.03-.09.3-.19.59-.28.84-.1.26-.19.51-.28.74-.09.24-.19.5-.31.77l3.75-.19v2.13h-8.97v-1.61c.72 0 1.3-.15 1.76-.44q.675-.45 1.14-1.26c.31-.54.6-1.19.85-1.94.26-.75.55-1.58.88-2.49l9.87-27.53h1.15l10.72 27.93c.14.33.29.73.43 1.21.15.47.29.95.42 1.45s.23.98.3 1.46.1.9.08 1.27l3.28-.19v2.13h-10.98v-1.61c.89-.01 1.55-.18 1.97-.5s.69-.71.8-1.18c.11-.46.11-.96 0-1.49s-.25-1.03-.42-1.49l-1.69-4.61-12.49.29c-.34 1.01-.64 1.93-.91 2.77q-.405 1.26-.75 2.49Zm5.8-17.23c-.73 2.11-1.37 3.97-1.93 5.57-.55 1.6-1.05 3.04-1.48 4.3h11.1l-3.42-9.39-2.16-6.03h-.09l-2.01 5.55Z" class="cls-1"/><path d="M392.88 311.21q0 1.35-.03 2.28c-.03.62-.07 1.14-.13 1.55l8.97-.15c1-.01 1.89-.18 2.66-.49s1.42-.8 1.93-1.45c.52-.65.9-1.5 1.17-2.53.26-1.03.4-2.27.39-3.72h1.62l-.28 10.15h-23.8v-1.61c.91-.04 1.58-.2 2.04-.5s.77-.72.96-1.25.28-1.16.29-1.88c0-.73.01-1.52.01-2.38v-21.21c-.01-.67 0-1.31.02-1.91s.07-1.15.13-1.64l-3.47.22v-2.16h10.8v1.61c-.9.03-1.59.2-2.04.52-.45.31-.77.73-.96 1.25-.19.53-.29 1.15-.29 1.87s-.01 1.52-.01 2.4v21.03Zm101.72-26.72h7.33a1272 1272 0 0 1 6.14 14.45c.97 2.31 1.94 4.61 2.9 6.89.96 2.29 1.95 4.62 2.97 7h.09c.19-.45.39-.94.6-1.49.21-.54.43-1.1.64-1.67.22-.57.43-1.13.64-1.68.21-.54.4-1.04.57-1.48 1.39-3.58 2.84-7.17 4.37-10.8 1.52-3.62 3.02-7.37 4.5-11.23h7.1v1.62c-.61-.01-1.13.07-1.57.25s-.8.48-1.07.9q-.42.615-.6 1.65c-.12.68-.14 1.54-.08 2.54l1.27 22.33c.03.58.06 1.12.07 1.64.02.52.02.99.03 1.42l3.49-.17v2.13h-10.75v-1.6c.75-.01 1.34-.15 1.78-.42q.66-.39.99-1.14c.23-.49.36-1.1.41-1.81.04-.71.04-1.53 0-2.45l-1.25-20.92c-.1.24-.2.49-.31.76-.11.26-.22.54-.33.82l-10.79 27.25h-1.43c-1.05-2.39-2.1-4.79-3.17-7.18-1.06-2.4-2.11-4.8-3.15-7.23-1.04-2.42-2.07-4.87-3.07-7.33-1.01-2.47-1.98-4.97-2.92-7.51l-.04 2.16c-.03.78-.06 1.68-.08 2.7-.02 1.01-.05 2.1-.09 3.25s-.07 2.35-.11 3.6l-.09 3.76-.09 3.73c-.03 1.22-.05 2.38-.07 3.49-.02.73-.03 1.46-.05 2.18-.01.72-.06 1.38-.14 1.99l3.61-.19v2.13h-9.16v-1.61c.75-.01 1.33-.15 1.76-.39.42-.25.74-.57.97-.99.23-.41.37-.87.43-1.41s.11-1.11.14-1.71l1.04-26.24-3.44.12v-2.11Zm47.16 28.99c-.12.39-.23.73-.33 1.03-.09.3-.19.59-.28.84-.1.26-.19.51-.28.74-.09.24-.19.5-.31.77l3.75-.19v2.13h-8.97v-1.61c.72 0 1.3-.15 1.76-.44q.675-.45 1.14-1.26c.31-.55.6-1.19.85-1.94.26-.75.55-1.58.88-2.49l9.87-27.53h1.15l10.72 27.93c.14.33.29.74.43 1.21.15.47.29.96.42 1.45s.23.98.3 1.46.1.9.08 1.27l3.28-.19v2.13h-10.98v-1.61c.89-.01 1.55-.18 1.97-.5s.69-.71.8-1.18c.11-.46.11-.96 0-1.49s-.25-1.03-.42-1.49l-1.69-4.61-12.49.29c-.34 1.01-.64 1.93-.91 2.77q-.405 1.26-.75 2.49Zm5.8-17.23c-.73 2.11-1.37 3.96-1.93 5.57-.55 1.6-1.05 3.04-1.48 4.29h11.1l-3.42-9.38-2.16-6.04h-.09l-2.01 5.56Zm44.69-1.44c-.03-1.45-.14-2.72-.33-3.79-.19-1.08-.52-1.97-.99-2.68a4.34 4.34 0 0 0-1.9-1.59c-.8-.35-1.81-.53-3.05-.53l-4.05.03-.06 26.72c0 1.75-.04 3.05-.14 3.88l3.98-.19v2.13h-11.26v-1.61c.89-.03 1.56-.21 2.02-.52q.675-.48.96-1.29c.19-.53.28-1.16.28-1.88v-2.32l.06-24.87-4.96.03c-1.02 0-1.87.18-2.57.52-.69.34-1.26.87-1.69 1.57-.44.7-.76 1.59-.95 2.65s-.29 2.32-.29 3.77h-1.78l.28-10.37h27.96l.29 10.35h-1.8Zm13.08 18.31c0 .91-.01 1.67-.03 2.29-.02.61-.07 1.13-.13 1.54l9.18-.15c1.04-.01 1.99-.15 2.83-.39.84-.25 1.56-.66 2.17-1.25.6-.58 1.06-1.36 1.39-2.32.33-.97.49-2.18.49-3.63h1.64l-.28 9.55h-24.76v-1.62c.76-.02 1.37-.14 1.81-.37.45-.23.78-.55 1-.95s.35-.87.41-1.42c.05-.55.08-1.16.08-1.83v-22.64c-.01-.67 0-1.31.02-1.91s.06-1.15.13-1.64l-3.47.22v-2.16h23.07l.24 8.58h-1.57q0-2.1-.48-3.45c-.32-.89-.76-1.59-1.31-2.1s-1.21-.86-1.96-1.04-1.56-.27-2.44-.27l-4.43.07c-.89.05-1.58.19-2.07.43s-.85.6-1.09 1.07c-.23.47-.37 1.06-.41 1.78s-.06 1.58-.06 2.59v7.9h9l-.35-4.24h2.13v10.31h-1.57c0-.95-.08-1.71-.25-2.28s-.42-1-.77-1.32c-.35-.31-.8-.51-1.34-.61-.54-.09-1.19-.14-1.96-.14h-.68c-.24 0-1.64.06-4.22.17v11.23Zm22.7-28.69h7.33c1.11 2.56 2.17 5.04 3.18 7.42s2 4.72 2.96 7.03c.97 2.31 1.94 4.61 2.9 6.89.96 2.29 1.95 4.62 2.97 7h.09c.19-.45.39-.94.6-1.49.21-.54.42-1.1.64-1.67l.64-1.68c.21-.54.4-1.04.57-1.48 1.39-3.58 2.84-7.17 4.37-10.8 1.52-3.62 3.02-7.37 4.5-11.23h7.1v1.62c-.61-.01-1.13.07-1.57.25s-.8.48-1.07.9c-.28.42-.48.96-.6 1.65-.12.68-.14 1.53-.08 2.54l1.27 22.33c.03.57.06 1.12.07 1.64.02.52.02.99.03 1.42l3.49-.17v2.13h-10.75v-1.6c.75-.01 1.34-.15 1.78-.42q.66-.39.99-1.14c.23-.49.36-1.1.41-1.81q.06-1.065 0-2.46l-1.25-20.92c-.1.24-.2.49-.31.76-.11.26-.22.54-.33.82l-10.79 27.25h-1.43c-1.05-2.39-2.1-4.79-3.17-7.18q-1.59-3.585-3.15-7.23c-1.04-2.42-2.07-4.87-3.07-7.33-1.01-2.47-1.98-4.97-2.92-7.51l-.04 2.16c-.03.78-.06 1.68-.08 2.7-.02 1.01-.05 2.1-.09 3.25s-.07 2.35-.1 3.6l-.09 3.76-.09 3.73c-.03 1.22-.05 2.38-.07 3.49-.02.73-.03 1.46-.05 2.18-.01.72-.06 1.38-.14 1.99l3.61-.19v2.13h-9.16v-1.61c.75-.01 1.33-.15 1.76-.39.42-.25.74-.58.97-.99s.37-.87.43-1.41.11-1.11.14-1.71l1.04-26.24-3.44.12v-2.11Zm47.17 28.99c-.13.38-.23.73-.33 1.03-.09.3-.18.59-.28.84-.09.26-.19.51-.28.75-.1.24-.2.5-.31.77l3.75-.19v2.13h-8.97v-1.61c.72 0 1.3-.15 1.76-.44q.675-.45 1.14-1.26c.32-.54.6-1.19.85-1.94.26-.75.55-1.58.88-2.49l9.87-27.53h1.15l10.72 27.93c.14.33.29.73.43 1.21.15.47.29.96.42 1.45s.23.98.3 1.46.1.9.08 1.27l3.28-.19v2.13h-10.98v-1.6c.89-.01 1.55-.18 1.97-.5s.69-.71.8-1.18c.11-.46.11-.96 0-1.49s-.25-1.03-.42-1.49l-1.69-4.61-12.49.29c-.34 1.01-.64 1.93-.91 2.77q-.405 1.26-.75 2.49Zm5.8-17.24c-.73 2.11-1.37 3.97-1.93 5.57-.55 1.6-1.05 3.04-1.49 4.3h11.1l-3.42-9.39-2.16-6.03h-.1l-2.01 5.55Zm44.69-1.43c-.03-1.45-.14-2.72-.33-3.8s-.52-1.97-.99-2.68a4.34 4.34 0 0 0-1.9-1.59c-.8-.35-1.81-.53-3.05-.53l-4.05.03-.06 26.72c0 1.75-.04 3.05-.14 3.88l3.98-.19v2.13h-11.26v-1.61c.89-.03 1.56-.21 2.02-.52q.675-.48.96-1.29c.19-.53.28-1.16.28-1.88v-2.32l.06-24.87-4.96.03c-1.02 0-1.87.17-2.57.52-.69.34-1.26.87-1.69 1.57-.44.7-.76 1.58-.95 2.65-.19 1.06-.29 2.32-.29 3.77h-1.78l.28-10.37h27.96l.29 10.35h-1.8Zm8.87-4.88c0-.67.01-1.31.03-1.91s.06-1.15.13-1.64l-3.47.22v-2.16h10.8v1.6c-.9.03-1.59.2-2.04.52-.46.31-.77.73-.96 1.26-.19.52-.29 1.15-.29 1.87s-.01 1.52-.01 2.4v20.86c0 .9 0 1.66-.02 2.3s-.07 1.17-.13 1.58l3.47-.19v2.13h-10.8v-1.6c.9-.03 1.58-.2 2.04-.5s.77-.72.96-1.25.28-1.15.29-1.88c0-.73.01-1.52.01-2.39v-21.22Zm4.81-13.72c0 .4-.08.77-.22 1.13-.14.35-.34.66-.57.93-.24.26-.51.47-.82.62s-.64.22-.98.22-.67-.07-.98-.22a2.6 2.6 0 0 1-.82-.62c-.24-.27-.43-.57-.56-.93-.14-.35-.21-.73-.21-1.13s.07-.8.22-1.15c.14-.36.33-.67.57-.94s.51-.47.83-.63c.32-.15.65-.23 1-.23.36 0 .69.08 1 .23.31.16.58.36.81.63s.41.58.54.94.19.74.2 1.16Zm11.26 13.71c0-.67.01-1.31.03-1.91.03-.6.07-1.15.13-1.64l-3.47.22v-2.16h10.8v1.61c-.91.03-1.59.2-2.04.52-.46.31-.77.73-.96 1.26s-.28 1.15-.29 1.87c0 .72-.01 1.52-.01 2.4v8.06h3.59l5.99-9.69a26 26 0 0 1 1.51-2.13c.29-.37.6-.72.92-1.07.33-.34.66-.65.98-.92l-2.93.09v-1.99h10.31v1.61c-1.02.08-1.94.22-2.77.42s-1.62.54-2.37 1.01-1.5 1.12-2.24 1.94-1.52 1.91-2.33 3.25l-4.68 7.67c.45.29.86.6 1.22.92.36.33.69.67 1 1.02.32.35.61.71.89 1.09q.42.57.87 1.14l5.37 7.31q1.365 1.875 2.34 2.94c.66.71 1.25 1.25 1.78 1.61s1.02.58 1.48.67c.45.09.93.13 1.45.13v1.61h-5.85c-.24 0-.53-.13-.89-.39s-.75-.62-1.18-1.06c-.43-.45-.88-.96-1.36-1.55-.48-.58-.95-1.19-1.42-1.81l-5.74-7.93c-.61-.82-1.22-1.59-1.83-2.33-.61-.73-1.2-1.28-1.78-1.65l-2.34.05v10.86c0 .9 0 1.67-.03 2.31-.02.64-.07 1.17-.13 1.58l3.47-.19v2.13h-10.8v-1.6c.9-.03 1.58-.2 2.04-.5s.77-.72.96-1.25.29-1.15.29-1.88.01-1.52.01-2.39V289.9ZM338.08 600.75l-8.33-13.5q-1.245-1.965-1.83-3.3c-.39-.89-.65-1.64-.78-2.27l-2.98.12v-2.18h12.38v1.63c-1.11 0-1.95.14-2.53.4-.57.26-.95.63-1.11 1.1s-.14 1.04.07 1.69.56 1.37 1.04 2.16c.6.97 1.16 1.89 1.69 2.77q.795 1.305 1.59 2.58c.53.85 1.09 1.71 1.66 2.59s1.2 1.81 1.89 2.78h.1c3.57-6.97 5.71-11.09 6.39-12.37.69-1.28 1.14-2.09 1.36-2.42.22-.34.44-.63.68-.89l-3.8.17v-2.18h9.8v1.62c-.79.05-1.51.21-2.13.48s-1.21.67-1.76 1.19-1.08 1.17-1.58 1.95q-.765 1.155-7.65 14.43c-.01 1.58-.03 3.46-.04 5.62 0 2.17 0 3.25.01 3.25 0 1.76-.04 3.05-.14 3.88l3.98-.19v2.13h-11.28v-1.61c.89-.03 1.56-.21 2.02-.53q.675-.48.96-1.29c.19-.53.28-1.16.28-1.88v-2.33l.02-5.61Zm21.32 7.9c-.13.39-.23.73-.33 1.03s-.19.59-.28.84c-.1.26-.19.51-.28.75s-.19.5-.31.77l3.75-.19v2.13h-8.98v-1.61c.72 0 1.3-.15 1.76-.44.45-.3.83-.72 1.15-1.26.31-.55.6-1.19.85-1.94.26-.75.55-1.58.88-2.5l9.88-27.56h1.15l10.73 27.96c.14.33.29.74.43 1.21.15.47.29.96.42 1.45s.23.98.3 1.46.1.9.08 1.27l3.28-.19v2.13h-11v-1.6c.9-.01 1.55-.18 1.97-.5s.69-.71.8-1.18c.11-.46.11-.96 0-1.49s-.25-1.03-.42-1.49l-1.69-4.61-12.5.29c-.34 1.01-.64 1.93-.91 2.78q-.405 1.26-.75 2.49Zm5.8-17.25c-.73 2.11-1.38 3.97-1.93 5.58-.55 1.6-1.05 3.04-1.49 4.3h11.11l-3.43-9.39-2.16-6.04h-.09l-2.01 5.56Zm30.09 9.32-8.33-13.5q-1.245-1.965-1.83-3.3c-.39-.89-.65-1.64-.78-2.27l-2.98.12v-2.18h12.38v1.63c-1.11 0-1.95.13-2.53.4-.57.26-.95.63-1.11 1.1s-.14 1.04.07 1.69c.21.66.56 1.37 1.04 2.16.6.97 1.16 1.89 1.69 2.77q.795 1.305 1.59 2.58c.53.85 1.09 1.71 1.66 2.59s1.2 1.81 1.89 2.78h.1c3.57-6.97 5.71-11.09 6.39-12.37.69-1.28 1.14-2.08 1.36-2.42s.44-.63.68-.89l-3.8.17v-2.18h9.8v1.62c-.79.05-1.51.21-2.13.48s-1.21.67-1.76 1.18c-.55.52-1.08 1.17-1.58 1.95-.51.77-3.06 5.59-7.65 14.43-.01 1.58-.03 3.46-.04 5.62 0 2.17 0 3.25.01 3.25 0 1.75-.04 3.05-.14 3.88l3.99-.19v2.13H392v-1.6c.89-.03 1.56-.21 2.02-.53q.675-.48.96-1.29c.19-.53.28-1.16.28-1.88v-2.33l.02-5.61Zm22.76-15.64c0-.67.01-1.31.03-1.91s.07-1.15.13-1.65l-3.47.22v-2.16h10.81v1.61c-.9.03-1.59.2-2.04.52-.46.31-.77.73-.96 1.26-.19.52-.29 1.15-.29 1.87s-.01 1.52-.01 2.4v20.88c0 .9 0 1.66-.02 2.3s-.07 1.17-.13 1.58l3.47-.19v2.13h-10.81v-1.61q1.35-.045 2.04-.51c.46-.3.77-.72.96-1.25s.28-1.16.29-1.88c0-.73.01-1.52.01-2.39v-21.24Zm41.37 29.64h-2.32l-20.86-28.63h-.07l.17 21.04v2.48c0 .81-.04 1.6-.08 2.39l3.47-.19v2.13h-8.79v-1.61c.73 0 1.31-.13 1.73-.39.42-.27.74-.59.95-.97.21-.39.35-.8.4-1.25s.08-.86.08-1.25l.03-26.96-3.21.22v-2.16h5.72l20.46 27.96h.05l.04-22.48c0-1.37.04-2.56.14-3.55l-3.45.22v-2.16h8.84v1.61c-.91.03-1.58.2-2.03.52-.45.31-.76.73-.94 1.26s-.27 1.15-.26 1.87c0 .72.01 1.52.01 2.4l-.08 27.51Zm15.52-6.46q0 1.35-.03 2.28c-.02.62-.07 1.14-.13 1.56l8.98-.15c1-.01 1.89-.18 2.66-.49s1.42-.8 1.93-1.45c.52-.65.91-1.5 1.18-2.53.26-1.03.4-2.27.39-3.73h1.62l-.28 10.16h-23.82v-1.62c.91-.03 1.58-.2 2.04-.5s.77-.72.96-1.25.29-1.16.29-1.88c0-.73.01-1.52.01-2.39v-21.23c0-.67 0-1.31.02-1.91.03-.6.07-1.15.13-1.64l-3.47.22v-2.16h10.81v1.61c-.91.03-1.59.2-2.04.52-.46.31-.77.73-.96 1.26s-.29 1.15-.29 1.87-.01 1.52-.01 2.4v21.05Zm24.57.32c-.12.39-.23.73-.33 1.03s-.19.59-.28.84c-.1.26-.19.51-.28.74-.1.24-.2.5-.31.77l3.75-.19v2.13h-8.98v-1.61c.72 0 1.3-.15 1.76-.44.45-.3.83-.72 1.15-1.26.31-.55.6-1.19.85-1.94.26-.75.55-1.58.88-2.5l9.88-27.56h1.15l10.73 27.96c.14.33.29.74.43 1.21.15.47.29.96.42 1.45s.23.98.3 1.46.1.9.08 1.27l3.28-.19v2.13h-11v-1.6c.89-.01 1.55-.18 1.97-.5s.69-.71.8-1.18c.11-.46.11-.96 0-1.49s-.25-1.03-.42-1.49l-1.69-4.61-12.5.29c-.34 1.01-.64 1.93-.91 2.78q-.405 1.26-.75 2.49Zm5.81-17.25c-.73 2.11-1.38 3.97-1.93 5.58-.55 1.6-1.05 3.04-1.49 4.3h11.11l-3.43-9.39-2.16-6.04h-.09l-2.01 5.56Zm31.51 7.23a22 22 0 0 1-3.25-.04v9.56c0 .9 0 1.66-.03 2.3-.02.64-.07 1.17-.13 1.58l3.47-.19v2.13h-10.81v-1.6c.91-.03 1.58-.2 2.04-.5s.77-.72.96-1.25.29-1.16.29-1.88c0-.73.01-1.53.01-2.39v-21.22c0-.67 0-1.31.02-1.91.03-.6.07-1.15.13-1.64l-3.47.22v-2.18c1.81-.03 3.63-.06 5.46-.08s3.68 0 5.53.02c2.31.04 4.3.27 5.94.68 1.65.41 3 .99 4.06 1.74s1.83 1.66 2.32 2.73.74 2.28.74 3.64c0 .96-.13 1.94-.38 2.94s-.71 1.95-1.38 2.84q-1.005 1.35-2.76 2.4c-1.16.7-2.66 1.25-4.49 1.63.62.46 1.19 1.06 1.69 1.77q.75 1.08 1.65 2.52l3.28 5.26q.615.975 1.17 1.83c.38.57.79 1.06 1.23 1.48.45.42.95.74 1.5.98s1.21.36 1.96.36v1.61h-6.05c-.47-.41-.89-.82-1.26-1.24-.38-.42-.73-.85-1.07-1.3-.34-.44-.66-.9-.97-1.37-.32-.47-.64-.98-.99-1.52l-3.21-5.25c-.22-.35-.45-.73-.68-1.14q-.345-.615-.75-1.23c-.27-.42-.55-.82-.84-1.21-.3-.39-.61-.75-.94-1.07Zm-3.26-1.92c.5.03.98.06 1.44.08s.98.02 1.53-.01c1.32-.05 2.52-.22 3.6-.52 1.09-.3 2.02-.75 2.81-1.38s1.4-1.43 1.84-2.41c.43-.98.65-2.18.65-3.61 0-2.46-.69-4.32-2.08-5.57-1.38-1.25-3.55-1.88-6.51-1.88q-1.365 0-2.04.42c-.46.28-.77.67-.96 1.18s-.29 1.13-.29 1.85c0 .71-.01 1.51-.01 2.39v9.44Zm25.96-11.63c0-.67.01-1.31.03-1.91.03-.6.07-1.15.13-1.65l-3.47.22v-2.16h10.81v1.61c-.9.03-1.59.2-2.04.52-.46.31-.77.73-.96 1.26-.19.52-.28 1.15-.29 1.87 0 .72-.01 1.52-.01 2.4v20.88c.01.9 0 1.66-.02 2.31-.02.64-.07 1.17-.13 1.58l3.47-.19v2.13h-10.81v-1.61c.9-.03 1.58-.2 2.04-.5s.77-.72.96-1.25.28-1.16.29-1.88c0-.73.01-1.52.01-2.39v-21.24Z" class="cls-1"/></svg>