<svg xmlns="http://www.w3.org/2000/svg" id="katman_1" data-name="katman 1" viewBox="0 0 900 646.45"><defs><clipPath id="clippath"><path d="M344.45 333.68c-2.43 8.34-4.42 14.52-7.59 18.95-34.79-29.49-56.9-73.49-56.9-122.67 0-88.79 71.98-160.77 160.77-160.77 44.26 0 84.34 17.89 113.41 46.83-.47.25-.9.52-1.38.76-.84.42-1.68.83-2.53 1.22-1.65.77-3.42 1.52-5.25 2.23-3.32 1.3-7.02 2.54-11.3 3.81-2.13.63-4.5 1.29-7.45 2.08l-4.78 1.26c-3.18.83-6.48 1.64-10.09 2.49-3.41.8-6.83 1.58-10.25 2.33-4.66 1.03-9.33 2.03-14 3.02l-6.9 1.48c-1.63.35-3.25.72-4.87 1.1-3.31.78-6.56 1.63-9.67 2.52-4.96 1.42-9.77 3.01-14.29 4.73-8.2 3.11-15.92 6.82-22.92 11-7.63 4.56-14.73 9.88-21.11 15.81-3.11 2.89-6.05 5.94-8.72 9.05-1.81 2.11-3.55 4.3-5.16 6.51-.81 1.12-1.6 2.25-2.37 3.4-1.53 2.3-2.98 4.68-4.3 7.08a97.6 97.6 0 0 0-9.16 23.33c-.69 2.74-1.28 5.57-1.75 8.41a14.79 14.79 0 0 0 8.62 15.94c.43.19.89.28 1.33.43-3.04 2.64-5.97 5.38-8.62 8.28-2.37 2.6-4.62 5.34-6.69 8.16a100 100 0 0 0-5.8 8.88c-1.77 3.06-3.42 6.28-4.88 9.56-2.19 4.91-4.05 10.14-5.53 15.54-1.47 5.35-2.86 10.76-4.21 15.99-1.25 4.86-2.54 9.88-3.87 14.74l-.16.59c-.54 1.97-1.07 3.94-1.65 5.9Zm236.08-183.07c-4.67 10.02-11.34 19.04-19.89 26.8-.89.81-1.79 1.6-2.72 2.38-2.75 2.31-5.69 4.52-8.74 6.58-5.08 3.41-10.6 6.54-16.43 9.31 5.73 2.04 9.87 7.45 9.87 13.88 0 2.14-.46 4.18-1.28 6.01-1.12 2.77-2.35 5.48-3.65 8.07a105 105 0 0 1-9.5 15.5c-1.74 2.36-3.63 4.7-5.6 6.96-16.74 19.17-38.11 28.47-54.85 34.43-7.31 2.6-13.01 4.48-18.49 6.08-3.37.99-6.44 2.23-9.13 3.71-4.52 2.48-8.07 5.62-10.86 9.61-1.23 1.75-2.32 3.7-3.26 5.8-.65 1.46-1.24 3.04-1.75 4.68q-1.515 4.875-3 9.75l-1.76 5.76c-1.44 4.68-3.17 10.22-5.07 15.87-2.14 6.37-4.65 11.86-7.67 16.78-4.57 7.45-10.4 13.59-17.32 18.24-.86.58-1.82 1.17-2.92 1.8-.25.14-.51.29-.77.43l-.13.07c-.65.36-1.33.71-2.11 1.1 17.78 6.78 37.06 10.52 57.23 10.52 88.79 0 160.77-71.98 160.77-160.77 0-28.87-7.65-55.94-20.97-79.36Z" style="fill:none"/></clipPath><style>.cls-3{fill:#154072}.cls-4{fill:#b9b6b6}</style></defs><path d="M567.84 142.83c-3.99 9.15-9.81 16.96-17.14 23.62 7.34-6.66 13.15-14.47 17.14-23.62" style="fill:#a19e9b"/><path d="M483.84 219.68a688 688 0 0 0-13.52 3.55c-4.49 1.23-8.96 2.51-13.4 3.88-2.96.91-5.91 1.86-8.84 2.86s-5.85 2.04-8.74 3.13c-2.9 1.09-5.77 2.24-8.63 3.45-5.71 2.42-11.34 5.08-16.86 8.06-5.73 3.09-10.99 6.54-15.77 10.38a88.5 88.5 0 0 0-9.92 9.3 84 84 0 0 0-5.69 6.94 82 82 0 0 0-4.93 7.55 84 84 0 0 0-4.16 8.17c-1.89 4.24-3.48 8.72-4.78 13.44-2.8 10.21-5.28 20.5-8.07 30.71-.61 2.25-1.22 4.5-1.88 6.73-4.17 14.27-8.42 28.69-24.74 35.15.78.22 1.61.41 2.47.57.29.05.61.09.91.14.58.09 1.15.19 1.76.26.37.04.77.06 1.15.1.56.05 1.12.1 1.7.13.42.02.85.02 1.27.03.5.01.98.04 1.49.04h.25c.23 0 .47 0 .7-.01.72-.01 1.45-.03 2.18-.07.31-.01.61-.03.92-.05.74-.05 1.49-.1 2.24-.17l.72-.06c.98-.1 1.97-.22 2.96-.36.21-.03.42-.06.62-.1.79-.12 1.59-.24 2.38-.39.31-.06.63-.11.94-.17.75-.14 1.49-.29 2.23-.45.26-.06.52-.11.78-.17.98-.22 1.96-.46 2.92-.71.16-.04.31-.09.47-.13a84 84 0 0 0 2.4-.69c.29-.09.58-.18.86-.27.69-.22 1.36-.44 2.03-.68a57 57 0 0 0 3.38-1.28c.08-.03.16-.07.25-.11.76-.32 1.49-.65 2.21-.99.24-.12.48-.23.71-.35a51 51 0 0 0 2.31-1.22c.71-.41 1.4-.83 2.04-1.26 5.54-3.72 9.71-8.39 12.97-13.7 2.6-4.24 4.61-8.88 6.25-13.75 1.73-5.14 3.35-10.32 4.95-15.51s3.17-10.38 4.78-15.57c.69-2.2 1.47-4.29 2.36-6.29 1.33-2.99 2.88-5.74 4.65-8.27 4.13-5.9 9.44-10.57 15.86-14.09 3.67-2.01 7.7-3.65 12.08-4.94 5.95-1.74 11.84-3.74 17.68-5.82 18.4-6.55 35.54-15.19 48.67-30.23 1.7-1.95 3.32-3.95 4.85-6.02 3.06-4.14 5.78-8.55 8.17-13.33 1.2-2.39 2.31-4.88 3.35-7.47-2.31.38-3.82.54-5.28.88-12.91 3.05-25.85 5.99-38.71 9.25Zm81.48-92.96a87 87 0 0 1-5.87 3.26c-.99.5-1.99.99-2.99 1.45-2.01.93-4.04 1.79-6.09 2.59-4.1 1.6-8.28 2.97-12.49 4.22-2.6.77-5.21 1.49-7.83 2.18-1.63.43-3.25.86-4.88 1.28-3.46.9-6.93 1.75-10.41 2.57s-6.97 1.61-10.46 2.38c-6.98 1.54-13.99 3.01-20.98 4.52-1.53.33-3.05.67-4.57 1.03-3.03.72-6.04 1.5-9 2.35-4.45 1.28-8.83 2.71-13.11 4.34-7.14 2.71-14.02 5.95-20.58 9.87s-12.79 8.52-18.63 13.95a98 98 0 0 0-7.57 7.86 89 89 0 0 0-4.42 5.58c-.69.95-1.37 1.92-2.02 2.9-1.3 1.96-2.52 3.96-3.65 6.01-2.26 4.1-4.17 8.4-5.72 12.9a86 86 0 0 0-2.05 6.9c-.59 2.35-1.09 4.75-1.5 7.21 9.53-12.08 22.72-18.26 36.67-22.29 18.17-5.24 36.66-9.43 55.14-13.52 5.16-1.14 10.3-2.35 15.37-3.71 6.34-1.7 12.59-3.63 18.69-5.96 3.2-1.22 6.36-2.55 9.47-4.01 5.18-2.43 10.23-5.23 15.09-8.51 2.63-1.77 5.11-3.64 7.46-5.62.78-.66 1.55-1.33 2.3-2.01 7.34-6.66 13.15-14.47 17.14-23.62 1.3-2.98 2.4-6.09 3.31-9.36 1.15-4.16 1.76-8.47 2.62-12.71a77 77 0 0 1-8.45 5.95Z" class="cls-3"/><path d="M312.94 366.55c-16.93-16.51-30.64-36.22-40.12-57.75-9.51-21.52-14.75-44.83-15.5-68.19-.79-23.36 3.02-46.82 11.03-68.66 8-21.85 20.26-42.03 35.78-59.17 15.51-17.15 34.27-31.26 54.95-41.32 20.67-10.08 43.25-16.06 66.06-17.6 22.81-1.59 45.85 1.26 67.48 8.25 21.64 7.01 41.77 18.31 59.12 32.79-17.78-13.95-38.13-24.56-59.72-30.84-21.58-6.26-44.3-8.36-66.54-6.13-22.24 2.17-43.97 8.66-63.64 19-19.67 10.31-37.27 24.42-51.58 41.24-14.32 16.81-25.35 36.33-32.28 57.16-6.93 20.82-9.82 42.92-8.42 64.72 1.36 21.79 6.89 43.22 16.25 62.79 9.34 19.57 22.46 37.26 38.36 51.85 3.33 3.05 3.55 8.22.5 11.55s-8.22 3.55-11.55.5c-.05-.05-.13-.12-.18-.17ZM607.95 154.1c7.3 16.54 12.16 34.12 14.34 51.97 1.07 8.92 1.53 17.91 1.31 26.87-.24 8.96-1.12 17.88-2.56 26.71-1.59 8.8-3.67 17.5-6.43 25.98-2.85 8.45-6.17 16.73-10.15 24.68-4.04 7.92-8.55 15.58-13.61 22.86a201 201 0 0 1-16.75 20.58c-24.25 25.75-56.03 44.02-90.13 51.85-34.07 7.92-70.23 5.56-102.6-6.59 32.83 10.87 68.66 11.68 101.6 2.63 32.99-8.96 62.91-27.9 85.08-53.39 22.25-25.43 36.63-57.34 40.88-90.44 1.01-8.28 1.5-16.61 1.4-24.94-.11-8.32-.87-16.62-2.19-24.8a169.5 169.5 0 0 0-15-47.08c-1.99-4.05-.31-8.95 3.74-10.93 4.05-1.99 8.95-.31 10.93 3.74.04.09.1.21.14.29Z" class="cls-3"/><g style="clip-path:url(#clippath)"><path d="M595.83 194.27c-.06-.22-.12-.43-.18-.62 0 0 0 .03.02.08.05.18.11.36.15.54Zm-20.47-46.29c-4.73-7.36-9.98-14.24-15.69-20.62a162 162 0 0 0-18.43-17.58c-.41-.34-.83-.67-1.25-1a164 164 0 0 0-42.06-24.35c-7.78-3.08-15.8-5.56-23.98-7.42-7.34-1.37-17.21-2.85-24.64-3.66-1.34-.09-2.27-.14-2.61-.16q1.02.09 1.45.16l2.11.15c-.78 0-1.55-.07-2.33-.11l.9.06.46.05c-.33 0-.77-.02-1.1-.05l.5.07h-.52c1.5.13 3.01.19 4.51.38q.99.08 5.07.68c-5.96-.04-11.82-1.27-17.77-1.42h-3.33l.27.03c-1.01.03-2.01-.05-3.02.04l-1.41.04c-.15 0-.35.02-.49.03.57 0 1.13-.03 1.7-.02-1.53.08-3.06.21-4.59.27 1.35.08 2.69 0 4.04 0-1.42.11-2.84.07-4.25.2.29.02.68.03.97.04-1.49.17-3.01-.06-4.48.29 3.89-.04 7.78-.21 11.68-.12-.14.02-.32.04-.46.05 1.15.17 2.32.05 3.48.14q-.35.03-1.5.04c.59.04 1.17.07 1.76.11-.19.03-.45.08-.64.11.04.14.1.33.14.47 3.84-.21 7.3 2.16 11.13 2.03.11.03.21.05.28.07.14.02.43-.02.43-.02s-.18-.05-.27-.07c.36-.03.72-.08 1.09-.16l.03-.01c.89.07 1.78.07 2.67.18-.16.06-.37.14-.52.19q.61.29 1.53.57c-.14.05-.32.11-.46.15 1.09 1.34 9.89 1.67 9.97 1.67 1.33-.06 1.84.07 10.34 2.19-2.06-.2-3.98-.99-6-1.36.86.47 1.85.53 2.76.83-3.29 0-6.3-2.58-9.75-1.05.74.56 1.71.27 2.49.68-.27.02-.64.15-.87.3.03 0 .05.01.08.02-1.3-.2-2.59-.39-3.9-.52.43.22 18.22 5.05 18.32 5.06-.27-.21-.66-.47-.98-.61 1.06-.55 6.78.48 9.35 1.23-2.34.13-4.54-.73-6.82-.97l-.33.36c.04.02 7.12 3.35 11.39 5.04-.07.12-.16.29-.23.41-.57.05-1.33.11-1.91.15l-.73.03-.99-.21c-.11-.09-.26-.21-.37-.31.79-.08 1.59-.1 2.38-.16-6.8-3.73-27.7-10-31.45-8.98.02.03 8.57 3.96 11.73 4.41 2.28.33 4.98 1.53 4.99 1.54.06-.12.15-.29.21-.42l5.57 1.59q-.83.17-1.88-.08s-4.22-.8-4.65-.1q-2.28-.27-3.9.52l2.25.83c.06.13.15.31.21.44q2.29.4 2.55.66c-.05.14-.12.33-.18.48q.13.05 1.83.57s-.02.01-3.56-.93c.25.2.59.44.86.59-.2.19-.55.36-.82.4.13.1.3.22.43.32-.2.15-.46.35-.66.5-.17-.02-.39-.04-.56-.05q1.36.64 1.63.85c-.23.16-.5.42-.68.63-.88.07-1.42-.62-2.14-.93.05-.13.11-.31.16-.45-.76-.1-.86.04-1.19.48.21.19.54.38.81.47-.1.11-.23.24-.33.35.1.49.39.91.53 1.39a10 10 0 0 1-.44-.25l.26.46c.71.63 1.02.92 1.27 1.26-.03.1-.08.23-.11.32q-.34.12-1.04.23 2.73 2.48 1.61 2.61c-2.94.34-4.81-4.48-7.93-2.18q.27.5 1.37.6c1.62.14 4.2 2.33 4.22 2.36.81.17 2.95.61 4.05 2.05-.04.09-.1.22-.15.31q-.28.07-2.39-.4l-.17.37q.73 1.1.55 2.14c1.01 1.13 2.93.88 3.66 2.44-1.39 2.09-3.55-.07-5.32-.04-.4 3.09 4.34.86 6.3 1.98-.02.02-3.28 2.09-4.55 1.85-1.83-.36-3.18-1.69-4.83-2.41-1.67-.73-3.48-1.06-5.15-1.8-.37-.16-.62-.5-.98-.68-.01-.1-.03-.23-.04-.33 1.88-.21 3.76.31 5.63-.05 1.64-.31 2.97-1.59 2.98-1.6-2.2-6.02-15.25-3.96-15.38-3.94-.09.18-.11.48-.05.67-.05.08-.12.2-.18.28-1.23 0-2.29-1.11-3.6-.54.05.23.08.55.08.79-.71.39-1.68.93-3.9.49.91-.94 1.65-1.59 1.66-1.6q-.39-.56-3.47-.43c-.02.21-.14.48-.27.64.38.25.78.46 1.18.69q-.13.09-2.11.2c-.06-.08-.15-.19-.22-.27.03-.1.08-.24.11-.35-.38-.59-.74-1.15-1.23-1.15q-.38.79.54 1.98c.16.14.32.39.37.59q-1.07.43-1.29.37-.57-1.58-.91-1.68c-.47.32-.48.33-1.07.94.14.14.33.32.47.45-.26-.04-.6-.08-.86-.1.56.98 1.6 1.55 2.12 2.56-.96.74-2.5-.9-3.13.45q1.41.24 2.41.78-.09.04-1.49.01c.18.33.47.58.68.89q-.21.24-1.77-.58c-.03.11-.06.26-.09.38q1.12.58 1.39.84-.06 0-1.55-.33 1.55.8 1.65 1.08-.24-.03-2.14-.9.44.57 1.41 1.2c-.03.09-.08.22-.11.32q-1.19-.39-1.46-.41.6.18.98.41c-.12.21-.36.45-.58.55.44.19.79.54 1.21.77 0 .22-.07.52-.15.72.77.57 1.27.89 1.28.9.09-.06.21-.13.3-.18 0-.11.02-.26.02-.36.09.11.22.26.32.37q-.08.49-1.9.81c.24.5.24.51 1.15 1.39-.09.08-.21.18-.3.26v.33c.36.13.67.37 1.07.39.04.09.1.21.15.3q-.26.18-1.22.6c.29.23.63.38.88.67-.21.44-.29.94-.52 1.37.49.24 1.06.23 1.52.56.01.11.03.25.05.36-.09.05-.2.12-.29.17.21.45.95 2.09.95 2.09.04.1.1.24.14.34.2.07.46.17.65.25l-.6 1.07c.2.24.4.47.61.71-.22.07-.49.2-.69.32.01.11.02.25.04.36.2.06.47.12.68.15-.97 1.01-.34 2.61-.33 2.62.75.05.97-.24 1.33-.71.4.18.44.2.55.94q-.48.21-1.37.34c-.01.11-.03.26-.04.37q-1.08.68-1.34 1.32c-.7.12-.74.13-1.15.26q.31.38 1.59.39c.03.1.06.23.09.33q-.4.47-2.26.31c.47.38 1.12.46 1.55.9q-.51.42-2.13.69c.19.19.47.41.71.53-.07.08-.15.18-.22.25.06.08.13.2.18.28q-.29.57-.58 1.02 3.06 1.6 3.22.47c.15-.02.93-.06 1.3.64-.74.54-1.66.72-2.46 1.13-.03.23-.08.54-.13.78q.67.05 1.91-.61-.06.63-.75 1.13c.96.45 1.29.6 2.4-.13q-.14.2-1.17 1.01c.06.09.15.22.21.32.26 0 .6.04.85.1q-.01.46-.55.82c.02.12.04.28.05.39.26.04.61.05.87.03.02.19-.04.47-.14.63q1.08-.42 1.65.09c-.2.12-.46.28-.66.4q-.73.25-1 .53c.52.12.64.14 1.28.01l.17-.08q.04.06 1.05 1.15c.97-.02 1.94.07 2.92.02.08.07.18.17.26.24.21-.08 1.21-.6.9-2.46.09-.05.2-.13.29-.17q-.77-2.09-.95-2.27c.74.46.75.47 1.31.71.22-.5.22-.52.83-.58q.13-.47-.24-1.22 1.56.19 1.8.42c0 .24.02.56.07.79.8.27 1.3.99 2.03 1.37.14.49 2.18 1.9 3.46 2.39.26.08.26.08.59.12.43.05.72.08.93.28.63.57.64.6.89 1.47.19.65.95.61 1.3 1.07.13.18.07.53.39.54.28.01.56.12.85.03s.43-.39.71-.5c.11-1.66-.05-2.03-.17-2.3q-.14-.33-.13-.47.21-.165.51-.15c.07 0 .16.01.23.02.27.03.49.19.76.22.18.02.35-.1.54-.06.14.02.17.05.34.15.02-.46-.4-.78-.37-1.24 0 0 .04-.34.41-.51.03-.02.09-.05.09-.08-.07-.59-.44-1.08-.56-1.66 0-.03-.01-.06-.02-.09-.57-1.37-2.08-1.94-2.76-3.22-.78-1.47-.79-1.5-.79-1.74.02-.76 1.62-1.24.89-1.9-.34-.3-.36-.32-1.94.36-1.03.44-1.17.47-1.95.65l.17-.31c.02 0 2.03-1.01 2.21-1.51-.64-1.25-3.9-1.92-3.93-1.92-.96.04-4.13-3.76-3.46-4.75-.54-1.51-.28-3.16-.84-4.67q.67-.48.81-.81c-.18-.17-.36-.46-.45-.7.15-.26.37-.61.55-.85-.51-.08-1.08.29-1.54-.21-.61-.66.07-1.77-.82-2.33-.3.21-.59.43-.89.64-.05-.36-.06-1.56 1.68-1.97 1.22-.78 3.42.48 3.43.5q-.05.48.22 1.13c.62.25 1.34.22 1.89.67-.88 1.17.45 3.72-1.53 3.94 1.26 1.36 2.06 3.1 3.55 4.27 1.41 1.11 3.15 1.72 4.46 2.98.62-.04 1.24-.16 1.86-.11.03.1.06.23.08.33l1.91-1q.21-.72.53-.97c.06-.03.07-.03.07-.03.1-.02.23-.04.33-.06.05-.1.12-.24.18-.34-.05-.09-.12-.21-.16-.3.5-.77 1.69-.75 2-1.73.22.08.51.24.68.4.38-.49.38-.5.35-1.08.09-.05.2-.12.29-.17.89.5 1.87.83 2.7 1.45q-.15.38-.64 1.06s.36 1.17.97 1.6c.08.06.2.14.27.22l2.87 3.36q-.21.05-2.35-1.3l-.31.08c-.61-.6-.36-1.48-.7-2.17-.09-.13-.19-.23-.28-.33q-2.24.39-2.78.42c-.22-.03-.51.03-.72.1-.06.29-.25.65-.42.9q.01.61-1.67 1.05c0 .11-.02.26-.03.37q.43.29.9 1.62c.45.15.93.15 1.39.26.02.1.05.22.08.32.71.2 1.43-.11 2.14 0 .13 1.18 2.31 2.52.91 3.39q-2.91-1.09-3.15-.97c.33.75.06 1.77.26 2.52q2.29 2.54 6.17 3.37v.65c.15.13.36.31.51.45-1.25 1.28-4.57 3.29-4.59 3.3-.06-.18-.14-.42-.19-.6-5.18-.56-5.87 5.18-5.61 5.74-.19.06-.44.16-.64.19-1.2.23-2.1-.93-3.29-.71-1.25.23-1.4 2.24-3.03 1.87-.93-.21-5.53-1.42-4.95-4.1q.36-.21 1.77-.59c-1.05-.74-1.98-.89-2.66-.99-.08-.37-.19-.86-.26-1.23-.15-.34-.24-.63-.36-1.13-.02-.11-.05-.23-.08-.28-.03-.07-.05-.06-.07-.05-.02.03-.05.07-.1.27-.05.17-.19.68-.75 1.69-.16.11-.38.25-.55.35-.24.05-.39.09-.5.13-.09 0-.17 0-.2.02-.06.03-.09.05-.11.09.59.42 1.3.66 1.83 1.17-.26.27-.68.57-1.02.73q.64.96 2.71 2.51l-.89.64q1.06.71 1.33 1.47c.69.32 1.04.48 3.28 1.37-.38.16-.91.34-1.31.43.1.17.24.4.34.57q-.55.64-1.81.58l-.47.67c-.18-.05-.42-.12-.61-.17.31.3.68.75.88 1.14-.38-.02-.88-.12-1.23-.25q-1.47 1.7-2.18 3.46l-.43.74.84.54-.07.4c-.12.2-.27.46-.39.66.26.41.62.95.89 1.35-.08.03-.15.07-.23.1-.91.56-1.45 1.73-2.13 3.21l.53.51c.29 1.61-1.24 2.24-1.83 3.38l.46.49c-.3.31-.71.72-1.01 1.02l-1.19.45c-.58-.46-.85-.68-1.92-.45.03.19.06.44.09.63.59.25.99.81 1.61 1.01l.27.61c-.02.01-2.4 1.44-3.16 1.45-.19-.08-.45-.18-.64-.25q-2.01 1.56-2.21 1.58c1.28 1.76 2.29 3.15 4.88 1.38.36.09.82.35 1.09.61.42-.04.97-.14 1.36-.27.05.27.13.63.18.89-.17.08-.4.19-.57.28 1.46.45 3.68 1.46 3.69 1.47q.07.44 1.71 2.18c-.2.38-.47.89-.66 1.28 3.97 6.48-5.81 6.92-6.94 6.94-2.77.07-3.2.08-5.5 1.98.11.38.26.89.37 1.28-.19-.03-.44-.06-.63-.09q.11 1.29-.03 1.93c1.29 1.01 4.2 6.65 2.58 10.17.14.36.53.77.87.95l.6-.23q.3.59 1.52 1.21.51 1.69 1.53 2.05c.04.18.08.42.12.6q9.86-1.76 10.09-1.75c.08-.17.2-.4.28-.57-.23-.12-.53-.29-.75-.41 1.34-1.78 3.65-1.29 5.34-2.26l-.49-.56c-.2 0-.47.02-.68.03.66-.99 1.61-1.7 2.39-2.57a4.5 4.5 0 0 0-.35-1.19c.46-1.12.12-2.37.52-3.5-2.45-1.39-.81-3.94-1.65-5.79.9-1.35 2.61-2.06 3.01-3.81 0-.02-.12-2.23-1.49-2.87q.55-2.68 5.76-3.21c.88-1.32 1.11-3.41 1.11-3.43.34-.31.71-.86.76-1.31q1.84-1.3 4.11-.89c.97 1.01 1.05 1.02 3.11 1.35v.62c.06.03 6.4 2.62 7.67 1.92.35.12.8.4 1.05.68 5.41.09 6.01 2.01 7.47 6.66l.62-.1q.66-3.35-1.93-6.72c.21-.35.42-.88.46-1.29q1.84.65 2.49.7c-.35-2.7-5.52-1.94-5.58-1.92q-2.06-1.72-4.17-1.01c-.06-.18-.13-.42-.19-.61-3.14.51-5.09-2.15-7.74-2.93q-1.47-3.66 1.09-4.76c-.14.19-.33.45-.47.65q.67.95 1.41 1.38.32-.39.43-1.9 1.46 1.57 2.79 1.84c0 .2.02.47.03.67 2.3 1.94 5.43.44 7.86 1.89 2.55-.17 4.3 1.81 4.93 2.67l-.2.74c.47.71.99 1.38 1.49 2.07 3.5.33 3.9 1.74 4.09 2.42q.31.08 1.55 1.02 2.2-.75 3.08-.43c-.15.17-.34.41-.48.58q-1.28.03-1.77.46c.43.08 1.03.09 1.46.03q.83 2.4 2.03 3c.16-.12.38-.28.55-.41-.04-.19-.1-.44-.14-.63.42 0 .98.03 1.39.06-.44-.96-1.67-1.49-1.53-2.77.35-.24.9-.47 1.33-.52-.26-1.1-.9-1.88-1.66-2.53.01 0 .02 0 .03.01.1.06.19.13.29.19.24.14.52.16.75.3.3.19.31.23.31.36.02.33.9.54.94.55.03 0 .12.02.18 0 .05-.03.03-.09.07-.13.04-.06.13-.03.17-.09v-.01c-.05-.07-.49-.26-.91-.41-.12-.04-.31-.11-.59-.61-.12-.12-.27-.32-.44-.36-.3-.08-.39-.14-.45-.18l-.65-.05s-.08.09-.09.14c-1.56-1.2-3.5-2.06-4.14-4.07q.58.14 1.66 1.27c.23-.27.69-.52 1.04-.55.12-.15.27-.35.38-.5-.35-.19-.81-.48-1.15-.71.09-.64.18-1.5.24-2.14.18.35.55.77.87.98.02-.37.18-.85.38-1.16q2.27-.15 2.78.14c-.02.2-.04.46-.05.66 1.14-.99 1.83-2.35 2.85-3.44l-.87-.68c-1.24-.51-2.12-1.67-3.5-1.93 0-.05-1.82-5.84-1.84-5.85-.19-.64.14-1.27.05-1.92l.57-.4c-1.15-5.16-.35-5.48.76-5.93.59.31 1.46.55 2.1.72l1.01.13.15.59-.64.64c.93.51.97.53 1.95.55.1.37.14.9.07 1.28.62-.02 1.24.07 1.87.08.15-.12.34-.28.49-.4-.04-.43-.07-1.01-.04-1.44q1.19-.47 1.81-.54c.07-.45.06-1.07-.05-1.51-.63.24-1 .81-1.51 1.2q-.06-.03-2.51-.94-.08-1.71 1.65-3.76-.14-1.05 1.9-2.21c.07.44.16 1.04.22 1.48.17.13.41.3.58.43-.12.14-.29.33-.42.48.37.23.83.62 1.08.98l-.41.58c.24.34.61.77.91 1.06-.12.29-.27.67-.39.95 1.49 1.28 3.52.89 5.17 1.67 1.76.89 4.04-.26 5.6 1.42.04.05 4.01 4.9.63 5.31-.18.02-.43-.09-.61-.12-2.13 2.41-5.53 1.64-5.91 1.54-.12-.19-.27-.44-.39-.62-.39-.02-.92.18-1.22.43-2.27-.47-7.67 5.95-7.71 6.02.17.36.5.8.8 1.06-.04.36-.12.9-.39 1.16-1.09 1.04-2.6 1.51-3.61 2.66q.42 1.31 2.33 1.64.19.86.93 1.81-.04.08-.2 1.9c.73.08 1.44-.18 2.17-.05q.15.51 1.76 1.8l.03.63c.18.05.42.13.61.18.17-.13.39-.31.56-.44.02-.19.05-.44.07-.63 2.9.94 3.19.79 4.56.08.11-.4.17-.98.12-1.39l.02-.19h.02c.06-.02 1.4-.46 2.65-.24.03.18.08.42.12.61q1.16.16 1.85-.52l-.43-.56c1.26-.61 1.41-2.81 3.31-2.45.15-.12.36-.28.52-.41-.02-.18-.04-.43-.06-.62.6 2.32 1.96 4.3 2.93 6.45l.14.82q.32.45.39 2.17l.07.67c.17.07.4.16.57.22-.96 1.81.01 3.64-.07 5.46-.53.36-1.36.63-1.97.83l-.64-.02-.21.61c-.16-.14-.38-.32-.54-.46-.81.08-2.79.92-3.69 2.96-1.07 2.42-3.7.56-5.54.88l-.51.11c-.38.04-.88.08-1.25.12l-.39.49c-1.38-.2-6.03-1.22-6.04-1.23-.94.61-1.65 1.55-2.8 1.84-.37.63-.92 1.13-1.16 1.84 3.21 1.83 1.36 6.34.14 6.33-.08 0-8.4-.86-9.33-2.89-1.15.18-2.22.73-3.41.77-.26-.3-.68-.63-1.04-.79-2.59 2.08-5.42-.08-8.1.47q1.07-2.53-.61-5.94.31-.8-.23-2.54-.72.03-1.68.91c-.38-.2-.96-.36-1.39-.37q-.18.19-.64 1.73c-.32.1-.75.24-1.07.35-1.35 2.35-4.67 1.44-6.09 3.68-1.15.02-5.11 1.9-7.86 3.72l-2.33 1.9-.5 1.71.57.4c-.95.82-2.1 1.37-2.98 2.27l-1.61.58c-1.64.01-3.03.9-4.57 1.29-.27-.3-.58-.75-.79-1.1h-.72c-.2.37-.47.86-.67 1.23l-.32.16.44.73c.01.85.31 1.68.24 2.54l.23.36-.43.67c-1.85 1.95-2.47 4.65-4.11 6.73 1.46 1.95.39 4.75 2.21 6.58-.55 6.7-7.9 10.6-7.31 17.77.17.11.39.25.56.35.03.45.08 1.28-1.56 4.91.97 2.2-1.07 4.77.85 6.85q1.23.04 2.72 2.18l-.3.63c2.96 2.5 3.85 3.25 1.99 11.48q.42.65 3.7 1.6l.38.13-.5.85.69.23a1.9 1.9 0 0 1-.76.85c.16.1.36.23.52.32 0 .2 0 .47.01.67q1.71.79 5 .49c-.12.37-.13.93 0 1.3q1.53.28 2.18.68l1.37.22 1.72.11.24 1.08c.07.17.16.4.23.57q1.54.34 1.89.66c-.09.16-.22.37-.31.53.09.15.22.35.31.51l9.27 2.56c1.85.1 3.68.55 5.55.36 1.24-2.22 2.3-4.14 7.82-5.41q3.59-1.17 4.2-2.5 2.13-.77 3.06-3.09c2.7-1.07 4.71-3.59 7.86-3.72-.12.13-.29.31-.41.45.38.17.92.33 1.34.38.53 2.38.61 2.74 2.26 2.59 2.18-.19 2.94-2.51 4.78-3.22v.64c.53.48 1.21.74 1.73 1.21l.61-.17.51 9.4-.29.51c.18.76.74 1.41.6 2.26q1.5 1.38 1.95 2.42c1.25.1 1.26.1 2.05.34.05.4.1.94.13 1.35 10.49 9.28 1.28 21.99 5.63 32.34.36 0 .85 0 1.21.01l1.27 14.91-.22 5.39c-.12.17-.29.39-.41.56.25.69.28.76 1 1.52 2.03-.95 3.54-2.66 5.46-3.77.16.07.38.15.54.22 7.79-6.99 18.93-30.81 26.31-46.58.33-.63.86-1.15 1.12-1.82.25-.65.25-1.34.37-2.01.04-.19.07-.45.1-.64.08-.62.05-1.25.14-1.87.09-.69.29-1.35.38-2.04.02-.14 0-.33 0-.48 0-.02-.01-1.67-.57-3.41-.86-2.85-.32-5.23.57-9.18.18-.5.18-.52.18-1.18 0-1.26.4-2.58.57-3.08l1.26-3.11c.21 0 .55-.02.87-1.45q.71-3.18 1.37-4.39c.2-.36 1.59-3.71 1.75-4.38.33-1.34 1.83-1.76 2.36-2.94.01-.02 1.12-2.54 1.42-5.16.11-.91.13-1 .25-1.42-.07 0-.16-.01-.23-.02-.04-.05-.09-.12-.12-.18q1.95-4.55 2.45-8.19c.04-.32.06-.76.06-1.08 0-.93-.57-1.73-.56-2.66 0-.78 1.14-1.29.57-2.19-.82-1.3.06-2.62-.05-3.93s-.08-.85-.38-1.5a2 2 0 0 1-.22-.05c-.13.1-.28.27-.38.4-.75 1.02-.57 2.38-1.3 3.4-.46.65-1.43.41-1.89 1.06-.11.16-.22.39-.31.57-.52.97-.79 1.45-1.68 2.02-.9-.26-1.87-.06-2.77-.38-.25-.61-.4-1.25-.74-1.82-.67.3-1.02 1.04-1.75 1.24-.42-.71-.13-1.65-.1-1.75.63-1.99-.1-2.25-2.29-3.03-.16-.06-.33-.11-.49-.16q-.3-1.39-.48-1.67c-.34-.54-.99-.73-1.36-1.22-.3-.39-.5-.83-.76-1.24q-21.19-27.27-23.22-27.41c-.15-.35-.3-.85-.39-1.22 2.19.19 3.18 2.53 5.25 2.95l-.86-3.76q.52.43 1.78 2.39h.68c2.23 2.78 4.91 5.15 7.01 8.04.37-.05.86-.16 1.21-.28q.53.61 1.26 1.96c.19.02.44.05.62.08q2.7 6.66 3.42 7.2c.13-.13.31-.3.44-.42-.01-.05.08-.1.11-.14.11.04 2.74.97 4.42 6.38 2.03-.21 3.66 5.47 4.11 7.21 0 .02.88 2.45.99 2.54.26.21 1.26-.2 1.4-.45.16-.3.45-.87.52-1.37.06-.43.08-.59.59-.72.29-.07.43-.09.73-.07.11 0 .18 0 .27-.04.16-.1.38-.63.4-.77.03-.17-.01-.26-.1-.41-.16-.25-.15-.31-.09-.63q2.08-4.26 4.42-3.54c1.38-2.79 1.39-6.12 3.42-8.66-.86-5.71 2.3-11.58-.67-17.21-1.15-.07-1.2-.22-1.63-1.63-.32.14-.7.48-.87.78-1.4-1.86-3.37-6.03-3.38-6.05-.16.1-.39.23-.55.33 0 .07.05 7.17-.81 8.15-.42-.16-.94-.48-1.25-.8l-.63.1q-1.76-4.75-1.79-4.79c-.23.71.04 1.4.05 2.11-.27.26-.58.66-.77.99q-6.99-10.1-7.32-11.72c2.54-2.5 5.55 4.24 5.57 4.33q.4.22 2.66.52c.18.38.51.84.82 1.12.57-.3 1.21-.39 1.81-.61q.54-1.48.94-1.82.7.19 2.64 3.01c.36-.09.83-.33 1.1-.59 1.11.42 2.3.58 3.38 1.08.13-.14.3-.32.43-.45-.03-.45-.09-1.05-.15-1.49.41.05.94.23 1.3.42.56-.22 1.01-.39 1.96-1.59.64.24 1.82.68 2.44 4.66.19-.02.44-.05.62-.08.09-.19.2-.44.29-.62.58.62.99 1.37 1.52 2.03.07-.17.17-.4.24-.57l.48.51q-.2.79 1.33 5.09.61-.81-.03-4.59c.15.12.36.28.51.39.4 7.31 3.6 13.92 5.26 20.91.39 1.07.49 2.4.89 3.46.24.64 0 1.32.12 1.97.08.43.45.73.57 1.14.69 2.22-.23 4.69 1.05 6.81.02-.01.05-.03.07-.04.19-.82-.09-1.66.08-2.49q.1.08.11.39c.1-.3.23-3.63.04-5.05-.06-.48-.19-1.64-.16-2 .02 0 .05.02.06.02 0-.01.01-.03.01-.04l-.63-4.95c-.97-4.89-.87-9.91-1.89-14.79.08.21.18.5.26.71-.16-1.68-1.63-7.55-1.83-8.31-2.03-7.47-4.62-14.92-7.81-22.27-3.59-8.29-7.79-16.12-12.51-23.49ZM467.94 81.49c.83.04 1.65.07 2.47.2-.83-.03-1.65-.1-2.47-.2m-14.19 55.63c-.09-.17-.11-.23 0-.19 0 0 .02 0 .02.02.02.03 0 .09-.03.17Zm-.56 4.07h.01z" class="cls-4"/><path d="M448.14 179.24s-.03 0-.04.01c.01 0 .13-.02.15-.03s-.07.01-.11.02m65.28 4.42h.02c.21.09.44.15.45.14 0-.02-.28-.12-.47-.15Zm-55.25-42.81h-.03c-.05.04.1.19.13.2.01 0 0-.03-.01-.04-.01-.02-.04-.06-.08-.16s0 0 0-.01Zm9 4.96s.03.04.04.03v-.02c0-.01-.02 0-.04 0Zm133.05 81.17s-.03.03-.05.04c-.01 0-.03-.01-.04-.02v.05c.02.29.04.58.05.88l.03.58v.94l.05.57-.02.53s.12 1.95.14 2.25q.13 2.76.2 2.88c.07-.14.02-.33.17-.44q.07-.51.03-2.68c0-.58-.07-2.69-.47-5.57q-.1-.78-.15-.88s0 .29.02.55l.03.34Zm-18.92.63c-.1.29-.18.54.1.87.01.01.11.12.17.05.03-.03.1-.12.27-.7.03-.1.11-.36.17-.46.1-.16.33 0 .43-.18.11-.2 0-.4 0-.6v-.04c0-.03-.16-.42-.16-.42-.02-.04-.03-.04-.06-.04-.11.07-.72.95-.91 1.53Zm-5.24 59.88c-.39 1.12-.54 2.31-1 3.42-.1.24-.17.37-.58.4v.02c0 .02 0 .04-.01.05 0 .03-.01.05-.02.08 0 .04-.01.07-.02.11 0 .04-.02.08-.02.12 0 .05-.02.09-.03.14 0 .05-.02.1-.03.14 0 .05-.02.1-.03.14-.1.76-.75 1.29-.86 2.05-.08.59-.13.77-.7 1.01q-.12.05-.56 1.27c0-.35 0-.36-.07-.56-.04 0-.09-.01-.13-.01-.39.39-.54.94-.9 1.36a.44.44 0 0 0-.24-.13l-1.57 2.51-.93 2.8c.06.15-.57 3.14-1.03 4.43-.53 1.48-.76 1.8-1.2 2.22-.3.28-.6.58-1.71 4.01-1.46 4.54-.66 5.01-.36 5.18q1.11-.88 1.39-.63s.09-.01.13-.02c1.62-2.4 7.81-17.8 7.82-17.87l1.88-5.46q.1.66.13.73c.06-.16.2-.52.64-2.37.11-.48.75-5.7.42-5.99-.11.11-.2.2-.43.86Zm-1.6 10.05c-.07.19-.12.38-.18.58-.02.09-.05.19-.07.28.04-.06.07-.13.11-.19.06-.09.07-.1.13-.16.08-.12.16-.31.19-.45 0 0 .07-.35.02-.4h-.01c-.06.03-.18.34-.18.35Zm1.55 7.37c-.17.49-.18.89-.18.89.12 0 .39-.43.42-.48.11-.18.28-1.22.15-1.21-.08.05-.26.42-.39.79Zm2.34-2.65c-.1.19-.15.26-.21.23l-.22.51c-.04.13-.09.26-.13.39q.16.05.17.06c.01 0 .02 0 .05-.04.09-.14.43-.86.56-1.23.08-.22.07-.26.06-.29h-.02c-.09.04-.2.24-.26.36Zm-60.23-24.86s.08-.05.09-.08c.02-.09-.4-.64-.69-.55-.2.1-.23.44-.17.74l-.14.25.15.63c.17.26.61-.04.7-.21-.2-.02-.15-.45-.15-.45.03-.16.08-.24.21-.32Zm-2.35 8.91c.07-.1.13-.35.09-.55-.03-.22-.12-.18-.21-.15-.22.1-.3.22-.32.3 0 0-.07.35.1.46.02.01.2.13.34-.07Zm-74.08-5.79s-.07.06-.11.08c-.07.05-.2.13-.2.2s.09.08.18.1.17.03.25.08c.09.05.13.13.17.19.02.03.05.09.08.11 0 0 .02.01.03.02.06.04.13.05.19.07.08.03.13.04.3-.13.01 0 .02-.02.03-.03l-.57-.53-.36-.16Zm.43-.71h-.01c.01.15.03.35.04.51.05.02.06.02.09.05h.01c.01 0 .31-.24.31-.24.01-.01.04-.05.02-.09-.04-.12-.34-.27-.46-.24Zm-.36-1.9s.06.03.11.07c.03.03.06.06.1.08.08.03.16.02.33-.05v-.48l-.83.13c.08.08.17.19.26.26h.02Zm-.07-1.45s.04.03.07.04c.04.02.06 0-.07-.35 0-.02-.02-.04-.02-.05-.17.07-.33.14-.5.22l.24.22c.07-.03.13-.06.2-.09.02 0 .03 0 .09.02Zm-2.18 1.33-.02-.41-.2-.17-.29.45zm-1.2.29.3-.09-.02-.29-.2.04-.32.02zm-1.6-.34.06.22.24.06.06-.33zm-.28-.35-.53.14-.13.13.12.32.27-.23c.05-.02.11-.05.16-.07l.11-.28Zm13.11-36.46.36.23q.27-.22.37-.37c.15-.22.2-.35.25-.56v-.48c-.13-.13-.3-.3-.42-.43h-.02c-.1.05-.47.49-.56.68v.58c.08-.05.18-.12.25-.18-.05.09-.13.16-.18.25q-.06.14-.06.26Zm.73-2.7q.37-.01.45-.06c.3-.14.32-.31.32-.31 0-.06-.03-.07-.1-.07-.17-.01-.34 0-.5 0-.15 0-.3-.04-.44-.05-.07 0-.09 0-.13.01-.02 0-.04.02-.05.04-.03.15-.07.35-.1.51.06.04.07.03.18 0 .18-.06.22-.06.37-.07m-3.54 3.9-.34-.05c-.04.11-.11.24-.14.35 0 .03.02.06.03.09.14.27.74.58.99-.21.03-.14.03-.33.04-.48l-.21.15c-.17.14-.26.16-.37.15m-1.06-.54c-.39.22-.72.53-1.09.78-.22.15-.46.27-.68.42-.02.02-.05.04-.07.06 0 0-.41.41-.25.79l.43.15c.11-.46.12-.48.58-.49.51-.01.58-.14.61-.19-.02-.67-.02-.85.4-1.35.07-.08.11-.13.11-.15v-.01h-.05Zm-2.86 2.48.47-.15-.47-.24zm-.07 1.08c-.04-.14-.13-.16-.13-.16h-.14c-.14.01-.21.01-.31 0l-.28-.02c-.03.13-.12.3-.09.43.04.13.14.25.3.32.52.27.76-.22.65-.57m-1.7-2.68c-.1.25-.22.78.05 1.01.33.28.92.01.89-.22-.01-.09-.07-.16-.3-.41l-.65-.38Zm30.61-45.05-.34-.14-.37.45c.05.11.11.22.16.33 0 .02-.09.19-.05.26.06.08.45.02.6-.89Zm1.55-1.82.7-.54-.73-.3c-.15-.12-.36-.28-.51-.4-.02 0-.04.01-.07.02-.02.01-.05.04-.07.06 0 0-.33.87-.34 1.03 0 .25.17.24.32.19l.69-.06Zm1.51-2.13.13-.41-.36-.15c-.15.06-.3.13-.44.19.02.05.04.09.07.14.07.14.13.27.2.41.14-.06.27-.12.41-.18Zm6.44-6.16c.33.31.86.54 1.15.67.22.1.23.11.28.17l-.06.78.14.41.53.1v.85l.46.49c.09.18.18.36.27.55l-.02.01c-.01.01-.03.03-.04.05 0 .07 1.09.63 1.27.57.1-.25-.08-.53-.24-.78-.12-.18-.29-.46.58-.51q.89-.05.7-.43c-.19-.38-.69-.44-.87-.82-.28-.59 0-1.31-.43-1.87q-.2-.26-.22-.31c-.05-.12-.02-.25-.06-.37-.03-.07-.12-.09-.14-.17-.02-.05 0-.11 0-.16-.06-.33-1.49-1.11-2.07-.95-.49.25-.48 1.37-.45 1.58-.22.18-.55-.15-.75.14Zm-1.28-5c-.21.46-.23.64-.19.86.01.05.07.12.12.14.13.07.28.09.41.16.08.15.15.29.23.44.03.04.07.09.1.12 1.03.94 1.37.69 1.34.31l.44-.24-.14-.69-.05-.63c-.01-.07-.02-.12-.3-.31-.23-.16-.32-.21-.38-.27-.1-.09-.18-.21-.28-.31-.21-.23-.44-.44-.64-.68-.13-.15-.2-.35-.32-.5-.02-.02-.05-.06-.07-.08-.09-.09-.14-.09-.19-.09.07.37.41.61.46.99q.01.1-.32.14c-.31.03-.38.22-.38.22 0 .03 0 .08.02.1.06.05.15.06.22.11l-.07.21Zm19.12 6.65c-.09-.33-.44-.45-.6-.41 0 0-.53.32-.69.75-.02.04-.05.12-.14.16-.38.17-.75-.07-1.12-.02-.43.05.02.63-.25.87-.52.46-1.17.09-1.73.3-.01 0-1.18.51-.48 1.17.12.11.36.26.52.31 0 0 1.12.26 1.52.29.16.01.33.07.44.12.04.02.1.04.15.06.5.21.64.24.95.08q1.03-.54 1.09-.55c.35-.02.5.3.76.43.21.1.84-.11.82-.27-.05-.43-.23-.8-.53-1.09-.11-.1-.22-.22-.36-.47-.18-.34-.32-.86-.31-.93.02-.25.02-.6-.03-.79Zm1.46 5.8c-.12.09.4.36.4.36s.89.27.77-.13c-.05-.16-.24-.41-.38-.57-.26.12-.53.23-.8.34Zm17.15-5.49c.08.05.34.11 1.24-.15.39-.11.51-.13.73.02.23-.04.62.03.77-.15-.03-.19-.04-.32.71-.6.19-.07.4-.09.58-.22.14-.1.31-.14.44-.25.03-.02.06-.05.03-.15-.14-.42-.67-.46-.67-.46-.21-.01-.31 0-.42.06-.17.07-.28.22-.44.3-.28-.1-.63-.23-.77-.19-.07.04-.11.09-.15.23q-.135.435-.36.57c-.3.2-.61-.04-.91.03-.79.16-.99.82-.77.97Zm17.59-7.58c.1-.26.17-1.04.17-1.04s-.19-.63-.59-.59c-.06.03-.1.09-.13.17-.04.13-.15.43-.61.89-.15.14-.41.38-.49.37-.03 0-.29-.03-.44.06-.1.06-.11.14-.11.17 0 .23.08.46.08.69 0 .3-.12.29-.27.26-.16-.03-.32-.05-.41-.01q-.12.05.15.65c.11.26.29.64.47.73.07.03.21.1.73-.24.26-.17.44-.21.52-.22.11 0 .13-.02.14-.02.08-.05.06-.15.12-.21.23-.2.51-.32.74-.53.12-.11.18-.18.26-.28.1-.14.04-.17-.13-.29-.08-.06-.26-.17-.23-.39 0-.05.03-.12.05-.17Zm-11.08 2.66c.07-.1.17-.43.04-.75 0 0-.32-.74-.65-.67-.02.01-.22.12-.23.58v.13c.01.12.05.23.06.35.01.11 0 .22.02.32v.06c.01.07.03.17.12.21.14.06.5-.06.63-.24Zm-.23 1.98c-.04-.09-.31-.56-.39-.65 0 0-.57-.59-.67-.59-.03.09.13.39.31.51.15.31.31.63.46.94.2.04.39.05.29-.22Zm-6.76-4.18c-.07-.15-.34-.56-.65-.45-.32.17.46.92.47.92.08.04.32-.15.18-.47m-2.2 4.97.29.57c.03.05.1.16.18.22 0 0 .3.19.13-.19-.07-.17-.17-.33-.24-.5-.05-.12-.04-.16-.04-.19v-.04c0-.03-.04-.11-.21-.05-.13.07-.13.14-.11.19Zm-1.88-11.52.21.67h.47a14 14 0 0 1-.22-.39l.04-.49c-.17.07-.33.14-.5.22Zm3.72 1.92c.16.11.17.11.2.1v-.01l-.53-.63-.38-.14s-.08.07-.11.11c-.24.25-.33.46-.29.63.01.04.04.14.09.19 0 0 .02.01.02.02.07.06.15.09.22.15.1.08.17.19.27.27 0 0 .03.02.05.02.03 0 .04-.03.06-.09.02-.05.03-.1.06-.14s.09-.05.12-.1c.01-.02.03-.05.02-.07-.02-.17-.29-.42-.37-.49.16-.09.36.05.56.18Zm-2.54 1.58s-.05-.04-.08-.05c0 0-.28-.17-.43-.13-.04.02-.04.06.02.14l.44.36c.1.05.29.07.34.18 0 .01.03.02.04.02.06.03.2.05.16-.06s-.06-.1-.1-.14c-.05-.05-.12-.06-.18-.1-.09-.05-.13-.15-.21-.21Zm4.73 2.87c-.01-.06.04-.12.01-.18-.02-.06-.11-.11-.18-.15l-.19.3.25.15s.08-.08.11-.12m-66.21-19.23c-.07-.25-2.35-3.09-3.23-1.38-.09.17-.1.24-.14.49-.29.01-.67.03-.96.04-.23-1.14-.49-1.22-1-1.28-.33-.04-1.4-.24-1.19-1-.55-.39-1.75-1.08-1.76-1.09-.6-.31-1.24.06-1.85-.1-.19-.05-.22-.11-.36-.46q-.29-.7-1.72-1.24c.02-.05.04-.12.05-.17-.38-.29-2.83-.03-2.85-.03.18-.51.42-.47.62-.36q-.04-.11-1.3-.61c.16-.49.74-.54.98-.95-.31-1.02 1.21-2.54-.14-3.11l-2.83.45q-.09.04-.82 1.06s-.5-.5-.49-.97c1.69-1.25-.14-2.42-.17-2.43-.04 0-.1.02-.14.03-.35 1.07-1.48.6-2.21.94q-.23.57.44 2.21c-.09.15-.22.36-.31.51l.44.66-.1.67.44.28-.07.38.45.34-.16.72v.03s0 .02.01.02c0 .01.01.02.02.03 0 .01.01.03.02.04 0 .02.02.03.03.05.39.57.54.33 1.1-.57l.11.11c-.17.37-.6.61-.53 1.1q1.11.58 1.35 2.22s.09.03.13.04q.38-1.21.71-1.32c.11.15.14.33.25.48q.57.1.97 1.57c-.06.06-.14.15-.2.21.49.82.65.85.79.88.23-.17.34-.45.61-.57.31-.14.68.1.98-.14.34-.27.37-.72.61-1.04.04 0 .09.02.13.03.03.05.06.13.09.18-.06.1-.15.22-.23.32.12.7 1.22 2.15 2.08 1.22.03-.03.06-.08.08-.11.97.52.28 2.05 1.48 2.43 0 .06-.02.14-.03.19 0 .03-.37.3-.42.31-.47.11-.97 0-1.44.12-.44.11-.71.17-.82.53-.48 1.47 2.36 1.37 1.74 2.79q-.11.26-1.2 1.03c.09.29.25.84 1 .8.55-.03.98-.46 1.54-.45.2 0 1.46-.1 1.46-.1.08-.03.32-.23.45-.5.31-.67.44-.94.8-.94.44.84.03 1.47-.11 1.65-.56.72-1.51.77-2.19 1.28.13.02.3.08.41.14-.37 1.15-.97 2.2-1.38 3.34q.38.39-.12 1.19s.08.09.12.13q.48-.13 1.59-1.58.55-.71 1.69-.79c.27-.93-.14-1.07-.38-1.16.05-.04.11-.1.17-.14 1.56-.97 2.07-.97 2.24-.98.86-.01.57-1.38 1.5-1.3.5.04 2.9-1.34 2.92-1.35.36-.23.4-.7.71-.96l.04-.02.04-.02s.02 0 .03-.01c0 0 .02 0 .03-.01s.02 0 .03-.01c0 0 .02 0 .02-.01h.04c.36-.21.39-1.45.4-1.83-.72-.19-.96.54-1.46.77-.78-.38-.73-.48.37-2.9Zm-19.54-4.03-.12.34-.09.24c.04.07.07.13.11.2l.21-.09c.03.04.04.08.04.2 0 .05 0 .09.01.1 0 0 .36-.17.29-.36-.04-.08-.09-.16-.13-.23-.04-.09-.04-.19-.08-.29-.07-.17-.17-.13-.24-.11" class="cls-4"/><path d="M433.85 158.77s.02-.35 0-.46l-.15-.27-.06.4c0 .05-.05.13-.03.18 0 .03.06.12.13.17.04.03.1.04.11-.02m1.34.17s-.05.05-.04.11l.09.36c.09.05.21.14.31.16.02 0 .12.02.14-.03.02-.06-.04-.25-.04-.25s-.26-.41-.46-.35m-1.96-1.44-.19-.23-.31-.25-.28-.15.03.33s.05.1.08.15v.19c.04.09.09.18.14.27.11-.05.22-.1.33-.14l.19-.16Zm-2.83-2.35s.02.03.04.04c0 0 .01 0 .02.01.04.03.07.02.13-.03h.01l.01-.01h.01l.01-.01h.01l.01-.01h.01l.01-.01h.36q.4.29.43.3c.13.03.42-.07.43-.12 0-.05-.09-.12-.12-.14l-.45-.19-.27-.21-.47-.46c.06.14.14.32.19.46-.04.05-.05.04-.13-.01-.15-.1-.32-.12-.35-.11-.01 0-.01.02-.01.04s0 .05-.01.08c-.02.05-.07.08-.09.13 0 .01-.01.03-.02.04 0 .04.03.06.12.12.04.02.08.06.11.09Zm-1.04-.8c.11 0 .47-.12.43-.32-.03-.12-.28-.19-.42-.22-.12-.03-.12-.03-.14-.06.05-.03.06-.04.33-.09.25-.05.3-.07.27-.19-.06-.1-.11-.21-.17-.31l.2-.37c-.06-.11-.12-.22-.18-.32.03-.1.09-.25.08-.3v-.02h-.02c-.12.07-.28.31-.46.72-.11.25-.15.3-.22.34l-.2.29.1.46.3.03c.02.09.02.24.1.29 0 0 .01.01.01.02v.03Zm-.01.82-.04-.32v-.02l-.18-.13c-.07.07-.17.16-.24.23.03.05.16.14.24.18.08.05.19.09.22.05Zm.19.38-.18-.17-.01.25.17.05zm.21.98c.03.09.14.13.14.13.16.05.09-.22.05-.29-.03-.07-.08-.11-.11-.15-.03-.03-.04-.04-.04-.06l-.28-.08c.08.15.16.3.24.44Zm3.73-7.34c.15-.06.29-.13.44-.19-.04-.07-.09-.15-.13-.22-.1-.05-.24-.11-.34-.15h-.02c-.01 0-.04 0-.09-.02h-.02c-.04 0-.08.02-.11.07-.02.03-.02.04-.05.04-.04 0-.1-.04-.18-.1-.07-.05-.07-.05-.09-.05-.01.02.18.29.31.43.15.15.24.18.28.19m-3.73 20.34c2.06.01 2.22.2 2.3.29-.16.46-.51.83-.69 1.28-.18.44-.59 1.46-.22 1.81q.14.13 1.45.23c.39.03.62.39.97.5.05.02.13.04.18.05.1.03.24.01.34-.02.17-.06.51-.36.07-1.94-.24-.84-.18-.86.79-1.21 1.02-.37 1.6-.97 1.85-1.23.26-.26.63-.27.94-.4.03-.1.04-.11 0-.22-.17-.63-.41-.9-.62-1.14-.09-.1-.11-.13-.07-.63.04-.44.05-.59-.05-.96-.03-.1-.09-.22-.14-.31q-.26-.51-.03-1.16c.09-.27-.36-.23-.39-.46-.04-.29.13-.56.04-.85l-.89-1.27c-.35-.33-.82-.49-1.03-.56l-1.44.31-.21-.27-.24-.17-.47.06-.3.34c-.04.13-.1.31-.14.44-.19-.05-.64-.17-.95.58l-.15.46c.08.07.19.16.28.24-.09.13-.24.2-.31.35.21.16.5.07.71.22-.51.79-.99 1.35-1.41 1.66-.45.33-1.02.27-1.5.48-.98.42 1.44 1.78 1.47 1.79.41.16.77.3-.14 1.71m-30.74-23.27c.18.03.42.11.6.11.39 0 .63-.36.98-.45.38-.1.55.42.93.31q.93-.28 1.19-1.07.14-.06.54.11l.59-1.16c-.14-.07-.31-.1-.44-.2.13-.21.99-.66 1.48-.73.73-.1 1.43-1.1 1.43-1.11.2-.32.1-.75.41-1.02q.62-.52.75-.99c.02-.08.13-.53-.29-1.02.06-.01.13-.03.18-.04.52-.11.58-.5.19-1.17q-.21-.35-.02-1.42c.05-.3-.21-.26-.51-.21-.33.06-1.12.19-1.65-.57l-.26-.62c-.85-.3-1.24-.31-1.46.4-.13.43-.35.53-.44.53-.31-.01-.17-.41-.36-.56-1.43.42-1.38 1.16-1.09 1.71q-.07.2-1.12.26c-.49.03-.2.66-.38.97-.03 0-.07.01-.11.01q-1.15-1.02-1.39-.92c-.27.12-.91.72-.62.95.39.31.32.69.32.7-.07.22-.56.48-.8.32-.4-.27-.08-.73-.28-1.05-.84.68-.6 1.4-.6 1.4.53 1-.55 2.1-.67 2.23-.03 0-.07-.02-.11-.03-.33-.65-.14-1.44-.57-2.05-.01-.01-1.25-1.37-1.72-1.25-.57.39-.57.41-.39 1.56-.4.38-1.06.29-1.41.76q-.05.07.28.76c.23.48-.56.52-.67.9q.2.16.22.28c.15 0 .71-.03 1.49-.91q.11-.12.76-.21c.26-.04.25-.39.5-.44.01 0 .25-.05.48.29q-.25.65.07 1.03c-.06.17-.26.48-.86.55-.76.09-1.39.76-1.39.76.05.14.11.27.21.41q2.14-.11 2.44-.29t.29-.09c.29.42.93.19 1.21.64-.14.57-.25.61-.49.69-.4.14-.34.3-.31.38.07.03.16.06.24.08-.36.21-.79.16-1.18.31-.01.03-.04.07-.05.11-.02.12.15.68.4.84l.97.45s.3.03.48-.1c-.16-.52.51-.59.71-.92q-.23-.03-.29-.06.72-.38 1.57-.14Zm61.91 2.28c.08.15.22.26.33.38l.06.06c.07.06.16.11.35.16.62.15.91.05.96.02.13-.06.12-.21-.02-.45a.76.76 0 0 0-.25-.27s-.65-.38-.8-.45l-.46.03q-.2.44-.16.52Zm3.65-.02c-.05.03-.07.05-.08.09l-.23.33h-.51l.02.34c.09.04.2.1.29.12h.06c.15-.04.25-.15.38-.21.09-.04.17-.05.17-.05.18 0 .35-.05.53-.07.04 0 .09.01.13 0h.03c.08-.04.17-.18.11-.31-.09-.2-.59-.33-.9-.24m-1.02-1.85s-.1.02-.17.03q-.22.02-.27-.02c-.16-.12-.22-.31-.36-.44-.22-.21-.28-.18-.32-.12-.01.02-.02.05-.03.07-.02.08-.05.73-.04.74.06.13.21.13.29.22.02.02.01.08.02.11 0 .02.56.76.56.77l.06.06s.04.03.1.02c.24-.01.29-.28.48-.37.07-.03.11.01.13.04.41.53.95.21.96.21l-.27-.39c-.05-.24.38-.47.13-.66-.16-.12-.39-.02-.54-.16-.06-.06.03-.19.09-.28.09-.14.13-.21.09-.3-.05-.14-.69-.66-.73-.67-.1-.04-.42-.17-.86.02-.21.11-.19.17.1.35.88.55.59.76.58.76Zm4.26 1.31s-.02-.03-.04-.04c-.05-.03-.14.01-.18.03-.03.02-.31.16-.29.27l.32.26c-.06.05-.09.08-.09.1-.03.05-.02.08.02.1.06.02.12 0 .17.02.04 0 .07.04.11.05h.1c.17-.07.34-.15.51-.22l-.38-.32c-.09-.07-.25-.13-.27-.23Zm1.45-1.97.59.02-.1-.4c-.2-.11-.46-.3-.67-.38a.62.62 0 0 0-.39-.02s-.02 0-.03.01c-.11.07-.03.21.19.48.18.23.32.26.41.28Zm1.33-9.14c-.06-.13-.18-.11-.24-.09-.06.03-.09.06-.13.14-.15.06-.3.13-.45.19q.11.66.05.73c-.05.06-.13.16-.1.23.02.04.04.1.24.17.35.12.58.21.69.38.04.07.06.09-.04.29-.02.05-.07.15-.05.17 0 0 0 .01.01.02.05.03.74-.18.74-.34 0-.08-.04-.15-.1-.24-.15-.22-.37-.38-.53-.59-.06-.09-.06-.21-.12-.29l-.06-.06q-.2-.14-.19-.17c.05-.2.4-.28.27-.54Zm-.08-.51c.08-.02.12-.1.19-.13.09-.04.18-.05.26-.1.04-.02.05-.03.06-.05.03-.03.04-.11-.06-.25 0-.01-.02-.03-.03-.04l-.7.14c.1.12.2.25.3.38 0 .01-.02.02-.02.04Zm2.21-3.5s.17.11.29.17c.27.14.31.17.4.26.11.13.21.26.32.38.26-.03.37-.14.4-.22.03-.12-.01-.22-.1-.35-.13-.21-.25-.38-.23-.55.02-.25.38-.23.39-.49v-.09s-.09-.43-.66-.2c-.07.03-.2.1-.31.18-.11.09-.12.11-.14.16 0 .01 0 .03-.02.04-.07.06-.17.09-.23.16-.03.03-.07.07-.07.11s.03.09.02.13c-.02.08-.1.12-.1.2 0 .03.02.08.04.1Zm.1-1.52c.03-.15.05-.33.03-.37-.04 0-.04.05-.08.07-.1.04-.26 0-.49-.06-.17-.04-.18-.04-.2-.04l-.02.32c.09.1.17.2.26.3.08-.03.17-.06.25-.09.1-.04.19-.09.25-.13m-8.01-1.58c.05.19.09.19.11.19.04 0 .09-.05.14-.1.04-.05.09-.09.13-.11.17-.1.28 0 .34.05.09.09.26.25.43.23.12-.01.22-.08.28-.21-.11-.04-.27-.1-.38-.15 0-.01 0-.03-.01-.04 0-.1-.02-.24-.09-.36-.06-.1-.13-.15-.26-.18-.03 0-.64-.07-.71-.04-.03.02-.07.06.07.22v.19c-.06.05-.08.17-.04.3Zm-26.4-17.98c-.16-.15-.4-.38-.53-.36-.09.11.26.66.26.67 0 0 .71.87.87.95.23.13.3-.22.23-.39q.17-.51.15-.67c-.02-.16-.03-.26-.31-.55-.17-.19-.29-.21-.34-.21-.04 0-.14 0 .02.3.06.11.2.37 0 .47-.08.04-.14-.01-.36-.21Zm-.22 1.72h.13c.15 0 .32-.03 0-.38-.03-.04-.1-.1-.13-.09v.01s0 .03-.03.11c0 0-.07.18-.11.25 0 .01-.02.03-.02.04.03.01.05 0 .08 0s.06.02.1.03Zm-.41.42c-.08.04-.14.12-.15.15-.01.04 0 .06.01.08.03.04.07.06.11.09.05.05.06.12.11.16.04.03.09.03.16 0l.03-.12c.02-.08.03-.19.05-.27-.19-.1-.25-.13-.36-.1Zm-.36 1.01c-.06-.06-.11-.12-.17-.18l-.05.27c.07.07.14.15.22.22l.15.17.18-.2-.32-.3Zm.22-.47-.27.03c.08.08.16.16.24.25l.21-.09c-.06-.06-.12-.13-.18-.19m.66 1.48c-.05-.05-.1-.1-.15-.16-.05 0-.08 0-.18-.02-.08-.02-.1-.02-.13-.01-.02.01-.01.03.02.07.07.07.14.14.2.21.07-.03.15-.06.22-.1Zm-.53-3.48q-.04-.25-.03-.32s0-.07 0-.09-.22-.37-.22-.37c-.03-.04-.04-.05-.06-.05-.02.01-.08.26-.08.26 0 .03.02.1.04.15l-.46-.06c0 .09-.04.22 0 .3v.04c0 .04-.03.08-.02.12.02.14.4-.02.48-.11l.14.14h.22Zm-.43-1.64c-.1-.14-.12-.39-.17-.56-.03-.01-.04-.01-.06 0-.03.02-.08.05-.1.25 0 .1 0 .92.27.7 0 0 .01.12.09.18.09.07.25.03.24-.01l.04-.33-.31-.24Zm1.14-1.15s-.08-.18-.35-.35c-.09-.06-.09-.06-.12-.1-.02-.02-.02-.05-.03-.07-.03-.08-.28-.2-.47-.16-.05.02-.1.05.25.46.09.11.15.18.16.21v.03c-.02.02-.06.02-.08.04-.27.22.13.42.25.43q.39-.45.39-.5Zm.39 1.18c-.02-.13-.02-.18-.07-.23-.11-.12-.49-.1-.56-.07-.06.03-.06.07.01.16l.3.15h.32Zm-.12-3.57s-.09-.1-.24-.05c-.02 0-.1.06-.11.1 0 .04-.04.08-.15.21l.4.16s.12.02.16.03.11.03.16.03c.09 0 .09-.03.08-.06 0-.01-.02-.03-.02-.04-.07-.09-.17-.16-.23-.26-.04-.05-.03-.07-.03-.09 0 0 0-.02-.02-.04Zm-1.03-.23c-.01.06-.06.1-.08.16-.01.04-.01.05-.01.09.01.08.18.12.21.12.25.03-.02-.49-.04-.52-.02-.02-.03-.02-.04-.02l-.05.17Zm1.19-.09c.07 0 .38-.11.39-.11.06-.03.07-.05.04-.09s-.23-.15-.33-.18c-.09-.03-.18-.04-.26-.07-.11-.04-.22-.11-.33-.15-.1-.03-.14-.01-.18 0-.02 0-.04.02-.05.03-.03.03-.09.07.03.16q.05.04.34.19c.09.05.17.12.26.17.03.02.07.04.11.04Zm.8-.44c.07 0 .14.03.21.03h.03c.03 0 .05 0 0-.05-.04-.04-.21-.16-.34-.22a3 3 0 0 0-.17-.06c-.05-.02-.09-.05-.13-.07 0 0-.02 0-.03-.01-.07-.02-.11 0-.13 0-.06.03-.07.07-.05.16.08.07.16.13.23.2.11 0 .26.01.37.02Zm.75-1.82v.17c.15.01.34.03.48.05.04.06.07.08.09.08.06 0 .12-.11-.05-.25-.02-.02-.04-.03-.07-.05l-.08-.03c-.03-.01-.05-.03-.08-.05 0 0-.02 0-.03-.01-.05-.02-.1 0-.13.02-.05.02-.08.04-.13.08Zm-.92-.58h-.03s-.02.02-.03.02-.02.01-.03.02c-.01 0-.03.01-.04.02-.02 0-.03.01-.05.02-.02 0-.04.02-.06.03-.04.02-.1.05-.11.08-.02.06 0 .24 0 .25.05-.03.05-.09.08-.13.06-.1.12-.14.2-.15.19-.02.28.15.42.21.15.06.24-.02.25-.07 0-.03-.02-.09-.05-.11-.07-.06-.09-.08-.09-.2 0-.19.08-.38.06-.57v-.02s-.02-.02-.05-.01c-.09.07-.11.18-.18.27-.02.03-.06.06-.08.09 0 0-.02.02-.02.03 0 .03 0 .05.03.09q.04.06.06.12l-.28.04Zm1.26.35c.08.03.19.06.27.09.05-.03.06-.09.03-.15-.04-.07-.1-.12-.15-.18-.04-.05-.08-.11-.13-.17 0-.01-.02-.03-.03-.04-.04-.04-.06-.03-.08-.03-.1.04-.13.08-.15.28.08.06.16.13.24.19Zm-.51-1.81-.12-.22c-.07.05-.17.12-.25.17.09.27.37.06.37.05m.88-1.06-.17-.03c-.11.05-.23.09-.33.16-.06.04-.06.06-.05.07l.31.12c.1-.04.19-.08.29-.12l-.04-.19Zm-.84.43-.04.11.19.04.19-.13s-.04-.03-.34-.02m28.3-7.03q.09-.14-.09-.25c-.67-.4-1.18-.48-1.24-.49h-.13c-.12 0-.23.04-.34.04-.21 0-.41-.05-.61-.05h-.11c-.26.01-.4.06-.47.09-.1.05-.15.09-.12.17 0 0 .23.31.32.37.14.1.32.15.47.25.16.1.3.23.47.31.14.07.23.11.47.15.19.03.22.04.3.09l.39.15q.48.21.61.15c.34-.16.14-.61.13-.62 0 0-.24-.27-.69-.54-.27-.16-.27-.17-.3-.2.13.03.31.14.43.21.36.21.37.21.47.19Zm1.45-5.83c-.41.05-.75-.18-1.13-.25-.43-.08-.85-.19-1.28-.24-.18-.02-.5 0-.82.11.04.14.28.17.57.2.59.07.66.1.7.12-.17.17-.45-.01-.61.18 0 .01.03.02.04.03.23.07.47.07.7.11.38.07.68.35 1.06.43q.05.01.38-.12c-.22-.12-.47-.17-.67-.31v-.03s.93.05 1.95.48c.12.05.23.1.28.09 0 0 .21-.03.03-.26v-.03c.2-.04.37.09.56.1l-1.12-.56q-.23-.11-.65-.06Zm1.85 1.34c.37.08.86.16.94.12.03-.01-.02-.05-.05-.06-.18-.09-.62-.18-1.24-.26l-.07.02q.23.15.41.19Zm-1.15-.26s-.01.01 0 .02l.39.18c.07 0 .17 0 .24-.01 0 0-.01 0-.02-.01-.09-.05-.52-.21-.61-.18m3.07.58c-.13-.03-.31-.08-.44-.11.02.04-.06.02-.09.03s.47.13.52.12q.045 0 0-.03Zm-37.38-11.3q1.49.39 1.4.88c-.05.24 0 .27.28.47-.08.03-.18.06-.26.09 0 .04-.01.09-.02.13q2.16.98 4.32 1.71c-.15.09-.34.12-.48.25.48.21.65.28.95.6q-.45-.04-.68 0c5.11 1.05 5.49 1.27 6.19 1.67 0 .04.01.1.02.14-.03.03-.06.07-.09.09.17.33.98.63 1.38.18v-.16c.16.22.35.6.61.66.34.07.75.17.77.18 0 0 1.84 1.09 1.87 1.11.73.44 1.73-.17 2.37.6-.04.13-.14.25-.14.39.45.15.83.45 1.3.56.02.04.05.09.07.12-.02.04-.05.08-.07.12.3.45 3.36.94 3.76.71-.52-.25-.55-.29-.7-.48.02 0 1.99-.45 2.39.52-.04 0-.09.02-.13.02q2.77.06 3.09.14t.57.05q-.61-.3-.71-.48c.58-.22 1.14.17 1.71.09-.2-.35-1.63-1.11-2.26-.95-.49.13-7.53-1.88-9.33-2.55l-5.86-2.21c-1.13-.51-2.18-1.17-3.28-1.73l-2.65-.96c-1.24-.44-1.15-.77-1.12-.89-.42-.61-1.27-.14-1.71-.68.02-.04.06-.09.08-.12-.23-.53-1.43-.75-3.09-1.07-.48-.09-.85-.16-2.55.13.08.14 2 .68 2.02.69Zm18.77 1.36c.14.1.32.11.47.19l-.04.18.66.18h.34l.57.15c.12.03.24.07.37.1l.15-.06h.03c-.04 0-.06-.02-.07-.02-.04-.03 0-.13.11-.16l-.07-.07-.15-.1c-.1-.05-.23-.11-.33-.16l-.11-.06c-.06-.02-.13-.03-.19-.06-.02-.01-.05-.03-.08-.04-.02 0-.06-.02-.99-.11q-.61-.07-.63-.06s-.1.05-.04.09Zm3.12-.6s-.08.03-.12.05l.5.15c.16.04.36.12.52.14.15.02.3 0 .44 0 .04-.02.07-.03.11-.05l-.7-.13-.24-.08-.52-.09Zm-2.62-.72c.09.07.18.14.54.28.08.03.11.02.11.02s.12-.09.1-.13l-.09-.09-.22-.03-.26-.1-.33-.02.14.06Zm2.29.21h-.32s-.03.02-.03.03c0 .09.42.11.55.09.08 0 .11-.02.12-.03.02-.02 0-.04 0-.05.01-.05.06-.05.09-.08h-.07c-.12.02-.19.02-.33.02Zm3.24-.27s-.02-.01-.03-.01c-.31-.1-2.07-.39-2.14-.4l-.35-.04h-.17q-.22-.03-.24-.03s0 .01 0 .02q.05.05.86.24c.2.05.4.14.61.19l.22.02.23.03-.06.02h.55l-.23-.03c.19 0 .38.01.57.02.16 0 .16 0 .18-.02Zm2.08.99q-.36-.16-.42-.2s-.06-.04-.18-.09c0 0-.55-.25-.62-.27-.08-.02-.13-.03-.4-.04-.07 0-.15-.03-.22 0l-.01.01c0 .12 1.36.63 1.83.66l.02-.06Zm-10.5-3.17s.74.18.79.15c0-.03-.29-.11-.45-.15-.04 0-.27-.02-.33 0Zm.19.24.45.06s.06-.03.09-.04c-.04-.01-.09-.03-.13-.03l-.39-.06v.08Zm.73-.27s.11.03.16.04c.11.01.45.02.41-.04.02 0 .04-.02.02-.03-.05-.02-.49-.01-.59.02h-.01Zm-.89-.48q.22.11.36.13c.16.02.34-.02.35-.03l-.05-.02s-.53-.09-.66-.07Zm1.1.02.13.05.48.06.06-.03a4 4 0 0 0-.68-.08Zm-3.38.95s-.09-.01-.13-.01c-.18-.01-.35-.02-.53-.04-.02 0-.04.02-.06.03.21.07.59.15.74.07.02-.01.03-.03-.02-.04Zm-4.85-.84s.04-.02.07-.03h.2s.06-.01.09-.03c-.13-.02-.89-.13-.98-.14q-.37-.03-.86-.12c-.17-.03-.23 0-.27 0 0 0-.01 0-.02.01l1.37.24.41.06Zm-3.92-.67c-.16-.02-.23 0-.27.02-.03.02-.07.03-.07.05 0 .06.74.14.81.09.01-.08-.47-.16-.47-.16m.18.31s-.08 0-.12.02c0 0 .02.01.1.02h.05c.08 0 .17-.01.25-.02.08 0 .15.02.23.02 0 0 .17-.03.19-.04 0 0 0-.01-.08-.02 0 0-.3-.04-.43-.03h-.09c-.03 0-.05.03-.08.03Zm-4.17-2.21c.11.04.17.04.27.05.63.1.86.01.86.01.02-.01 0-.03 0-.03-.02-.01-.05-.01-.08-.02l.2-.02c-.09-.02-.17-.02-.26-.02-.23-.01-.74-.03-.89-.02.11.03.23-.02.33.04-.08.02-.16 0-.24 0h-.19Zm-1.87 0c-.42-.01-.46 0-.48 0 0 0 0 .02.11.02l.53.03s.04-.02.07-.03h.28c-.04-.03-.18-.03-.5-.04Zm-.22.12q.07.05.2.06c.25.02.39-.02.39-.02l-.35-.05h-.25Zm-2.71-.09h-.57l-.78-.02c.02.01.03.03 1.05.1l.73.03-.07-.03c-.05-.01-.12-.02-.17-.04h.22a.3.3 0 0 0-.09-.02zm1.2-.16c-.06 0-.31 0-.37.01s.16.03.25.04c.1 0 .24-.02.35-.02-.1-.03-.11-.03-.22-.03Zm.51 0h.99l-.22-.01c-.46-.01-.73 0-.77 0Zm-8.66.13c-.81-.06-1.62.15-2.44.05h.06c-.83-.05-1.25-.07-4.51.19-1.14.09-2.89.41-3.02.46.28-.02.56-.08.85-.05-1.13.19-2.29.17-3.42.4l12.49-1.05Zm-6.71.91c-.16-.01-.32 0-.48-.01.08-.02.16-.03.24-.05q.06-.03.15-.06c.42-.09.85-.07 1.27-.18q-1.1-.02-1.64.02c-2.6.19-7.67.88-8.36 1.05 2.51-.32 3.27-.41 3.46-.36-1.06.11-3.26.34-3.9.5.03 0 8.67-.73 9.27-.9Zm-3.49.53c-.12-.01-.7 0-.86.02-.02 0-1.8.13-2.25.28.44.03.64.02.76 0 0 0 .87-.13 1.06-.16.4-.06.8-.07 1.19-.1.03-.01.06-.03.09-.04Zm-4.9.55c.43-.08.91.09 1.28-.26-.44-.03-3.2.27-3.23.28-.03 0-4.37.67-6.82 1.22l9.66-1.29c-.3.01-.6.09-.9.04Zm-8.32 14.49c.54.08.87.54 1.33.76.05.02.11.04.16.05.24.06.47-.07.71 0 .6.17 1.09.66 1.76.67 0 0 .73 0 .88-.41 0 0 .1-.26.06-.31-.13-.19-.38-.22-.53-.39.07-.15 1.13-.44 1.33-.42.31.45-.27.73-.23 1.13q.07.7.87.6c.37-.05.63-.4 1.04-.35.21.03.66.42.73.58-.3.3-.77.21-1.09.47q1.48.4 1.6.41c.66.01.88.04 1.06.1.22.07.16.39.41.44.17.03.22-.04.3-.22.13-.28.2-.39.53 0 .4.47 1.89.67 1.91.67 0 0 .55 0 .68-.12-.07-.09-.11-.1-.54-.29-.85-.37-1.23-.67-1.51-1.22-.09-.18-.13-.25-.44-.42-.69-.37-1.5-.47-2.15-.92-.3-.21-.4-.61-.76-.76-.91-.38-1.33-.6-1.31-.94.09-.07.2-.16.29-.23v-.12c-.61-.5-7.56-.96-7.61-.95 0 .01-.01.02-.01.03 0 0 1.61.74 3.15 1.12.74.19.76.2.87.35-.01.02-.03.04-.04.06-.01 0-1.27.02-1.65-.38-.24-.25-1.62-.55-2-.3.03.12.04.16.91.47q.2.07.31.13-1.23.02-1.49-.24c-.23-.22-.65-.64-1.04-.3-.55.48-.2.92.2 1.2.43.3.88-.03 1.31.04Zm8.25-.81c.22.04.42-.08.62-.12h.06s.23-.09.19-.21c-.04-.11-.25-.24-.38-.32a.67.67 0 0 0-.55-.06c-.13.07-.15.14-.07.24-.26.01-.45.05-.48.1-.04.07.4.33.61.37m3.38 1.26.3.1c.82.24 1.08.07 1.18 0 0-.02 0-.03.01-.05-.07-.09-.18-.12-.23-.22-.02-.04-.01-.11.02-.14.18-.18.39-.24.57-.16.07.03.11.03.14.02.07-.02.3-.07-1.06-.97-.11-.07-.23-.11-.43-.15 0 0-.36-.07-.48.05-.02.02-.08.08-.21.09-.19.01-.37-.1-.47-.16 0 0-.67-.38-1.03-.32h-.01c-.11.08.01.2-.01.3-.02.09-.1.15-.12.25V90l.54.12c.27.05.29.2.29.22l-.26.23v.04c.12.09.19.11.67.18.22.03.35.06.38.09.02.02.03.07.03.1 0 .08.18.3.21.32Zm-10.36-3.3c.2.02.84-.07 1.13-.24q.31-.18.35-.19c.33-.06.17.19-.2.78 0 .01 0 .02.01.04.33-.06.62-.23.96-.24q.15 0 .63.2c.32.14 1.08.04 1.21-.12-.02-.25-.21-.41-.32-.61 0-.01.01-.03.02-.04.02 0 .07 0 .15.05.8.38 1.7.27 1.7.27 0-.01 0-.03.01-.04-.09-.08-.22-.1-.3-.19.03-.09.2-.14.12-.25-.06-.08-.17-.1-.24-.18-.1-.12-.14-.28-.25-.4-.02-.03-.06-.06-.09-.09 0 0-.12-.1-.36-.2-.73-.31-2.34-.38-2.81-.39-.33-.01-.6.17-.91.24s-.63-.03-.94 0v.02c.08.08.68.39 1.24.59.32.12.33.13.35.24-.07.07-.22.03-.76-.16-.24-.08-.61-.21-.81-.12 0 .08.07.11.11.16v.04c-.07.04-.54.12-1.04.04-.43-.07-.55-.09-.61-.02.08.12.82.69 1.63.79Zm8.06-.13s.11.15.32.2c.14.03.29.01.43.03.16.02.33.06.49.08h.13c.07-.03-.28-.24-.44-.31-.3-.13-.51-.09-.94 0Zm-5.78 5.38c.15.05.17.03.18.02v-.08c0-.02-.05-.04-.22-.11-.22-.09-.37-.15-.54-.24-.15-.08-.28-.2-.43-.28-.02 0-.04-.02-.05-.03-.03-.02-.14-.06-.24-.09-.68-.2-1.27-.14-1.38-.1-.01 0-.02.02-.02.03 0 0 .02.02.07.04.34.11.7.15 1.04.26.54.17 1.06.4 1.6.57Zm3.01-11.38q.75.02.85 0c.06-.01.16-.04.26-.04h.21c.16-.02.19-.07.16-.11.12 0 .29-.02.42-.03q-.11-.04-1.03-.08s-1.21-.09-.93-.33q.85-.09.86-.11s-.13-.05-.15-.06c-.28-.06-.74 0-.87.04-.07-.05-.25-.02-.55.11-.03.02-.08.03-.11.05-.21.11-.13.14-.05.16q.37.13.37.21c0 .07.01.18.57.22Z" class="cls-4"/><path d="M412.49 81.27c-.5 0-.78-.1-.78-.1.05-.07.15-.07.2-.13-.33-.15-.67.08-1-.03-.13-.05-.15-.22-.3-.25-.1-.02-.2-.04-.3-.05-.21-.03-1.02-.07-1.27-.01.04.03.08.03.12.05-.24-.02-.31-.02-.42 0 0 0-.02.02-.03.02.08.1.46.15.46.15 1.18.1 1.54.31 1.54.31-.22.14-.49.03-.72.13l.65.05c.63-.05.92-.07 1.08 0-.15.13-.35.05-.51.13.07.03 1.42.14 1.44.14 0 0 .89.01 1.05-.05-.1-.18-.31-.07-.44-.16.23 0 .45.11.69.04 0 0-.72-.25-1.47-.25Zm1.24-.18s-.64-.09-.62 0c-.01.02-.05.03-.2.03-.16 0-.31-.02-.47-.02 0 0 1.51.15 1.61.08 0-.04-.22-.07-.31-.09Zm1.53-.09h-.07c-.19-.01-.39 0-.58 0-.02 0-.04 0-.06-.01-.04-.01-.15-.04-.4-.05-.06 0-.37-.02-.47 0 .02.01.08.02.28.04.15.02.4.04.47.06-.06.02-.12.01-.18.04.04.02.11.03.14.04 0 0 .46.06.49.06 0 0 .16 0 .2-.03.03-.02.02-.03.02-.03-.01-.02-.05-.01-.06-.03.07-.04.16-.02.23-.07Zm-7.93-.28-.05-.07h-.5c-.02 0-.04.02-.05.02l.12.03.29.02zm6.47-.28c-.4-.05-.83.02-.85.03l-.02.02c.02.03.11.04.13.05.12.01.23.01.38 0 .17 0 .32.05.49.06.15 0 .28.02.35-.03.04-.03.03-.06 0-.07-.06-.02-.08-.02-.16-.02-.11 0-.22-.03-.33-.04Zm-.82-.32c.07.02.15.02.22.02.05 0 .11 0 .16.01.04.03.42.04.49.02 0-.02.02-.04.03-.06-.02-.01-.05-.01-.07-.01-.2-.02-.77 0-.82 0Zm.33.16s.05.02.24.03c.17 0 .34.03.51.02s-.16-.03-.26-.04c-.39-.04-.49-.01-.49-.01m-1.74.08.39.02s.03-.01.04-.02h-.03c-.25-.02-.54-.03-.6-.03l.19.04Zm3.18-.45c-.16-.02-.46-.02-.56-.02-.16 0-.16 0-.18-.01-.03-.01-.53-.08-.68-.04 0 0-.12.06-.13.1h.01c-.02.02-.05 0-.07.03.03 0 .16.02.41.01.17 0 .33.05.49.06h.56s.32 0 .34-.04c0 0-.08-.07-.21-.08Zm-2.46.09s-.04.02-.04.03h.33c.26-.04.31-.04.33-.06 0 0 .02-.02-.05-.03-.01 0-.35-.04-.57.05Zm-.08.16s.03.01.04.02c.11 0 .22.02.33.03h.31l-.34-.06c-.04 0-.26-.01-.33 0Zm-.77.03c-.02.02.05.05.28.06.14 0 .27.02.41 0 0-.02-.33-.06-.42-.07-.09 0-.21-.02-.26 0Zm3.54-.45s-.06-.02-.26 0c-.1-.02-.2-.05-.31-.06-.17-.02-.35 0-.52-.05-.06-.01-.07-.09-.12-.12 0 0-.42 0-.44.03 0 .06-.6.1-.61.1-.1 0-.21 0-.31.03q.04.08 1.81.13c.53.01.73.02.76-.06m.77-.13c.09 0 .17-.02.26-.02.06 0 .12.02.18.02h.05c.01 0 .03 0 .04-.01.03-.02.05-.05.08-.06.03-.02.06-.02.09-.03.01 0 .03-.02.04-.03h-.03c-.07-.01-1.29-.07-1.4-.03s.11.05.16.07c0 .02.24.13.53.13Zm.95 0s-.19 0-.29.04c0 0-.02 0-.02.01l.12.03.3-.04s-.07-.04-.1-.04Zm-7.03-.46c.19.07.39-.05.58.04-.06.02-.13 0-.18.06.13.04.28-.09.4.03-.06.02-.12.02-.19.03v.02c.17.04 2.11.09 2.13.09.34 0 .91-.07.93-.08v-.01c-.08-.02-.16-.02-.23-.07s-.1-.13-.19-.14h-.24c-1.33.12-1.81.04-1.81.04v-.06c-.08-.06-1.19.03-1.2.03Zm-.73.07c-.33-.01-.58.05-.58.05-.02.02-.06.04-.08.07v.01h.32c.09 0 .18.02.28.02.03 0 .61 0 .67-.01-.01 0-.03 0-.04-.02.04-.02.09 0 .13-.04.04-.03-.03-.06-.08-.06-.2-.02-.41-.01-.61-.02Zm.05-.32c-.07 0-.12-.05-.19-.06 0 0-2.25.15-2.37.16l1.07.07c.71 0 1.41 0 2.12-.03 0 0 .81-.05.87-.08-.05-.07-.86-.07-.87-.07h-.63Zm2.24.94c-.3-.02-.39.01-.42.02-.14.06-.14.07-.14.08 0 0 .01.01.05.02.11 0 .22.01.33.02.44-.01.5-.05.51-.06.01 0 .03-.04-.06-.05-.09 0-.18-.02-.27-.03m-1.79.27s-.01 0-.01.01c.01.02.16.08.3.09.09 0 .14 0 .35-.03.05-.02.1-.04.15-.07.2.02.33.03.4-.02h.01c-.07-.03-.15-.1-.22-.1 0 0-.72.02-.97.12Zm2.53-.41c-.13 0-.27 0-.4-.01v.04c.09 0 .18.03.27.02.1 0 .16-.03.17-.04 0-.02-.02 0-.04 0Zm-3.07.34q.47-.04.53-.06c.13-.04.13-.04.25-.03.2.01.24 0 .26 0l.07-.03c.09-.03.2-.07.29-.07.02 0 .22 0 .26-.03.09-.06-.13-.09-.16-.1-.33-.04-1.92.21-2.42.38 0 0 .91.09.97-.06-.01 0-.03 0-.04-.01Zm.62-.33c-.07-.01-.15-.03-.22-.04h-.14c-.04 0-.07.03-.1.04-.27.07-.54.03-.81.06 0 0-.27.04-.32.05v.02c0 .01-.02.02-.03.03.09.04.42-.03.49-.07l.69-.03c.12 0 .27 0 .45-.05Zm-2.17.12c-.11-.01-.21 0-.32-.02-.15-.02-.3-.06-.45-.07h-.21c0 .02.02.03.04.04l-.17.04s-.06.03-.09.04c.33.1.38.07.43.05.14-.06.77-.04.77-.04-.03.01-.07 0-.1.03.05.03 0 .08.02.12.1 0 .2-.04.3-.05.03-.03.06-.08.09-.11-.1-.02-.2-.04-.3-.05Zm-1.33-.04c-.14-.03-.27-.02-.41-.02-.1 0-.2-.02-.31-.03h-.03c-.08.02-.16.05-.24.07s-.16.02-.24.03h-.01s.05.03.26.04c.06 0 .63.02.66 0-.03 0-.05-.01-.08-.01-.05 0-.05 0-.06-.01.15-.04.31 0 .46-.06Zm-2.1.02c.07-.01.15 0 .22-.02-.03-.01-.06 0-.09 0h-.32c-.06-.01-.14-.04-.2-.04-.07 0-.6.03-.72.07v.01c.45.14 1.12-.02 1.13-.02h-.01Zm2.07-.19c-.36 0-.66.04-.68.05.03.02.32.01.4.01.31-.01.61-.03.65-.04-.03 0-.21-.02-.37-.02m2.03.01c-.13.03-.26.03-.4.05-.04 0-.07.01-.11.02.07 0 .67-.04.67-.04.07 0 .14-.04.22-.03.3.01.45-.03.45-.03-.11-.06-.28-.06-.34-.07h-.18c-.11.02-.21.07-.32.09Zm1.79.04s.57-.05.58-.08c-.02-.01-.15-.02-.23-.02-.21 0-.53 0-.58.01-.12.04-.24.02-.36.05h.01c.14.01.28.01.42.01.05 0 .1.03.15.03Zm-46.78 17.85c-.9.79-.95 2.47-2.6 2.48q-2.2 2.81-2.11 3.49-7.39 6.68-7.65 6.8c-.13.83.17 1.74-.4 2.5.03.11.07.25.11.35.75-.21 1.37-.82 2.21-.72-1.69 1.83-2.08 1.79-2.57 1.57-.49.21-1.69 1.9-1.7 1.92.16.19.41.42.6.58q-.68 1.36-.32 2.52c-.46.44-.41.51 0 1.07 1.1-1.74 5.37-2.35 5.41-2.35 1.01 1.54-.65 3.28.35 4.82-.05.51-.09 1.02-.15 1.54-.11 0-.26.01-.38.02-.13.44-.16.54.26 1.63 0 .02-1.12 3.3-1.36 4.33.16.22.41.5.61.69l-1.62 4.32c1.62 1.05 2.64-.75 4.01-.87.05.1.11.24.16.35-.26.69-.26.7-.75 1.45.06.24.05.59 0 .83-.9.61-2.3.26-2.88 1.48-.29.61-1.67 3.72-.38 5.36.45-.02.65-.03 1.76-.89q.37.08.93 3.66c-1.21.94-3.74 2.88-3.48 5.86 0 .05.67 5.13 1.09 5.78.42.64 1.26.96 1.34 1.84.12 1.21-.98 2.12-.85 3.33.01.11.07.26.11.37.78 2.54 2.84 4.35 3.88 6.74 1.66.55 3.37-.78 5.02.1 0 .12-.03.27-.03.39.05.92 2.32 1.47 3.08.74l2.07-13.88s.26-1.08.87-2.96c.9-1.72 2.52-2.91 3.43-4.62.34-.63.21-1.62.15-2.05q-.11-.88.15-1.28c.91.11 1.3.96 1.95 1.42q2.08-.36 1.32-3.43c1.32-.97 3.25-.7 4.35-2.14-.37-1.58-.5-3.2-.9-4.78.09.05.22.13.32.18 6.36-3.34 8.27-4.35 11.85-9.63-1.87-.31-3.3 1.72-5.25.99 0 0-.86-3.25-.86-3.28.84.33.94.49 1.76 1.79h.48c1.14-1.51-.78-2.57-.91-3.91.55.13.79.22 1.22 1.18.36.78.95 2.09 4.03.75q-.49-.92-.66-3.27c-1.64-1.08-3.99-.71-5.25-2.56q.53-.26 3.16.48c.1-.06.24-.15.34-.21-.53-1.94-.75-2.03-2.43-2.74q-.14-.68.23-1.26 1.87.03 2.33-.29c.02-.27-.02-.63-.06-.89-.43-.26-.93-.25-1.39-.41-.03-.12-.06-.27-.08-.39.61-.51 1.12-1.15 1.79-1.61q-.39-.67-1.93-1.34c.32-.93 1.9-1.44 1.25-2.67q-.69-.2-1.64-.35-.9-1.67-.37-2.85.38-.13 1.4.06c.09-.07.21-.15.3-.22-.98-1.98-1.47-1.94-2.15-1.87-.46.04-.82.08-.94-.55-.26-1.33-.08-2.74-.75-3.99-.21-.4-.5-.95-.83-2.66-.23.01-.54-.01-.76-.07l-.07-.41c.09-.08.22-.19.31-.26s0 0 .23-.08c1.48-.28 1.79-.34 1.84-1.19-.53.03-1.06.15-1.59.17 1.06-.64 2.27-1.36 1.37-2.52-.93-.91-3.12-.28-3.4.98-1.35.49-.57 2.71-2.3 2.88-.1-1.07 1.45-2.16.32-3.14q-.41.23-.99.71l-.9.11v-.36q-.61.37-1.21.6c-.09-.07-.2-.16-.29-.23.37-1.15 1.59-1.16 2.36-1.76 0-.12-.02-.28-.02-.41-.9-.64-1.3-.46-1.63-.31.22-.16.44-.45.58-.69-1.14-.1-2.01 1.03-3.2.71.35-.37.93-.41 1.23-.85-1.04-.24-1.25-.15-2.42.31-.95.43-1.01.61-.93 1.33-.23.09-.58.12-.83.08-.04.1-.09.24-.13.34.35.33.82 1.67.26 2.29-.31-.49-.24-1.18-.79-1.55q-.53.58-.91 1.08c-.09-.08-.21-.18-.29-.26-.11.01-.25.03-.36.05 0 1.77.22 1.84 1.15 2.15-.28.42-.31.47-.95.77-.95-.64-.33-1.76-.77-2.55-.6.85-.75 1.96-1.53 2.7-.11-.03-.26-.08-.38-.11-.05-.11-.11-.26-.15-.37q.44-.89.37-1.31c-1.72.12-1.79 2.16-3.14 2.71l-.16-.39Z" class="cls-4"/><path d="M355.54 99.58c-1.3.83-1.55 1.18-1.69 1.36.12.03.27.05.39.06 0 .06-.01.15-.02.21.07.07.15.2.17.31.57-.31 1.03-.78 1.62-1.06.04.04.09.09.12.13-1.03 1.12-1.11 1.16-1.96 1.58-1.12.56-1.36 1.79-2.07 2.67.38-1.08 1.15-1.98 1.42-3.11-.05-.05-.12-.12-.16-.17-.04.04-.08.09-.12.13-2.89 3.41-3.13 3.95-3.82 5.55-.17.39-.36.57-.6.54-1.28-.17-4.22 3.96-4.3 4.18.2-.1.36-.17 1.17-.85-1.23 2.37-1.64 2.56-1.77 2.62-.5-.54.03-1.08 0-1.62-.21.24-1.55 2.24-1.79 2.94a1 1 0 0 1-.16-.05c-.75.81-1.74 1.35-2.48 2.17 0 0-.7.83-.92 1.55.26.28 2.01 1.19 2.22.54.24-.75.64-.98.93-.94.06.23.05.48.1.72 1.03.52 2.33-.58 2.05-1.73 0-.02-.23-1.71.43-2.48.06 0 .13 0 .18.01q.17.22.33.64l4.75-4.61s1.47-1.85 1.82-2.68q.65-1.52 2.93-3.43l5.99-5.55c-.05-.01-.13-.03-.18-.04 1.08-1.52 3-2.05 4.11-3.53.01-.02 1.13-1.62.5-2.49q-.38-.04-.55-.22c-.12.05-.31.09-.44.04.02-.06.04-.13.05-.18q-.34.15-.5.16c-.71.4-1.2 1.07-1.84 1.55q.53-.67.65-.99c-.88.68-1.3 1.91-2.56 2.15.04-.12.12-.27.19-.37-.97.11-4.4 4.13-4.41 4.17.05.03.12.08.18.11Z" class="cls-4"/><path d="M350.65 102.56s-2.42 2.85-2.56 3.13a.3.3 0 0 0-.05-.07s-1.65 1.7-2.61 2.93l-1.17 1.93c.13.19.39.24.5.46l2.16-2.29 1.71-1.86.1-.03c0 .04-.01.09-.02.13.02.02.05.04.08.05.74-.37 1.9-2.36 1.91-2.38q-.24.13-.4.16s.82-.92 2.4-2.55c0 0 .66-.85.72-1.05q-.11.11-.21.16s-.02-.06-.02-.08c.2-.32.61-.98 1.32-1.5.24-.18 2.09-2.15 2.15-2.33-.06 0-.13.02-.19.03l-2.68 2.5c-.25.34-.67.4-.99.63-.49.36-.66.98-1.12 1.37 0 0-.83.69-1.02.65Zm-7.7 8.48c.05-.04.18-.13 1-1.22.75-.99 1.99-2.88 2-3.09-.47.39-2.51 2.71-2.75 3.18l.06-.06c-.24.27-.65.84-.81 1.07.44.16.45.15.5.11Zm-1.11 1.36s-.06.01-.08.02c-.08.02-.14.08-.21.11-.09.04-.2.01-.29.05-.01 0-.02.01-.04.02-.06.04-.09.11-.15.16-.11.09-.25.13-.36.22 0 0-.05.04-.07.11 0 0-.05.39.31.35.08-.01.11-.02.1.07-.03.16-.15.27-.18.42l.02.02c.14-.04.22-.12.26-.16.01-.01.02-.03.03-.05.08-.13.12-.27.19-.4.12-.24.33-.42.46-.65.07-.14.06-.21.06-.26-.01 0-.03-.02-.04-.03Zm-1.13 2.95h.01c.2-.05.77-.71 1.25-1.46.2-.31.29-.49.26-.54h-.03s-.44.24-.63.5c-.07.09-.87 1.31-.86 1.48Zm-2.85 10.37s-.02.01-.03.02c0 0 .02 0 .03-.02" class="cls-4"/><path d="M334.54 126.49c.28-.07.4-.37.66-.45.27-.08.55.08.82 0 .11-.03.18-.09.26-.2.17-.23.83-.69.93-.68-.02.39-.33.68-.37 1.07 0 0 .77-.03 1.38-1.06.31-.53.35-1.17.7-1.69s.95-.79 1.32-1.29c.66-.89-.5-1.15-.52-1.15-.01 0-1.41.28-2.15 1-.37.37-.52.48-.7.53-.17-.29.13-.47.18-.71-.22.11-.36.35-.64.34-.11-.12-.14-.45.36-1.3q-.13.12-.17.15s-.04-.02-.06-.03c.01-.26.25-.62.33-.73q.33-.43.79-1.55c.25.23.04.51.1.77.14-.1.15-.11.34-.51.21-.44.18-.95.38-1.4.14-.31.46-.5.59-.81.02-.04.02-.1.03-.14l-.04-.04c-.08.04-.15.09-.24.11 0 0-.29-.25.26-1.11.16-.25.39-.6.29-.81-.04 0-.1.01-.13.03-1.28.78-2.28 3.37-2.29 3.4q.42.27.17.75s-.06.1-.09.14c-.66.94-1.42 1.8-1.99 2.8-.15.25-.15.26-.26.36-.09.08-1.49 1.85-1.51 2.15.03.02.08.05.11.08-.04.18-.23.28-.27.47 0 0-.13.84-.02.94.25-.14.35-.66.71-.48.04.26-.25.46-.14.74.08.22.15.2.47.11.02.01.04.03.06.04 0 .05 0 .12-.02.17.07.03.14.05.35 0Z" class="cls-4"/><path d="M337.74 125.79s.03 0 .08-.05c-.03.02-.07.02-.09.05Zm5.68-17.5c-.04.14-.91 1.39-.92 1.4s-1.1 1.27-1.2 1.54q.48-.28 1.92-1.87.44-.48 1.73-1.76s2.38-2.87 2.43-3c-.35.26-.55.67-.96.86q1.31-1.53 1.37-1.77c-.23.19-.48.36-.7.57-.02.02-1.66 1.63-1.7 1.7.14-.06.26-.19.42-.21-.12.15-1.35 1.39-1.55 1.4.08-.17.22-.29.28-.47-.02.01-1.69 1.71-1.67 1.89.17-.09.32-.23.51-.29.01 0 .03.02.04.03Zm-1.62 1.65h-.03c-.11.05-.7.78-.71.79 0 0-.68.91-.69 1 .06-.01.47-.3.87-.78.37-.45.61-.95.56-1.01m9.13-8.04c.06-.06.28-.31.31-.37 0 0 .07-.2-.03-.18-.01 0-1.13 1.08-1.11 1.15h.06c.02.04-.09.17-.37.48-.17.19-.18.21-.19.22.08-.07.16-.14.23-.22.37-.36.73-.73 1.1-1.09Zm-12.8 11.37q.09.05 2.52-2.78c-.22.11-2.57 2.57-2.52 2.78m-4.05 8.21s-.05 0-.12.08l-.05-.15-.26.29c-.08.12-.15.25-.23.38-.03.02-.07-.02-.09.02-.21.23-.38.5-.58.73-.22.26-.5.47-.7.75-.04.05-.05.16-.05.18 0 .06.04.12.04.18 0 .01-.02.09-.3.4-.03.04-.08.09-.11.14-.06.1.03.2.02.3 0 .11-.04.22-.05.34 0 .09.21.21.4-.02q.46-.56 1.69-2.51c.47-.76.39-1.1.39-1.1Zm-2.25.87c-.64.7-.88.99-.86 1.16.01.08.33.29.55.03.42-.48.67-1.06 1.06-1.56.34-.43.74-.81 1.11-1.22 0 0 1.75-2.11 3.36-4.15.01-.02.03-.04.05-.06-.43-.38.15-.8.13-1.21-.01 0-.03-.02-.04-.03-.03 0-.06.01-.08.02-.34.16-.65.63-1.78 2.38q-.41.63-.52.73c.17-.36.5-.84.51-.85.2-.27.23-.31.06-.41-.12-.07-.1-.15-.08-.24.03-.18.16-.31.24-.46 0-.01-.01-.03-.02-.05-.62.55-2.5 3.15-2.53 3.58.01 0 .03-.02.04-.03.01 0 .03.02.04.02q-.05.13-.06.23s.02.03.03.04c.17-.02.29-.17.46-.18.02.41-1.17 1.71-1.68 2.26Zm6.38-10.89s.07 0 .23-.08h.07l.02-.01c.64-.37.98-1.08 1.62-1.44 0 .02-.02.05-.02.07.19-.03 1.42-1.25 1.44-1.26.49-.49.7-1.14.65-1.22h-.09c-.36.19-3.8 3.51-3.94 3.92 0 .01.01.03.02.04Zm4.49-3.98s.52-.36.63-.46c.16-.15.3-.33.45-.49.23-.23.47-.46.71-.68 0 0 .45-.44.49-.51-.06.04-.12.09-.18.14-.28.23-.39.3-.45.31-.02-.04.01-.09 0-.13-.06-.01-1.02.65-1.07.96l.12-.09-.02.02-.03.03c-.01.01-.03.03-.04.05l-.06.06-.07.07-.08.08-.08.08c-.04.04-.08.08-.11.13v.02c.03-.01.05-.03.08-.04.08-.06.18-.14.25-.2-.18.21-.41.38-.53.64v.01Zm-1.01.21h-.03c-.26.14-1.2 1.1-1.21 1.17.06 0 .53-.41.93-.82.31-.31.31-.34.31-.36Zm-4.95 4.69h-.04c-.2.09-.3.17-.4.27-.09.09-.15.21-.23.31-.1.12-.21.22-.3.35-.05.06-.06.09-.05.11.12.02.67-.56.67-.57.08-.09.36-.4.34-.48Zm-7.8 9.72q-.06.15-.23.42c.08-.04.2-.08.27-.14-.09.16-.24.29-.28.48.63.01.75-.65 1.18-.89.02.01.05.03.07.05.02-.02 2.08-2.15 3.1-3.51.12-.16.25-.34.45-.8a.12.12 0 0 0-.05-.05c-.47.42-.75 1.02-1.29 1.38.15-.25.47-.4.46-.74-.29.28-.46.68-.84.88.18-.3.76-.88 1.08-1.18.49-.48.5-.55.51-.62q-.16.06-.22.05l2.07-2.33c.09-.08.87-.83.95-1.13-.52.34-.82.91-1.36 1.24 0-.02.02-.04.03-.06-.1.08-1 .8-1.78 2.07l-1.84 2.17c-.18-.04-.35.1-.53.04.88-1.56 2.21-2.78 3.26-4.2-.05.02-.09.04-.11.04 0 0 .72-.71.78-1.03-.69.43-1 1.24-1.69 1.67-.03 0-.06-.02-.09-.02.09-.15.23-.27.28-.44-.46.46-.8 1.03-1.26 1.49-.27.28-.68.38-.93.68q-.85 1.01-1.07 1.13s.06-.09.08-.13c-1.31.87-2.4 2.88-2.43 3.08.6-.13.8-.79 1.32-1.02-.14.17-.31.31-.43.49.09-.03.18-.05.27-.07 0 .02.01.05.02.08.04 0 .09.04.11.07q.06-.02.45-.27c-.57.69-1.03.99-1.13 1.03a.26.26 0 0 0-.08-.12c-1.81.82-2.27 2.24-2.24 2.67.02 0 2.36-1.61 3-2.36.03-.04.1-.08.15-.09Zm2.15-.93a.85.85 0 0 0-.27.25c-.08.11-.15.18-.27.29q-.12.12-.16.13s-.05.03-.07.05l-.01.01c-.03.04-.11.37-.09.42.1 0 .35-.21.5-.4.12-.16.22-.34.33-.5.04-.06.08-.11.12-.17 0 0 .07-.13-.08-.08m2.28-6.56q-.09.1-.68.69c.13-.08.23-.17.37-.31.03-.03 3.33-3.21 3.48-3.26-.81 1.29-2.21 2.01-3.1 3.22.1-.08 1.89-1.65 1.9-1.66l.38-.32.41-.43.18-.14 2.39-2.18s.98-.96 1.05-1.17c-.36.28-.57.72-1.02.89q.53-.63.59-.78s-.04-.03-.06-.04l-3.62 2.94q-2.69 2.26-2.83 2.48c.08-.04.15-.1.24-.12-.17.28-.59.35-.62.75.29-.27.53-.58.86-.79-.36.44-.83.77-1.15 1.25.42-.31.72-.77 1.21-1.01Zm-2.29 2.51c.41-.4.86-.76 1.27-1.17.1-.1.1-.1.11-.14h-.02c-.38.19-1.36 1.12-1.36 1.13-1.05 1.01-1.05 1.02-1.09 1.23.02-.01.49-.37.6-.47.19-.17.32-.39.5-.57Zm3.41 13.13s-1.62.64-2.35 1.36c-.66.65-.71 1.65-1.36 2.31.02-.14.03-.33.02-.47-.01.01-1.25 1.38-1.12 1.94.07.02.17.04.25.06 0 1.28-1.28 1.71-1.78 2.65-.52.99-.47 2.16-.94 3.16-.03.08-.08.18-.12.25-.19.35-.45.33-.62.31-.03-.06-.07-.15-.1-.21 1.13-1.7 1.22-3.81 2.18-5.58 1.16-2.13 3.05-3.74 4.18-5.89.08-.15-.03-.39-.08-.55-.06-.02-.15-.04-.21-.06-2.98 1.6-6.06 7.1-8.54 11.53l.23.49q.64.02.8.08c-.04.24-.07.39-.78 1.14q-.62-.26-.72-.26c-.21.26-.46 2-.44 2.28.09-.09.25-.17.37-.19.29.82-.54 1.76.28 2.51.44-.07.57-.13 1.88-.91q.49-.29 2.35.21c0 .08.02.19.02.27.06.03.14.07.2.09 1.33-.61.12-2.92 1.8-3.1q.14 1.66-.09 2.09c.14.04.31.14.42.24q0 .33.28 1.05-.66.61-.71.74c-.23.55.18 1.1.01 1.65-.17.54-.77.77-.93 1.32-.02.07-.01.18-.02.26q.98-.49 1.53-.91c.06.04.14.09.19.13.12-.07.3-.13.43-.14.06.32.06.65.15.97.13.01.29.09.38.19q-.27 2.38-1.66 6.37c-.06-.02-.14-.05-.2-.08-.69.59-2.74 4.06-2.76 4.08-.32.75.21 1.47.07 2.22q-.49.23-1.3 1.14-.21 0-1.65 1.27c-.07-.01-.16-.03-.23-.04.08-.5-.3-1.97-.97-1.66q-1.21 4.02-1.13 4.7.81.21 2.87-1.5c.35.12.43.49.64.73q.9-1.05 1.23-.95c.42.92-.47 2.58.91 2.86.01.02 1.16 2.2.74 3.32.04.06.09.15.12.21q2.15.46 2.27.55c.14.1.26.32.34.48.19.33.63 1.12.93 1.12.44 0 1.14-.26.88-2.1q-.26-1.92-.62-2.63c-.21-.42-.83-.43-.95-.95 0 0-.01-.31.54-.85 1.62.49 1.16 3.57 3.25 3.15-.05-.62-.45-1.14-.54-1.75q1.5-1.59 1-5.24c-.57-.3-2.3-1.19-1.79-5.77.35-.09.63.16.96.18.31-.72.16-1.6.77-2.21.49.39.36 1.07.72 1.52.44-.11.86-.29 1.32-.36q-.44 2.23.05 3.75c1.33-.14.36-1.93 1.25-2.55.09.11.22.23.33.31.57-.5 1.85-1.78 1.5-2.92.16-.66.68-1.17.77-1.86.01-.16-.03-.39-.08-.55-.22-.08-.47-.09-.68-.23 0-.31 0-.35-.35-.59q-.63.18-.97.17c-.06-.06-.13-.14-.19-.2q.32-.96.23-1.17c-.15.01-.36-.01-.51-.05-.27-.57.41-1.11.05-1.69-.06.02-.15.04-.21.06q-.35.86-.45.93-.9-1.14-1.19-1.23l-.26-.49c.09-.23.26-.42.36-.65-.72-1.7 0-1.88.52-2.01 1.68-.43.82-1.9.81-1.91q-.61.08-.84-.03c-.07-.62.22-.69.47-.75.81-.2 1.58-.39 1.05-2.36-.61.14-1.18 1.3-1.75.63 1.2-.52 2.56-1.94.86-2.77-.67.36-.76 1.19-1.31 1.65l-.15-.15c.05-.62.85-1.11.35-1.84-.69.09-.81-.03-1.04-.26 0 0 .82-.8 1.34-1.33q-.09-.44-.39-.62c-.26.09-.46.29-.7.42-.23.12-.9-.14-.81-1.01.06-.61.79-.55 1.02-.99a1 1 0 0 1-.47-.12c-.08-.32-.3-.59-.31-.93q.71-.76.77-.95s-1.62-1.78-2.7 1.43c-.06.03-.15.06-.21.08a3 3 0 0 1-.19-.18c0-.37-.07-.78-.12-1.06q-.88 1.6-1.35 1.7.69-1.52.56-1.76c.68-1.57 2.67-2.56 2.1-4.7Z" class="cls-4"/><path d="M325.97 155.98c-.15.44-.11.81.12 1.1.17.21.34.18.45.12.14-.08.85-.8.85-.81.33-.44.66-1.57.76-2.05.13-.67.11-.72.03-.89-.07-.13-.52-.49-.7-.42-.12.07-.18.14-.32.41-.19.37-.3.76-.46 1.14-.21.48-.56.89-.73 1.39Zm3.32-2.61c-.07.13-.08.27-.14.41-.06.16-.14.32-.21.49-.12.28-.19.49-.12.56.03.04.09.03.11.03.1-.01.19-.05.29-.07s.2 0 .29-.02h.06c.03 0 .07-.03.1-.05.12-.08.19-.37.25-.66.22-1.06-.19-1.01-.38-.95-.07.04-.18.09-.27.26Zm-.79-5.19c.06-.24.06-.26.04-.31h-.05c-.07.04-.1.07-.23.24 0 0-.31.41-.32.57 0 0-.02.21-.14.37-.2.27-.55.35-.73.63-.01.02-1.12 1.8-1.07 1.97.06.19.99-.37 1.21-.68.18-.25.22-.55.36-.82.1-.19.27-.33.37-.52.03-.06.08-.15.11-.21.25-.53.41-1.13.44-1.24Zm-11.15 21.05c-.08-.23-.11-.3-.47-.51-.23-.13-.22-.14-.18-.33q-.21-.22.21-1.71c-.29.24-.38.26-.44.26l-.04-.04c0-.06.03-.11.02-.17-.1-.65-.56.75-.85 1.12-.07-.11.05-1.09.3-1.87.11-.34.23-.79.19-.98h-.05c-.37.37-1.28 1.89-1.43 2.34-.02.07-.02.16-.02.23 0 .4-.02.77-.54 1.59q-.42.66-.63 2.02c-.07.49-.49.75-.72 1.13-.06.09-.09.24-.15.33-.08.12-.27.2-.39.28-.35.21-.58.36-.47.59.22.49.8.5 1.12.85-.15.85-.17.96-.37 1.44-.19.48-.2.51-.2.63.9-.09.54-1.16.85-1.73.34-.63 1.14-.69 1.55-1.25.28-.39.4-.87.73-1.23l.05-.05q.21-.195.33.09c.59.08-.05.86.15 1.26.13.04.22.07.78-.17h.01l.01-.01h.06c.42-.18.54 0 .91.52.09.13.26.37.48-1.18.15-1-.06-1.02-.26-1.03-.14 0-.28-.02-.33-.2-.05-.17.02-.47.09-.76.08-.35.11-.58-.12-.71-.19-.11-.2-.13-.23-.27s.08-.33.04-.47Zm-2.74 7.36h-.09c-.13.06-.36.29-.71.97-.14.27-.25.49-.46.68-.17.15-.3.1-.36.08-.11-.04-.14-.05-.16-.02-.06.1-.06.68-.01.81.1.3.4.11.51.03.01 0 1.36-1.11 1.44-1.29.12-.28-.05-.62-.05-.63 0 0-.01-.02-.01-.03 0-.11.02-.23 0-.34-.02-.19-.03-.19-.11-.26Zm1.93 4.04s1.08-2.41 1.13-2.76c.06-.45-.01-.52-.09-.59-.03 0-.08 0-.11.01-.12.06-.54.4-.8.99-.14.33-.17.68-.18.89s-.06.33-.19.59c-.1.21-.13.44-.21.65-.05.13-.14.23-.19.36 0 .01 0 .03-.01.04v.06c.02.04.4.19.65-.24m4.08-7.64c0-.13-.09-.23-.12-.35-.03-.14 0-.29-.04-.43-.02-.07-.04-.07-.07-.07-.25.22-.6 1.61-.67 2-.05.3.08.89.14.98.16.23.58-.03.6-.13v-.02c0-.05-.03-.1-.09-.17-.06-.09-.12-.18-.15-.31-.11-.56.4-.95.39-1.48Zm2.52-.96a.8.8 0 0 1-.11-.22.2.2 0 0 0-.04-.09c-.04-.04-.06-.03-.09-.02-.28.16-.64 1.35-.56 1.5.09.18.92-.51 1.02-.84s.02-.12-.02-.18c-.05-.07-.15-.08-.2-.15m2.39-42.11c-.05.07-.5.69-.75 1.52-.24.8-.9.72-.91.72-.04-.1-.05-.21-.09-.31-.1.03-.99.96-1.67 2.37-.08.17-.34.76-.2 1.28.01.05.02.13 0 .18-.18.53-.82.67-1.03 1.18l-1.07 3.2s.03.04.04.05c.31-.04.48-.22 1.44-1.85.48-.83.54-.9.9-1.26.45-.45 1.04-.74 1.41-1.27.23-.33.27-.56.43-1.43.2-1.08.35-1.24 1.51-2.48q1.05-1.12 1.73-2.27c.13-.22.25-.44.37-.66q.23-.4.27-.57c-.16.05-.25.23-.42.26-.24.04-.27-.02-.34-.14-.05-.01-.13 0-.18 0-.58.36-.93.95-1.39 1.42-.02.02-.05.04-.06.06Zm2.94-1.07c-1.55 1.6-1.96 3.96-3.61 5.5-.55.52-1.84 2.82-1.37 2.96.35.11.8-.35 1.23-1.25q.7-1.46 1.01-1.45c.07-.07.13-.12.46-.15.37-.03.54-.19.79-.43l3.72-4.14c.67-.77-.5-1.08-.64-1.11.42-.58.45-.75.47-.9-.02-.02-.05-.05-.07-.06-.05.01-.13.03-.18.04-.71.31-1.49 1.41-1.65 1.97q-.09.33-.61.66s-.03-.03-.04-.04c.06-.56.39-1.02.53-1.56zm-14.94 24.7c.2.43 1.25-1.25 1.54-1.91.1-.23.14-.31.33-1.14.03-.13-.03-.26 0-.39.08-.37.24-.7.32-1.07.02-.08.02-.18.03-.26.02-.14.17-1.34-.14-1.24-1 .57-3.03 5.19-3.08 5.38 0 0 .01.02.02.03.28-.22.4-.63.82-.69.09.08.12.11.11.57 0 .3-.01.58.05.72m2.4-11.31c.16-.33.26-.69.4-1.04 1.14-2.86 1.27-3.02 2.52-4.52 2.22-2.67 2.89-3.67 2.36-5.18a.6.6 0 0 1-.12-.04c-.31.28-.44.5-1.25 2.1-.49.97-2.3 4.17-2.93 4.5.51-1.69 1.86-2.87 2.63-4.4q-1.73 1.88-1.96 1.84c0-.17 0-.24.83-1.37.92-1.25 1.34-1.82 1.54-2.37-.02-.03-.06-.06-.08-.09-.23.14-.42.36-.67.47.1-.18.18-.28.69-.85q.66-.73.64-.9c-.74.4-3.02 2.58-3.26 2.87-.8.95-1.67 1.84-2.4 2.84-.48.65-.17 1.58-.76 2.2-.7.73-1.7 1.1-2.28 1.96-.26.38-.58.92-.66 1.33.03.04.08.1.11.14.32-.02.61-.2.92-.25 0 .1-.03.23-.06.32.02.03.06.06.07.1 0 .04-.45 2.95-1.9 1.96q.04-.54-.07-.72s-.09-.02-.13-.03c-.23.18-2.98 4.88-3 4.92-.34.73-.05 1.57-.39 2.31-.36.79-.91 1.48-1.17 2.31-.02.06.02.13.03.19.41.05 2.38-.79 2.56-.94.15-.12-.07-.28 0-.41.18-.32.47-.56.69-.85.49-.64.53-.69.74-.92h.17c-.1.5-.31.97-.39 1.48.02.03.06.07.08.09.6-.46.4-1.64 1.45-1.7-.02.64-.33 1.23-.36 1.87l.1.1c.26-.07 3.95-5.05 3.98-5.1.04-.07.1-.16.13-.23 0-.01.58-1.89.47-2.76-.07-.59.5-.8.71-1.22Zm8.68-13.44c-.07-.14-.44.01-.45.02-.11.06-.28.14-.44.4l-.9 1.53c-.06.12-.16.31-.15.43.02.2.34.14.61-.29.15-.23.3-.47.51-.69.22-.24.49-.42.71-.65 0 0 0-.02.01-.03-.01 0-.03-.01-.04-.02-.04-.25.26-.44.13-.71Zm-12.79 9.97s.11-.08.15-.12c.02-.02 2.81-3.07 5.25-6.21.39-.5.71-.78 1.23-1.23.51-.44.91-1 1.48-1.39.32-.22.7-.33.97-.62 0 0 .85-.93 1.95-2.4 1.04-1.39 1.5-2.69 1.5-2.7-.19.06-.32.23-.51.3l.07-.31s-.04-.07-.06-.09c-.11-.01-.23-.05-.34-.06-.02.01-5.01 5.19-6.84 7.51-3.77 4.78-5.03 6.69-4.85 7.32m160.56 252.84c-1.23.1-4.51.37-12.85-2.08l1.55-.3c-.95-.4-2.23-.9-3.21-1.24.97-1.2 1.28-1.33 1.59-1.46-1.44-1.46-2.68-2.72-7.43-2.97.87-.45 2.04-1.04 2.91-1.49-2.33-5.64-6-10.52-8.96-15.8 1.02-2.02 3.29-2.6 4.74-4.11-.43-6.8-9.93-11.21-5.17-19.37q-2.17-5.53-2.8-8.32c-1.83-2.77-27.36-4.27-31.5.84q.08.11 1.51 4.41c-2.89-2.35-3.52-3.01-2.1-5.74-1 .08-2.32.44-3.22.89-.21.91-1.01 2.03-1.8 2.53.91-2.86-.95-5.14-1.79-5.99.11-.49.26-1.14.37-1.63-1.02-.4-2.43-.83-3.51-1 .16-.52.36-1.22.52-1.74q-4.66.69-4.78.68c-.29-.43-.67-1.01-.96-1.45-.5.2-1.16.47-1.65.67-.41-.28-.95-.65-1.35-.93-1.04.28-2.48.49-3.56.55-.21.48-.49 1.11-.7 1.58q-1.03-.23-5-.02c-.29-.39-.69-.91-.98-1.3-4.63-.13-8.47-3.08-12.97-3.66-.06.95-.49 2.23-1.06 2.99-3.75-.74-11.79-.59-11.86-.59.02.03 2.27 3.26 2.46 6.06-2.06-2.07-3.05-5.04-5.64-6.67.56.86 1.12 2.18 1.21 3.2-.79.62-1.79 1.52-2.48 2.25q.14 1.04 2.39 5.93c-1.38-.34-2.73-.16-4.08.14 5.12 3.55 5.14 3.56 5.44 3.64l11.26 17.7 66.39 28.63c.27.11 27.14 10.46 53.12 4.92-.47.06-1.11.13-1.58.18q.97-.16 5.12-.94-15.05.98-16.43.81l-1.16.19Z" class="cls-4"/><path d="M348.97 336.77c.42-.1.84-.2 1.26-.29-.1-.07-.18-.12-.28-.19-.29.14-.64.32-.98.48" class="cls-4"/><path d="M336.66 328.94c-.05-.51-.13-1.19-.18-1.7-1.16-.64-3.57-1.96-7.95.09-.44-.23-1.03-.53-1.48-.76-.56-2.83-.81-3.07-2.2-4.38.4-4.08-3.21-8.1-3.25-8.14-.91.3-2.07.91-2.85 1.48 1.11 3.81 3.06 7.91 3.07 7.94-.69.65-1.72 1.41-2.55 1.88-6.6-2.97-15.6-13.8-14.93-28.59 1.74-1.1 4.12-.81 5.58-2.55-.3-.5-.7-1.16-1.01-1.65.89-.2 2.01-.81 2.67-1.44.94.3 2.21.65 3.17.87.09-.48.22-1.12.32-1.6q1.28.61 3.96 3.6.71 1.08.7 1.09c1.2 2.15 2.64 4.14 3.96 6.21.5-.14 1.16-.33 1.66-.47-.82-6.34-7.09-10.09-7.85-16.46-.71-5.96 4.91-10.4 3.94-16.42-.29-1.76-1.78-2.97-2.17-4.68.33-.38.78-.88 1.11-1.26-.2-1.01-.67-2.32-1.17-3.22.45.2 1.04.47 1.49.67q1.78-6.83 5.86-10.96-1.03-7.22 5.38-13.97c.21.44.48 1.02.68 1.46-.2.46-.46 1.06-.65 1.52.54.12 1.25.27 1.79.38.71-2.12 1.79-4.09 2.58-6.17.49-.11 1.14-.27 1.62-.38q-3.38-.92-4.32-1.88l-.5-.9c-.46-.9-.86-2.25-.86-3.27-.5.12-1.18.28-1.68.41.84-.64 1.89-1.58 2.63-2.32-.05-.49-.11-1.15-.16-1.64-3.43-.13-7.52 5.86-7.95 7.32q0-.49 4.38-11.18c9.6-2.58 10.11-3.21 16.37-10.88-.34-.42-.78-.97-1.12-1.39.34-.94.61-2.28.62-3.29-.89-.45-2-1.21-2.75-1.86-.77.56-1.98 1.09-2.92 1.25.59-.77 1.56-1.65 2.37-2.18-1.79-1.17-3.37-2.66-5.33-3.58-.5-3.8-1.25-9.55-2.43-11.29.41-.88.53-2.28.33-3.24l-1.54.3q-1.36 4.07-4.93 9.09-1.54-1.47-1.03-9.25l-1.58-.57c-.05-1.04-.12-2.43-.18-3.46q-2.38-1.09-6.09 0c-2 4.65-1.77 9.85-3.59 14.55.48.86 1.19 1.98 1.76 2.78q-1.27 3.47-1.15 6.84-2.6 2.46-4.7 19.71l-1.64-.07c-.37-4.25-2.58-8.31-1.36-12.74q-5.49-3.41-6.54-5.28c-.48-.05-1.13-.11-1.61-.16-1.03-3.96-.23-13.27-.21-13.34 1.24-4.51 5.63-7.08 7.02-11.5-.35-.33-.81-.77-1.16-1.1.19-.5.44-1.17.64-1.67.47-.04 1.1-.09 1.57-.12.53-.78 1.61-1.63 2.51-1.91q1.01-3.22 2.29-4.73c-.13-.83-.3-1.93-.42-2.75.48.04 1.11.09 1.58.13.54-.83 1.04-2.09 1.24-3.05.92-.43 2-1.35 2.63-2.16.18.48.42 1.11.6 1.59q.57-.5 6.76-12.5-2.82-.98-7.54 8.21c.3-2.77.42-2.99 1.57-5.08l-1.03-1.2q1.41-6.16 4.48-12.55-2.41 1.09-11.35 19.9c-.1-1.58.83-2.97.84-4.53-1.33.86-2.27 2.26-3.83 2.82-.63-1.78-.77-2.15.17-4.61-.46.14-1.08.32-1.54.46-.88 2.74-2.59 5.06-3.87 7.6.63-2.52.68-2.64 1.47-4.64-.42-.24-.98-.57-1.41-.81.35-3.6 5.67-15.46 5.72-15.54-1.62 1.59-3.03 3.38-4.58 5.03.78-1.51 2.05-2.66 3.04-4.02q-2.23 1.85-3.39 3.42c1.01-2.31 4.07-8.21 11.9-17.16-1.76 2-3.53 4.07-5.04 5.79-4.55 6.05-10.3 14.35-14.37 20.72-3.55 6.64-7.95 15.68-10.98 22.58-1.01 2.56-1.96 5.15-2.84 7.76v.04c-12.28 39.93-8.14 83.8 2.28 106.49.29.72.3.73.3.75.02.04.03.09.05.13.02.07.05.13.07.2.03.08.06.17.09.25.04.1.07.19.11.29.04.11.08.21.12.32l.12.33.12.33c.67 1.59 1.4 3.15 2.1 4.72.07.18.15.35.22.53.06.14.12.28.18.43.05.11.1.23.14.34.04.09.08.18.11.27l.09.21c.02.05.05.11.07.16.02.04.04.09.06.13s.03.08.05.12q9.69 15.71 11.1 17.47c-3.06-7.28-9.04-12.93-11.54-20.53 8.35 9.32 12.95 21.38 22.03 30.17q3.18 3.07 12.1 2.87c3.48 3.47 6.97 3.26 11 3.02 2.04 1.85 3.97 3.59 7.48 4.37.83.66 1.9 1.61 2.63 2.38 2.02-1.1 4.12.11 6.17-.21-.31-.91-1.03-2.05-1.76-2.68.17-.09.37-.18.57-.28-1.88.44-3.76.83-5.69.02-3.55-1.49-3.81-5.75-6.62-7.85Z" class="cls-4"/><path d="M337.73 315.71c-.07.02-.16.06-.23.06-.4-.04-.77-.22-1.18-.26-.04 0-.09.02-.13.02-.02.01-.04.02-.05.04-.25.32 1.64 2.37 2.56 2.77.57.25.75-.03.88-.24q.26-.41.46-.52c.33-.19.46-.11.53-.08.01 0 .03.01.04 0 0 0 .06-.18.02-.29-.16-.46-2.22-1.51-2.24-1.52-.26-.1-.57-.03-.65 0Zm2.58-5.98v-.15c-.17-.11-.24-.12-.88-.13l-4.46-.11c-.36-.07-.45-.49-.77-.62-.53-.2-1.35-.34-2.15-.48q-1.7-.29-1.91-.66c-.5-.11-1.16-.25-1.65-.35q-1.33 1.01-1.48.6c-.15-.44-1.49-.29-1.5-.29-.54.26-.41 1.01-.93 1.29-.15.08-.85 1.74-.06 1.95l.89.47c.25-1 .44-1.79.96-2.09 0 0 .56.27.42.59-.04.1-.1.25.02.28.16.04.53-.14.83-.28.38-.18.59-.28 1.54-.19.93.08 1.62.82 2.55.92.56.06.78-.55 1.27-.65 0-.02-.02-.05-.03-.07.16-.02.39.21 1.06 1.41.12.21.34.6.58.51.02 0 1.54-.59 1.86-.45.04.02.09.05.12.08.67.62-.24 1.5.36 2.13h.03s.06-.04.09-.05c.05-.02.09-.04.14-.06.06-.02.11-.05.17-.07.07-.03.13-.06.2-.08l.21-.09.21-.09c.07-.03.14-.06.2-.09.44-.21.62-.34.79-.6l1.33-2.54Zm3.19 3.37c-.71.13-1.03 1.06-1.03 1.07 0 .03.01.07.02.11.37.19 1.74-.06 2.08-.18q1.02-.36 1.1-.35c.38.04.55.42.86.57.05.02 1.18.55 1.14-1.32 0-.27-.01-.45.55-.56.08-.02 2.12-.81 2.13-.82.02-.01.04-.04.05-.05.18-.19.29-.79.05-1.33-.2-.46-.54-.7-.68-.76-.41-.17-.86 0-1.27-.14-.29-.1-.38-.45-.67-.55-.08-.03-.2-.06-.28-.08-.06-.02-.46-.08-.81-.08-.07 0-.17 0-.23-.02 0-.01-.71-1.06-1.5.53-.38.76-1.28.45-1.62.33-.23-.08-.27-.07-.41-.05-.06.03-.09.06-.14.15-.11.23-.09.5-.2.73-.08.16-.28.22-.35.4-.03.07-.05.18-.03.25.01.06.13.37 1.14.36 1.53-.01 1.37.97 1.36.98 0 0-.37.65-1.23.81Zm12.23-4.26c-.1-.02-.23-.07-.33-.09-.05 0-.11-.01-.15-.01-.27-.01-.99.27-1 .27-.44.23-1.01 1.47-.85 1.66.03.03.09.06.13.08.31.09.63.09.93.18.26.07.5.22.77.29.14.04.21 0 .24 0 .28-.11.35-.41.55-.61.27-.27.57-.51.84-.78.06-.06.13-.14.19-.2.18-.2.29-.39.28-.49-.01-.15-.14-.22-.85-.24-.34 0-.61-.02-.75-.04Zm18.37 12.32c.13-.11.49-.41.27-.91-.19-.44-.65-.55-.79-.5-.34.26-.7 1.69-.76 2.25 0 0 .05.7.41.82.13.04.26 0 .38.01.09 0 .18.03.27.04h.05c.04 0 .12-.02.21-.23.02-.06.09-.21.1-.26.03-.36-.41-.51-.39-.87 0-.14.11-.23.25-.35m-20.39 38.14c-.25-.18-.53-.32-.78-.49-.5-.34-.93-.77-1.43-1.11-.36-.25-.46-.25-.54-.25 0 0-.01 0-.02.01-.07.09.11.44.26.61.26.28.59.48.87.73.22.19.42.4.63.6 0 0 .98.89 1.2.91.24.02.15-.62-.06-.87-.04-.04-.1-.1-.15-.13Zm-.35-1.18c-.1.1.18.51.36.76q.46.12.53.15s.05.02.08.02c.06 0 .06-.31-.17-.53-.19-.18-.71-.42-.8-.4m132.39 32.14q-.13-.03-.15-.06t-1.3-.19c-.31-.01-.39 0-.45.02-.17.08.31.14.5.16q.12.01.15.03s.68.11.69.11c.18 0 .56-.05.58-.07Zm-2.24.16c-.31 0-.38.02-.41.03.08.06 1.03.1 1.04.1.12 0 .59-.04.62-.09-.03-.04-.42-.12-.5-.12-.16 0-.72.02-.74.07Zm-23.22 2.35c-.14-.02-.28-.03-.42-.04-.44-.03-.87.07-1.31.05-.16 0-.19-.03-.23-.07-.04-.03-.76-.19-1.07-.14-.01 0-.03.02-.03.04-.11.23 2.79.47 2.82.47.41.03 1.27-.13 1.35-.16zm4.2.28c-.12-.01-.21 0-.27 0-.26 0-.52.03-.78.04-.14 0-.28 0-.39-.02q-.13-.01-.18 0c.08.05 1.66.11 1.77 0 0 0-.02-.02-.13-.03Zm20.21-1.21s2.37-.41 2.52-.53c-.04 0-.09.01-.13.02-.35.06-2.33.49-2.39.51m6.55-1.63c.06-.02.13-.03.19-.07h-.01c-.03 0-.85.19-1.02.25s.04 0 .36-.06c.03 0 .06-.02.09-.01-.15.09-.34.06-.5.13h.1c-.07.04-.16.03-.22.08.09 0 1.33-.33 1.34-.33-.05 0-.1.03-.15.02.14-.07.3-.06.43-.13-.21.03-.4.11-.61.12" class="cls-4"/></g><path d="M103.51 557.84H86.06l18.64-87.51c6.15-29.04 24.46-43.56 54.94-43.56h23.55l-3.34 15.11H156.5c-9.94 0-17.66 2.4-23.15 7.2q-8.235 7.185-11.58 23.16l-3.14 14.19h51.8l-3.14 15.11H115.5l-11.99 56.31Zm88.06-.01h-15.64l18.81-89.27h15.67zm18.89-126.55c2.75 0 4.97.85 6.67 2.55s2.55 3.92 2.55 6.67c0 .92-.2 2.32-.59 4.22s-1.93 3.96-4.61 6.18c-2.68 2.23-5.66 3.34-8.93 3.34-2.75 0-4.97-.85-6.67-2.55s-2.55-3.92-2.55-6.67c0-1.04.2-2.48.59-4.32.39-1.83 1.93-3.86 4.61-6.08s5.66-3.34 8.93-3.34m11.97 103.8 50.43-46.9q1.575-1.425 2.55-2.34c.65-.61 1.05-1.25 1.18-1.93.13-.54-.17-.91-.88-1.12-.72-.2-2-.31-3.83-.31h-40.23l2.94-13.74h49.06c8.89 0 13.34 3.13 13.34 9.39 0 .39-.2 1.43-.59 3.13-.4 1.7-1.12 3.3-2.17 4.79-1.05 1.5-3.42 3.95-7.11 7.34l-48.97 45.8c-1.73 1.9-2.65 3.12-2.78 3.67.13.27.42.55.88.82s1.67.41 3.63.41h45.13l-2.94 13.74h-55.34c-8.77 0-13.15-2.75-13.15-8.24 0-.52.2-1.7.59-3.53s1.01-3.34 1.86-4.51c.85-1.18 2.97-3.34 6.38-6.48Zm95.7 22.75h-15.64l18.81-89.27h15.67zm18.9-126.55c2.75 0 4.97.85 6.67 2.55s2.55 3.92 2.55 6.67c0 .92-.2 2.32-.59 4.22s-1.93 3.96-4.61 6.18c-2.68 2.23-5.66 3.34-8.93 3.34-2.75 0-4.97-.85-6.67-2.55s-2.55-3.92-2.55-6.67c0-1.04.2-2.48.59-4.32.39-1.83 1.93-3.86 4.61-6.08s5.66-3.34 8.93-3.34" class="cls-3"/><path d="m332.91 599.84 17.46-83c3.14-14.65 10.01-26.62 20.6-35.91 10.6-9.29 22.76-13.93 36.49-13.93 11.25 0 20.37 3.43 27.37 10.3s10.5 15.73 10.5 26.59c0 3.27-.85 8.9-2.55 16.87-1.7 7.98-7.92 16.48-18.64 25.51-10.73 9.03-22.31 13.54-34.73 13.54-9.16 0-17.14-3.2-23.94-9.61l3.73-17.07q10.2 11.19 22.17 11.19c8.63 0 16.45-2.94 23.45-8.83s11.09-11.58 12.26-17.07q1.77-8.235 1.77-11.97c0-6.93-2.19-12.66-6.57-17.17s-10.1-6.77-17.16-6.77c-5.23 0-10.36 1.18-15.4 3.53s-9.77 6.02-14.22 10.99-7.78 12.69-10 23.16l-16.77 79.69-15.84-.03Zm199.16-83.2 9.62 6.08c-12.3 24.6-30.29 36.89-53.96 36.89q-16.68 0-27.18-10.5c-7-7-10.5-15.86-10.5-26.59 0-1.83.07-3.24.2-4.22s1.01-5.33 2.65-13.05c1.63-7.72 7.82-16.02 18.54-24.92 10.72-8.89 22.69-13.34 35.91-13.34 17.53 0 29.43 8.83 35.71 26.49l-65.15 37.28-4.3-11.55 49.62-29.08c-3.68-6.01-9.98-9.01-18.9-9.01s-16.51 2.91-23.53 8.73-11.09 11.32-12.21 16.48c-1.12 5.17-1.74 8.27-1.87 9.32s-.2 2.23-.2 3.53c0 7.59 2.43 13.87 7.28 18.84s11.02 7.46 18.5 7.46c8.27 0 15.84-2.52 22.73-7.56 6.89-5.03 12.56-12.13 17.02-21.29Zm129.56-89.88-17.71 82.81c-3.14 14.78-10.01 26.82-20.6 36.11-10.6 9.29-22.76 13.93-36.5 13.93-11.25 0-20.38-3.43-27.37-10.3-7-6.87-10.5-15.73-10.5-26.59 0-3.4.85-9.06 2.55-16.97q2.55-11.865 18.84-25.41c10.86-9.03 22.43-13.54 34.73-13.54 9.42 0 17.33 3.21 23.74 9.61l-3.53 17.07c-3.53-4.05-7-6.93-10.4-8.63s-7.33-2.55-11.77-2.55c-8.51 0-16.32 2.94-23.45 8.83s-11.22 11.32-12.26 16.29c-1.05 4.97-1.64 7.95-1.76 8.93-.13.98-.2 2.13-.2 3.43 0 7.06 2.23 12.89 6.68 17.46 4.46 4.58 10.42 6.87 17.9 6.87 5.11 0 10.09-1.17 14.94-3.53 4.85-2.35 9.53-6.01 14.06-10.98 4.52-4.97 7.9-12.68 10.13-23.14l16.79-79.68h15.7Zm11.66 131.07h-15.64l18.81-89.27h15.67zm18.9-126.55c2.75 0 4.97.85 6.67 2.55s2.55 3.92 2.55 6.67c0 .92-.2 2.32-.59 4.22s-1.93 3.96-4.61 6.18c-2.68 2.23-5.66 3.34-8.93 3.34-2.75 0-4.97-.85-6.67-2.55s-2.55-3.92-2.55-6.67c0-1.04.2-2.48.59-4.32.39-1.83 1.93-3.86 4.61-6.08s5.66-3.34 8.93-3.34m92.42 126.56h-15.65l8.16-39.06c.81-3.92 1.22-7.58 1.22-10.99 0-7.85-2.13-14.02-6.38-18.54-4.25-4.51-10.17-6.77-17.76-6.77q-12.75 0-23.55 9.03c-7.2 6.02-11.35 11.74-12.46 17.17s-1.67 9.19-1.67 11.28c0 7.06 2.26 12.85 6.77 17.36s10.56 6.77 18.15 6.77c4.32 0 8.4-.79 12.26-2.36s8.54-4.38 14.03-8.44l-3.53 16.68c-4.97 3.53-9.58 6.02-13.83 7.46s-9 2.16-14.23 2.16c-10.86 0-19.66-3.37-26.39-10.11-6.74-6.73-10.11-15.4-10.11-26 0-3.14.88-8.83 2.65-17.07s8.14-16.88 19.13-25.9c10.99-9.03 23.02-13.54 36.11-13.54 11.25 0 20.28 3.47 27.08 10.4q10.2 10.395 10.2 26.88c0 3.66-.39 7.46-1.18 11.38l-9.03 42.19Z" class="cls-4"/></svg>