<svg xmlns="http://www.w3.org/2000/svg" id="katman_1" data-name="katman 1" viewBox="0 0 900 646.45"><defs><style>.cls-3{fill:#bd1a18}</style></defs><path d="M63.45 357.2c-.26-89.5 74.04-162.28 165.96-162.56 30.12-.09 58.4 7.62 82.82 21.17-30.96-26.51-71.02-42.46-114.73-42.32-97.8.3-176.86 80.91-176.58 180.05s79.8 179.27 177.6 178.97c31-.1 60.1-8.27 85.41-22.53-16.81 5.62-34.84 8.71-53.6 8.76-91.91.28-166.63-72.05-166.88-161.55Z" class="cls-3"/><path d="M324.19 401.61c26.25-65.58-9.09-143.01-78.92-172.93-22.89-9.81-46.64-13.29-69.17-11.24 31.28-9.44 66.38-8.19 99.6 6.04 74.32 31.84 110.99 116.54 81.91 189.19s-112.89 105.74-187.2 73.9c-23.55-10.09-43.32-25.5-58.41-44.14 11.15 9.56 23.97 17.65 38.22 23.76 69.84 29.92 147.73 1.01 173.97-64.58" style="fill:#5c5350"/><path d="M407.27 165.96c-7.2-6.72-18.31-6.12-24.81 1.33L221.33 352.25l-76.43-64.46c-6-5.05-14.75-5.6-21.38-.76-7.98 5.83-9.87 17.25-4.24 25.5l79.58 116.5c2.17 3.16 4.98 6.09 8.26 8.41 14.9 10.51 35.21 6.54 45.37-8.87l1.29-1.96 156.23-236.93c4.89-7.4 3.86-17.58-2.75-23.74Z" class="cls-3"/><path d="M549.58 216.4c0 3.01-2.37 5.49-5.28 5.49l-53.75.16c-12.44.04-16.93 4.43-16.89 18.68l.07 24.66 68.58-.21c2.91-.01 5.3 2.45 5.31 5.46l.07 26.02c0 3.01-2.37 5.48-5.28 5.49l-68.57.21.23 79.99c.01 3.01-2.37 5.48-5.28 5.49l-34.42.1c-2.91.01-5.3-2.45-5.31-5.46l-.4-141.63c-.14-49.58 30.28-58.72 64.44-58.82 28.6-.09 42.11 2.06 51.11 3.41 3.44.54 5.3 2.45 5.31 5.46l.07 25.48Zm161.71 165.25c0 3.01-2.37 5.48-5.28 5.49l-29.65.09c-2.91 0-5.3-2.45-5.31-5.46l-.02-6.58c-14.53 10.73-26.17 14.33-43.11 14.38-38.13.12-46.95-27.8-47.04-62.04l-.26-91.22c-.01-3.02 2.63-5.76 5.54-5.77l32.04-.1c2.91-.01 5.3 2.72 5.31 5.74l.26 91.23c.05 19.17 3.51 25.47 19.67 25.42 7.68-.02 15.61-3.61 24.86-8.84l-.31-107.93c0-3.02 2.37-5.76 5.28-5.77l32.04-.1c2.91 0 5.57 2.72 5.58 5.74l.42 145.74Zm74.67-.5c0 3.01-2.1 5.76-5.01 5.77l-32.3.1c-2.91 0-5.57-2.72-5.58-5.74l-.57-198.88c-.01-3.01 2.63-5.49 5.54-5.49l32.3-.1c2.91-.01 5.04 2.45 5.05 5.46zm74.67-.23c.01 3.01-2.1 5.76-5.01 5.77l-32.3.1c-2.91.01-5.57-2.72-5.58-5.74l-.57-198.89c0-3.01 2.63-5.49 5.54-5.49l32.3-.1c2.91 0 5.04 2.45 5.05 5.46l.56 198.88Z" style="fill:#204278"/><path d="M490.56 474.78c0 1.15-.6 1.99-1.71 1.99h-1.01c-1.11 0-1.72-.82-1.72-1.98l-.11-37.44c-.03-9.93-4.48-13.16-11.86-13.14-4.45.01-9.5 1.49-13.63 3.6.92 2.4 1.53 5.43 1.54 9.2l.11 37.86c0 1.15-.4 1.99-1.51 1.99h-1.52c-1.11.01-1.42-.82-1.42-1.98l-.11-37.86c-.03-9.73-4.18-12.75-9.54-12.73-4.45.02-9.7 2.02-14.44 4.44l.13 46.22c0 1.15-.4 1.99-1.51 1.99h-1.41c-1.11.01-1.52-.82-1.52-1.98l-.15-52.08c0-1.15.7-2.09 1.81-2.1h.81c1.11 0 1.82.93 1.83 2.08v1.88c4.14-2.1 10-4.53 15.36-4.54 3.64-.01 7.08 1.03 9.61 4.26 5.15-2.53 10.9-4.32 16.26-4.34 8.59-.03 15.58 4.76 15.61 17.21l.11 37.44Zm49.32-.26c0 1.15-.9 2.09-2.02 2.1h-.51c-1.11 0-2.02-.93-2.02-2.08v-2.62c-4.95 2.84-10.81 5.37-17.18 5.39-7.58.02-15.48-3.72-15.51-16.79v-1.36c-.04-10.77 6.62-16.13 24.91-16.18l7.78-.02v-3.77c-.04-10.88-2.99-15.15-12.79-15.12-6.67.02-9.5.45-14.35.98h-.41c-.91 0-1.92-.41-1.93-1.56v-.63c0-1.05.8-1.68 2.32-1.89 4.34-.54 7.68-.96 14.35-.98 13.65-.04 17.21 7.9 17.24 19.19l.1 35.35Zm-4.52-27.49-7.78.03c-15.26.05-20.51 3.2-20.48 12.09v1.36c.03 9.73 4.99 12.74 11.06 12.73 5.66-.02 10.51-1.6 17.27-5.39l-.06-20.81Zm45.96 28.1c0 .83-.2 1.36-1.71 1.68-1.52.32-3.54.32-5.25.33-7.28.02-11.43-2.37-11.46-11.26l-.12-41.2-10 .03c-1.32 0-1.92-.52-1.93-1.67v-1.05c0-1.05.6-1.57 1.91-1.57l10-.03-.03-10.77c0-1.15.6-1.99 1.71-1.99h1.11c1.11 0 1.62.83 1.62 1.98l.03 10.77 12.03-.04c1.31 0 1.92.52 1.92 1.56v1.05c0 1.15-.6 1.68-1.91 1.68l-12.03.04.12 41.2c.02 6.28 2.55 7.21 7 7.2l4.85-.02c1.42 0 2.12.52 2.13 1.46v.63Zm50.06-27.76c0 1.15-.8 1.99-1.91 1.99l-34.16.1v2.2c.06 17.46 8.25 21.31 18.36 21.28 4.45-.01 10-.66 14.95-1.82.3 0 .3-.1.61-.11.81 0 1.52.31 1.52 1.46v.73c0 1.15-.4 1.68-1.91 1.99-4.85 1.16-10.61 1.81-15.16 1.82-12.54.04-22.76-5.58-22.81-25.34l-.02-6.9c-.04-14.43 7-25.01 20.35-25.06 14.05-.04 20.14 9.98 20.18 24.83v2.82Zm-4.46-2.81c-.04-13.28-4.31-20.8-15.73-20.77-11.22.04-15.94 8.52-15.91 20.97v.52l31.64-.1v-.63Zm78.42 29.56c0 1.15-.6 1.99-1.71 1.99h-1.01c-1.11 0-1.72-.82-1.72-1.98l-.11-37.44c-.03-9.93-4.49-13.16-11.86-13.14-4.44.01-9.5 1.49-13.64 3.6.92 2.4 1.53 5.43 1.54 9.2l.11 37.86c0 1.15-.4 1.99-1.51 1.99h-1.51c-1.11.01-1.42-.82-1.42-1.98l-.11-37.86c-.03-9.73-4.18-12.75-9.54-12.73-4.45.02-9.7 2.02-14.44 4.44l.13 46.22c0 1.15-.4 1.99-1.51 1.99h-1.41c-1.11.01-1.52-.82-1.52-1.98l-.15-52.08c0-1.15.7-2.09 1.81-2.1h.81c1.11 0 1.82.93 1.83 2.08v1.88c4.14-2.1 10-4.53 15.35-4.54 3.64-.01 7.08 1.03 9.61 4.26 5.15-2.53 10.9-4.32 16.26-4.34 8.59-.03 15.58 4.76 15.61 17.21l.11 37.44Zm49.32-.25c0 1.15-.9 2.09-2.02 2.1h-.5c-1.11 0-2.02-.93-2.03-2.08v-2.62c-4.95 2.84-10.81 5.37-17.18 5.39-7.58.02-15.48-3.72-15.51-16.79v-1.36c-.04-10.77 6.62-16.13 24.91-16.18l7.78-.02v-3.77c-.04-10.88-2.99-15.15-12.79-15.12-6.67.02-9.5.45-14.35.98h-.41c-.91 0-1.92-.41-1.93-1.56v-.63c0-1.05.8-1.68 2.32-1.89 4.34-.54 7.68-.96 14.35-.98 13.64-.04 17.21 7.9 17.24 19.19l.1 35.35Zm-4.53-27.49-7.78.03c-15.26.05-20.51 3.2-20.49 12.09v1.36c.03 9.73 4.99 12.74 11.06 12.73 5.66-.02 10.51-1.6 17.27-5.39l-.06-20.81Zm45.97 28.09c0 .83-.2 1.36-1.72 1.68-1.51.32-3.54.32-5.26.33-7.28.02-11.43-2.37-11.45-11.26l-.12-41.2-10 .03c-1.32 0-1.92-.52-1.93-1.67v-1.05c0-1.05.6-1.57 1.91-1.57l10-.03-.03-10.77c0-1.15.6-1.99 1.71-1.99h1.11c1.11 0 1.62.83 1.62 1.98l.03 10.77 12.03-.04c1.32 0 1.92.52 1.93 1.56v1.05c0 1.15-.6 1.68-1.91 1.68l-12.03.04.12 41.2c.02 6.28 2.54 7.21 6.99 7.2l4.85-.02c1.42 0 2.13.52 2.13 1.46v.63Zm16.38-67.18c0 1.15-.81 1.99-1.92 1.99h-.61c-1.11 0-1.92-.83-1.93-1.98l-.02-7.74c0-1.15.8-1.99 1.92-1.99h.61c1.11 0 1.92.83 1.93 1.98zm.19 66.51c0 1.15-.8 1.99-1.91 1.99h-.61c-1.11 0-1.92-.83-1.93-1.98l-.15-52.18c0-1.15.8-1.99 1.91-1.99h.61c1.11 0 1.92.83 1.93 1.98l.15 52.19Zm47.11 2.47c-1.21 0-1.92-.1-3.03-1.25l-24.54-27.01.07 25.73c0 1.15-.8 1.99-1.92 1.99h-.61c-1.11 0-1.92-.83-1.93-1.98l-.21-73.72c0-1.15.8-1.99 1.92-1.99h.61c1.11 0 1.92.83 1.93 1.98l.13 44.03 24.8-24.13c.7-.63 1.51-.94 2.42-.95 1.21 0 2.02.94 2.03 1.88 0 .63-.2 1.15-.7 1.57l-24.69 23.5L861 473.03c.5.63.71 1.15.71 1.57 0 1.15-.6 1.68-1.92 1.68Z" class="cls-3"/></svg>